STARTFONT 2.1
FONT -baekmuk-gulim-bold-r-normal--20-200-75-75-m-200-ksx1001.1997-0
SIZE 20 75 75
FONTBOUNDINGBOX 20 20 0 -4
STARTPROPERTIES 18
FOUNDRY "baekmuk"
FAMILY_NAME "gulim"
WEIGHT_NAME "bold"
SLANT "r"
SETWIDTH_NAME "normal"
ADD_STYLE_NAME ""
PIXEL_SIZE 20
POINT_SIZE 200
RESOLUTION_X 75
RESOLUTION_Y 75
SPACING "m"
AVERAGE_WIDTH 202
CHARSET_REGISTRY "ksx1001.1997"
CHARSET_ENCODING "0"
DEFAULT_CHAR 8481
FONT_ASCENT 16
FONT_DESCENT 4
COPYRIGHT "(c)Hwan Design Inc. and Mizi Research Inc."
ENDPROPERTIES
CHARS 8522
STARTCHAR C020440
ENCODING 8480
SWIDTH 2000 0
DWIDTH 20 0
BBX 0 0 0 0
BITMAP
ENDCHAR
STARTCHAR char8481
ENCODING 8481
SWIDTH 2000 0
DWIDTH 20 0
BBX 0 0 0 0
BITMAP
ENDCHAR
STARTCHAR C020442
ENCODING 8482
SWIDTH 2000 0
DWIDTH 20 0
BBX 4 4 13 11
BITMAP
C0
70
30
30
ENDCHAR
STARTCHAR C020443
ENCODING 8483
SWIDTH 2000 0
DWIDTH 20 0
BBX 5 5 13 11
BITMAP
70
D8
88
D8
70
ENDCHAR
STARTCHAR C020444
ENCODING 8484
SWIDTH 2000 0
DWIDTH 20 0
BBX 4 2 8 5
BITMAP
F0
70
ENDCHAR
STARTCHAR C020445
ENCODING 8485
SWIDTH 2000 0
DWIDTH 20 0
BBX 11 2 5 5
BITMAP
E0E0
E0E0
ENDCHAR
STARTCHAR C020446
ENCODING 8486
SWIDTH 2000 0
DWIDTH 20 0
BBX 13 2 3 5
BITMAP
C198
C198
ENDCHAR
STARTCHAR C020447
ENCODING 8487
SWIDTH 2000 0
DWIDTH 20 0
BBX 7 1 6 11
BITMAP
C6
ENDCHAR
STARTCHAR C020450
ENCODING 8488
SWIDTH 2000 0
DWIDTH 20 0
BBX 7 8 7 2
BITMAP
7E
7E
7C
6C
6C
78
D8
C0
ENDCHAR
STARTCHAR C020451
ENCODING 8489
SWIDTH 2000 0
DWIDTH 20 0
BBX 10 2 5 5
BITMAP
FFC0
7FC0
ENDCHAR
STARTCHAR C020452
ENCODING 8490
SWIDTH 2000 0
DWIDTH 20 0
BBX 17 2 2 5
BITMAP
FFFF80
FFFF80
ENDCHAR
STARTCHAR C020453
ENCODING 8491
SWIDTH 2000 0
DWIDTH 20 0
BBX 5 14 8 0
BITMAP
D8
D8
D8
D8
D8
D8
D8
D8
D8
D8
D8
D8
D8
D8
ENDCHAR
STARTCHAR C020454
ENCODING 8492
SWIDTH 2000 0
DWIDTH 20 0
BBX 16 16 2 -2
BITMAP
C000
6000
3000
1800
0C00
0600
0300
0180
01C0
00E0
0070
0030
0018
000C
0006
0003
ENDCHAR
STARTCHAR C020455
ENCODING 8493
SWIDTH 2000 0
DWIDTH 20 0
BBX 12 4 4 4
BITMAP
3C00
6E30
C7E0
03C0
ENDCHAR
STARTCHAR C020456
ENCODING 8494
SWIDTH 2000 0
DWIDTH 20 0
BBX 3 5 13 10
BITMAP
60
C0
C0
E0
E0
ENDCHAR
STARTCHAR C020457
ENCODING 8495
SWIDTH 2000 0
DWIDTH 20 0
BBX 3 4 5 12
BITMAP
C0
E0
C0
C0
ENDCHAR
STARTCHAR C020460
ENCODING 8496
SWIDTH 2000 0
DWIDTH 20 0
BBX 7 5 11 11
BITMAP
66
CC
CC
EE
EE
ENDCHAR
STARTCHAR C020461
ENCODING 8497
SWIDTH 2000 0
DWIDTH 20 0
BBX 7 4 3 12
BITMAP
FE
6C
6C
D8
ENDCHAR
STARTCHAR C020462
ENCODING 8498
SWIDTH 2000 0
DWIDTH 20 0
BBX 7 20 14 -4
BITMAP
18
70
C0
C0
C0
C0
C0
C0
C0
C0
C0
C0
C0
C0
C0
C0
C0
C0
78
18
ENDCHAR
STARTCHAR C020463
ENCODING 8499
SWIDTH 2000 0
DWIDTH 20 0
BBX 5 20 2 -4
BITMAP
C0
70
18
18
18
18
18
18
18
18
18
18
18
18
18
18
18
18
78
C0
ENDCHAR
STARTCHAR C020464
ENCODING 8500
SWIDTH 2000 0
DWIDTH 20 0
BBX 7 16 11 -2
BITMAP
06
0C
0C
18
30
30
60
C0
C0
60
30
30
18
0C
0C
06
ENDCHAR
STARTCHAR C020465
ENCODING 8501
SWIDTH 2000 0
DWIDTH 20 0
BBX 7 17 2 -3
BITMAP
C0
60
30
30
18
0C
06
06
06
06
0C
18
30
30
60
C0
C0
ENDCHAR
STARTCHAR C020466
ENCODING 8502
SWIDTH 2000 0
DWIDTH 20 0
BBX 9 18 10 -3
BITMAP
0180
0F00
1F00
1E00
3600
3C00
6C00
7800
D800
D800
7800
6C00
3C00
3600
1E00
1B00
0F00
0D80
ENDCHAR
STARTCHAR C020467
ENCODING 8503
SWIDTH 2000 0
DWIDTH 20 0
BBX 8 18 2 -3
BITMAP
F0
F8
78
7C
3C
36
1E
1B
0F
0F
1B
1E
3E
3C
78
78
F0
F0
ENDCHAR
STARTCHAR C020470
ENCODING 8504
SWIDTH 2000 0
DWIDTH 20 0
BBX 8 10 12 6
BITMAP
FF
C0
C0
C0
C0
C0
C0
C0
C0
C0
ENDCHAR
STARTCHAR C020471
ENCODING 8505
SWIDTH 2000 0
DWIDTH 20 0
BBX 7 10 1 -4
BITMAP
06
06
06
06
06
06
06
06
06
FE
ENDCHAR
STARTCHAR C020472
ENCODING 8506
SWIDTH 2000 0
DWIDTH 20 0
BBX 8 10 12 6
BITMAP
FF
C3
FF
F0
F0
F0
F0
F0
F0
60
ENDCHAR
STARTCHAR C020473
ENCODING 8507
SWIDTH 2000 0
DWIDTH 20 0
BBX 7 9 1 -4
BITMAP
1E
1E
1E
1E
1E
1E
FE
C6
FE
ENDCHAR
STARTCHAR C020474
ENCODING 8508
SWIDTH 2000 0
DWIDTH 20 0
BBX 4 17 14 -2
BITMAP
F0
E0
E0
E0
C0
C0
C0
C0
C0
C0
C0
C0
C0
E0
E0
F0
F0
ENDCHAR
STARTCHAR C020475
ENCODING 8509
SWIDTH 2000 0
DWIDTH 20 0
BBX 4 17 4 -2
BITMAP
F0
70
70
70
30
30
30
30
30
30
30
30
70
70
70
F0
F0
ENDCHAR
STARTCHAR C020476
ENCODING 8510
SWIDTH 2000 0
DWIDTH 20 0
BBX 13 13 4 0
BITMAP
0600
0600
0600
0600
0600
FFF0
0600
0600
0600
0600
0600
0000
FFF8
ENDCHAR
STARTCHAR C020477
ENCODING 8511
SWIDTH 2000 0
DWIDTH 20 0
BBX 12 12 4 0
BITMAP
C030
6070
30E0
19C0
0D80
0F00
0700
0F80
19C0
30C0
6060
E030
ENDCHAR
STARTCHAR C020500
ENCODING 8512
SWIDTH 2000 0
DWIDTH 20 0
BBX 14 12 3 0
BITMAP
0180
0180
0180
0000
0000
0000
FFFC
0000
0000
0180
0180
0180
ENDCHAR
STARTCHAR C020501
ENCODING 8513
SWIDTH 2000 0
DWIDTH 20 0
BBX 14 12 3 0
BITMAP
0600
0600
0600
0300
FFFC
0300
0380
FFFC
0180
0180
00C0
00C0
ENDCHAR
STARTCHAR C020502
ENCODING 8514
SWIDTH 2000 0
DWIDTH 20 0
BBX 13 12 4 0
BITMAP
0038
00F0
03C0
0E00
7800
E000
3C00
0F00
01E0
0078
0000
FFF8
ENDCHAR
STARTCHAR C020503
ENCODING 8515
SWIDTH 2000 0
DWIDTH 20 0
BBX 13 12 4 0
BITMAP
C000
7800
1E00
0780
01E0
0070
03C0
0F00
3800
E000
0000
FFF8
ENDCHAR
STARTCHAR C020504
ENCODING 8516
SWIDTH 2000 0
DWIDTH 20 0
BBX 15 8 3 2
BITMAP
3C78
66CC
C386
C386
C386
C386
66CC
3C78
ENDCHAR
STARTCHAR C020505
ENCODING 8517
SWIDTH 2000 0
DWIDTH 20 0
BBX 8 9 6 2
BITMAP
0C
0C
00
00
00
00
00
C3
C3
ENDCHAR
STARTCHAR C020506
ENCODING 8518
SWIDTH 2000 0
DWIDTH 20 0
BBX 5 5 2 11
BITMAP
70
D8
D8
D8
70
ENDCHAR
STARTCHAR C020507
ENCODING 8519
SWIDTH 2000 0
DWIDTH 20 0
BBX 4 6 2 10
BITMAP
30
30
70
60
C0
C0
ENDCHAR
STARTCHAR C020510
ENCODING 8520
SWIDTH 2000 0
DWIDTH 20 0
BBX 8 6 2 10
BITMAP
3F
37
7E
6C
D8
C0
ENDCHAR
STARTCHAR C020511
ENCODING 8521
SWIDTH 2000 0
DWIDTH 20 0
BBX 13 14 4 0
BITMAP
E3C0
6FF0
7C38
D818
3818
3018
3000
3000
3000
3030
3830
1830
0E70
07E0
ENDCHAR
STARTCHAR C020512
ENCODING 8522
SWIDTH 2000 0
DWIDTH 20 0
BBX 11 15 5 0
BITMAP
1E00
1E00
1E00
0C00
0E00
1E00
1F00
1B00
3300
3180
7F80
7F80
E0C0
C0C0
C0E0
ENDCHAR
STARTCHAR C020513
ENCODING 8523
SWIDTH 2000 0
DWIDTH 20 0
BBX 17 17 2 -2
BITMAP
000180
07F300
0E3E00
181C00
181C00
303C00
306000
30E000
31C000
338000
370E00
1E0C00
1C1C00
1E3800
37F000
600000
C00000
ENDCHAR
STARTCHAR C020514
ENCODING 8524
SWIDTH 2000 0
DWIDTH 20 0
BBX 13 14 4 0
BITMAP
03C0
0660
0C30
0C30
0C30
0C00
3FE0
3FE0
0600
0600
3E18
7E18
DF30
79E0
ENDCHAR
STARTCHAR C020515
ENCODING 8525
SWIDTH 2000 0
DWIDTH 20 0
BBX 14 15 3 0
BITMAP
3030
3870
1860
1CE0
7FFC
0CC0
0780
0780
FFFC
0300
0300
0300
0300
0300
0300
ENDCHAR
STARTCHAR C020516
ENCODING 8526
SWIDTH 2000 0
DWIDTH 20 0
BBX 10 17 5 -2
BITMAP
0C00
1C00
1E00
3F00
7F00
6D80
CDC0
0CC0
0C00
0C00
1C00
3F00
3180
3180
3180
3B80
1F00
ENDCHAR
STARTCHAR C020517
ENCODING 8527
SWIDTH 2000 0
DWIDTH 20 0
BBX 12 17 4 -3
BITMAP
0F80
1DC0
18C0
18C0
18C0
1D80
0700
0600
0600
FFF0
0600
0600
0600
0600
0600
0600
0600
ENDCHAR
STARTCHAR C020520
ENCODING 8528
SWIDTH 2000 0
DWIDTH 20 0
BBX 12 12 4 0
BITMAP
0060
00E0
01C0
0380
0300
0600
0C00
1800
3000
7000
E000
FFF0
ENDCHAR
STARTCHAR C020521
ENCODING 8529
SWIDTH 2000 0
DWIDTH 20 0
BBX 13 12 4 0
BITMAP
0600
0700
0700
0700
0700
0700
0700
0700
0700
0700
0700
FFF8
ENDCHAR
STARTCHAR C020522
ENCODING 8530
SWIDTH 2000 0
DWIDTH 20 0
BBX 12 3 4 11
BITMAP
1FC0
7070
E030
ENDCHAR
STARTCHAR C020523
ENCODING 8531
SWIDTH 2000 0
DWIDTH 20 0
BBX 8 14 6 0
BITMAP
3E
77
63
03
03
03
3F
67
C7
C7
C6
C6
CC
78
ENDCHAR
STARTCHAR C020524
ENCODING 8532
SWIDTH 2000 0
DWIDTH 20 0
BBX 14 11 3 1
BITMAP
FFFC
601C
7018
3038
1830
1860
0C60
0EC0
07C0
0780
0380
ENDCHAR
STARTCHAR C020525
ENCODING 8533
SWIDTH 2000 0
DWIDTH 20 0
BBX 14 8 3 2
BITMAP
FFFC
0000
0000
0000
FFFC
0000
0000
FFFC
ENDCHAR
STARTCHAR C020526
ENCODING 8534
SWIDTH 2000 0
DWIDTH 20 0
BBX 14 12 3 0
BITMAP
3000
3000
3000
0000
FFFC
0000
0000
FFFC
0000
0000
0060
0060
ENDCHAR
STARTCHAR C020527
ENCODING 8535
SWIDTH 2000 0
DWIDTH 20 0
BBX 7 16 7 -2
BITMAP
78
CC
CC
C0
70
78
DC
C6
C6
66
7C
1C
CE
C6
EE
7C
ENDCHAR
STARTCHAR C020530
ENCODING 8536
SWIDTH 2000 0
DWIDTH 20 0
BBX 12 13 4 0
BITMAP
C000
6330
3360
3BC0
1D80
3F30
3630
3F30
1D80
1BC0
3360
6330
C000
ENDCHAR
STARTCHAR C020531
ENCODING 8537
SWIDTH 2000 0
DWIDTH 20 0
BBX 16 16 2 -3
BITMAP
0180
0180
01C0
03C0
03C0
FE7F
7006
381C
1C38
0C30
0C18
1BD8
1FF8
1E38
381C
300C
ENDCHAR
STARTCHAR C020532
ENCODING 8538
SWIDTH 2000 0
DWIDTH 20 0
BBX 14 15 3 -2
BITMAP
0300
0380
0780
0780
07C0
FFFC
7FF8
3FF0
1FE0
1FE0
1FE0
1FE0
3CF0
3870
0030
ENDCHAR
STARTCHAR C020533
ENCODING 8539
SWIDTH 2000 0
DWIDTH 20 0
BBX 14 16 3 -2
BITMAP
0FC0
1860
3030
6018
6018
C00C
C00C
C00C
C00C
C00C
C00C
6018
6018
3030
1860
0FC0
ENDCHAR
STARTCHAR C020534
ENCODING 8540
SWIDTH 2000 0
DWIDTH 20 0
BBX 14 16 3 -2
BITMAP
0FC0
3FF0
7FF8
7FF8
FFFC
FFFC
FFFC
FFFC
FFFC
FFFC
FFFC
FFFC
7FF8
7FF8
3FF0
0FC0
ENDCHAR
STARTCHAR C020535
ENCODING 8541
SWIDTH 2000 0
DWIDTH 20 0
BBX 14 16 3 -2
BITMAP
0FC0
1860
3030
6FD8
7CF8
D86C
F03C
F03C
F03C
F03C
D86C
7CF8
6FD8
3030
1860
0FC0
ENDCHAR
STARTCHAR C020536
ENCODING 8542
SWIDTH 2000 0
DWIDTH 20 0
BBX 16 17 2 -2
BITMAP
0180
03C0
07E0
0670
0C38
181C
300E
7007
E003
6003
6006
300C
1818
0C30
0660
03C0
0180
ENDCHAR
STARTCHAR C020537
ENCODING 8543
SWIDTH 2000 0
DWIDTH 20 0
BBX 16 17 2 -3
BITMAP
0180
03C0
07E0
07F0
0FF8
1FFC
3FFE
7FFF
FFFF
7FFF
3FFE
1FFC
0FF8
0FF0
07E0
03C0
0180
ENDCHAR
STARTCHAR C020540
ENCODING 8544
SWIDTH 2000 0
DWIDTH 20 0
BBX 14 14 3 -1
BITMAP
FFFC
C00C
C00C
C00C
C00C
C00C
C00C
C00C
C00C
C00C
C00C
C00C
C00C
FFFC
ENDCHAR
STARTCHAR C020541
ENCODING 8545
SWIDTH 2000 0
DWIDTH 20 0
BBX 15 14 3 -1
BITMAP
FFFE
FFFE
FFFE
FFFE
FFFE
FFFE
FFFE
FFFE
FFFE
FFFE
FFFE
FFFE
FFFE
FFFE
ENDCHAR
STARTCHAR C020542
ENCODING 8546
SWIDTH 2000 0
DWIDTH 20 0
BBX 15 12 3 0
BITMAP
0300
0380
07C0
0CC0
0C60
1860
1830
3030
3018
600C
C00C
FFFE
ENDCHAR
STARTCHAR C020543
ENCODING 8547
SWIDTH 2000 0
DWIDTH 20 0
BBX 15 12 3 0
BITMAP
0300
0380
07C0
0FC0
0FE0
1FE0
1FF0
3FF0
7FF8
7FFC
FFFC
FFFE
ENDCHAR
STARTCHAR C020544
ENCODING 8548
SWIDTH 2000 0
DWIDTH 20 0
BBX 15 12 3 0
BITMAP
FFFE
E00C
601C
3018
3030
1830
1860
0C60
06C0
0780
0380
0300
ENDCHAR
STARTCHAR C020545
ENCODING 8549
SWIDTH 2000 0
DWIDTH 20 0
BBX 15 12 3 1
BITMAP
FFFE
FFFC
7FFC
7FF8
3FF0
1FF0
1FE0
0FE0
0FC0
07C0
0380
0300
ENDCHAR
STARTCHAR C020546
ENCODING 8550
SWIDTH 2000 0
DWIDTH 20 0
BBX 16 6 2 3
BITMAP
0018
000C
FFFF
FFFF
000C
0018
ENDCHAR
STARTCHAR C020547
ENCODING 8551
SWIDTH 2000 0
DWIDTH 20 0
BBX 16 6 3 3
BITMAP
1800
3000
FFFF
F000
3000
1800
ENDCHAR
STARTCHAR C020550
ENCODING 8552
SWIDTH 2000 0
DWIDTH 20 0
BBX 8 16 7 -3
BITMAP
18
3C
3C
7E
DB
18
18
18
18
18
18
18
18
18
18
18
ENDCHAR
STARTCHAR C020551
ENCODING 8553
SWIDTH 2000 0
DWIDTH 20 0
BBX 8 16 7 -3
BITMAP
18
18
18
18
18
18
18
18
18
18
18
DB
7E
3C
3C
18
ENDCHAR
STARTCHAR C020552
ENCODING 8554
SWIDTH 2000 0
DWIDTH 20 0
BBX 14 6 3 3
BITMAP
3000
6018
E01C
FFFC
6018
3000
ENDCHAR
STARTCHAR C020553
ENCODING 8555
SWIDTH 2000 0
DWIDTH 20 0
BBX 14 4 3 4
BITMAP
FFFC
0000
0000
FFFC
ENDCHAR
STARTCHAR C020554
ENCODING 8556
SWIDTH 2000 0
DWIDTH 20 0
BBX 14 14 4 -1
BITMAP
00CC
03B8
0770
0CC0
3B80
7700
CC00
CC00
7700
3B80
0CC0
0770
03B8
00CC
ENDCHAR
STARTCHAR C020555
ENCODING 8557
SWIDTH 2000 0
DWIDTH 20 0
BBX 14 14 3 -1
BITMAP
0C00
EE00
7300
1DC0
0EE0
0730
01DC
01DC
03B8
0660
1DC0
3B80
6600
CC00
ENDCHAR
STARTCHAR C020556
ENCODING 8558
SWIDTH 2000 0
DWIDTH 20 0
BBX 17 16 2 -1
BITMAP
007F80
00C000
00C000
018000
018000
018000
030000
030000
030000
060000
060000
760000
FC0000
3C0000
1C0000
180000
ENDCHAR
STARTCHAR C020557
ENCODING 8559
SWIDTH 2000 0
DWIDTH 20 0
BBX 15 8 3 2
BITMAP
3C78
60EC
C1C6
C186
C306
C706
66CE
7C7C
ENDCHAR
STARTCHAR C020560
ENCODING 8560
SWIDTH 2000 0
DWIDTH 20 0
BBX 14 8 4 2
BITMAP
3C78
66CC
C380
C380
C380
C780
6ECC
3C78
ENDCHAR
STARTCHAR C020561
ENCODING 8561
SWIDTH 2000 0
DWIDTH 20 0
BBX 11 10 5 0
BITMAP
C060
C060
0000
0000
0000
0000
0000
0600
0600
0600
ENDCHAR
STARTCHAR C020562
ENCODING 8562
SWIDTH 2000 0
DWIDTH 20 0
BBX 8 15 6 0
BITMAP
0F
0F
1B
18
18
18
18
18
18
18
18
30
F0
F0
60
ENDCHAR
STARTCHAR C020563
ENCODING 8563
SWIDTH 2000 0
DWIDTH 20 0
BBX 14 15 3 -1
BITMAP
0738
0DEC
0DEC
0C60
0C60
1CE0
1CC0
18C0
18C0
18C0
18C0
18C0
DEC0
F780
6000
ENDCHAR
STARTCHAR C020564
ENCODING 8564
SWIDTH 2000 0
DWIDTH 20 0
BBX 14 11 4 0
BITMAP
1FFC
7000
6000
C000
FFFC
C000
C000
E000
6000
7000
1FFC
ENDCHAR
STARTCHAR C020565
ENCODING 8565
SWIDTH 2000 0
DWIDTH 20 0
BBX 14 11 3 0
BITMAP
FFE0
0038
0018
000C
FFFC
000C
000C
001C
0018
0038
FFE0
ENDCHAR
STARTCHAR C020566
ENCODING 8566
SWIDTH 2000 0
DWIDTH 20 0
BBX 13 12 4 0
BITMAP
1FF0
7000
C000
C000
C000
C000
C000
7000
3FF0
0000
0000
FFF8
ENDCHAR
STARTCHAR C020567
ENCODING 8567
SWIDTH 2000 0
DWIDTH 20 0
BBX 13 12 4 0
BITMAP
FF80
00E0
0070
0030
0030
0030
0030
00E0
FFC0
0000
0000
FFF8
ENDCHAR
STARTCHAR C020570
ENCODING 8568
SWIDTH 2000 0
DWIDTH 20 0
BBX 14 11 4 0
BITMAP
1FFC
7000
6000
C000
C000
C000
C000
C000
6000
7000
1FFC
ENDCHAR
STARTCHAR C020571
ENCODING 8569
SWIDTH 2000 0
DWIDTH 20 0
BBX 14 11 3 0
BITMAP
FFE0
0038
0018
000C
000C
000C
000C
000C
0018
0038
FFE0
ENDCHAR
STARTCHAR C020572
ENCODING 8570
SWIDTH 2000 0
DWIDTH 20 0
BBX 11 14 5 0
BITMAP
C060
C060
C060
C060
C060
C060
C060
C060
C060
C060
E060
60E0
71C0
1F80
ENDCHAR
STARTCHAR C020573
ENCODING 8571
SWIDTH 2000 0
DWIDTH 20 0
BBX 11 14 5 0
BITMAP
3F80
71C0
60C0
C060
C060
C060
C060
C060
C060
C060
C060
C060
C060
C060
ENDCHAR
STARTCHAR C020574
ENCODING 8572
SWIDTH 2000 0
DWIDTH 20 0
BBX 13 11 4 0
BITMAP
0700
0700
0D80
0D80
18C0
18C0
3060
3060
6030
6030
C038
ENDCHAR
STARTCHAR C020575
ENCODING 8573
SWIDTH 2000 0
DWIDTH 20 0
BBX 13 11 4 1
BITMAP
C018
6030
6030
3060
3060
18C0
18C0
0D80
0D80
0700
0700
ENDCHAR
STARTCHAR C020576
ENCODING 8574
SWIDTH 2000 0
DWIDTH 20 0
BBX 12 7 4 3
BITMAP
FFF0
0030
0030
0030
0030
0030
0030
ENDCHAR
STARTCHAR C020577
ENCODING 8575
SWIDTH 2000 0
DWIDTH 20 0
BBX 0 0 0 0
BITMAP
ENDCHAR
STARTCHAR C021041
ENCODING 8737
SWIDTH 2000 0
DWIDTH 20 0
BBX 17 10 1 1
BITMAP
001800
000C00
000600
7FFF00
000180
000180
FFFF00
000600
000C00
001800
ENDCHAR
STARTCHAR C021042
ENCODING 8738
SWIDTH 2000 0
DWIDTH 20 0
BBX 15 10 3 1
BITMAP
0C60
1830
3018
7FFC
C006
C006
600C
3FF8
1830
0C60
ENDCHAR
STARTCHAR C021043
ENCODING 8739
SWIDTH 2000 0
DWIDTH 20 0
BBX 13 14 4 0
BITMAP
C018
C018
6038
6030
3030
3FE0
3060
18C0
18C0
0CC0
0D80
0780
0700
0700
ENDCHAR
STARTCHAR C021044
ENCODING 8740
SWIDTH 2000 0
DWIDTH 20 0
BBX 10 13 5 0
BITMAP
FFC0
00C0
00C0
00C0
00C0
00C0
7FC0
00C0
00C0
00C0
00C0
00C0
7FC0
ENDCHAR
STARTCHAR C021045
ENCODING 8741
SWIDTH 2000 0
DWIDTH 20 0
BBX 3 3 8 12
BITMAP
60
C0
C0
ENDCHAR
STARTCHAR C021046
ENCODING 8742
SWIDTH 2000 0
DWIDTH 20 0
BBX 11 3 5 12
BITMAP
7860
FEE0
C7C0
ENDCHAR
STARTCHAR C021047
ENCODING 8743
SWIDTH 2000 0
DWIDTH 20 0
BBX 7 3 7 12
BITMAP
C6
FC
78
ENDCHAR
STARTCHAR C021050
ENCODING 8744
SWIDTH 2000 0
DWIDTH 20 0
BBX 8 4 6 12
BITMAP
C0
63
63
3E
ENDCHAR
STARTCHAR C021051
ENCODING 8745
SWIDTH 2000 0
DWIDTH 20 0
BBX 6 3 7 13
BITMAP
3C
7C
C0
ENDCHAR
STARTCHAR C021052
ENCODING 8746
SWIDTH 2000 0
DWIDTH 20 0
BBX 5 3 8 12
BITMAP
F8
D8
F8
ENDCHAR
STARTCHAR C021053
ENCODING 8747
SWIDTH 2000 0
DWIDTH 20 0
BBX 2 2 10 13
BITMAP
C0
C0
ENDCHAR
STARTCHAR C021054
ENCODING 8748
SWIDTH 2000 0
DWIDTH 20 0
BBX 3 4 9 -3
BITMAP
E0
60
60
C0
ENDCHAR
STARTCHAR C021055
ENCODING 8749
SWIDTH 2000 0
DWIDTH 20 0
BBX 5 4 8 -3
BITMAP
60
60
D8
70
ENDCHAR
STARTCHAR C021056
ENCODING 8750
SWIDTH 2000 0
DWIDTH 20 0
BBX 3 13 9 0
BITMAP
60
60
00
C0
C0
C0
C0
C0
C0
C0
C0
C0
C0
ENDCHAR
STARTCHAR C021057
ENCODING 8751
SWIDTH 2000 0
DWIDTH 20 0
BBX 9 14 6 0
BITMAP
0600
0600
0000
0000
0C00
0C00
0C00
3C00
6000
C300
C380
C380
E700
7E00
ENDCHAR
STARTCHAR C021060
ENCODING 8752
SWIDTH 2000 0
DWIDTH 20 0
BBX 3 9 9 2
BITMAP
E0
E0
00
00
00
00
00
E0
E0
ENDCHAR
STARTCHAR C021061
ENCODING 8753
SWIDTH 2000 0
DWIDTH 20 0
BBX 9 15 6 0
BITMAP
0700
0F80
0C00
0C00
1C00
1C00
3E00
3E00
3E00
1C00
1800
1800
1800
F000
F000
ENDCHAR
STARTCHAR C021062
ENCODING 8754
SWIDTH 2000 0
DWIDTH 20 0
BBX 14 14 3 0
BITMAP
FFFC
E00C
700C
380C
1C0C
0E0C
0700
0700
0E00
1C0C
180C
300C
600C
FFFC
ENDCHAR
STARTCHAR C021063
ENCODING 8755
SWIDTH 2000 0
DWIDTH 20 0
BBX 15 14 3 0
BITMAP
FFFE
3030
3030
3030
3030
3030
3030
3030
3030
3030
3030
3030
3030
3030
ENDCHAR
STARTCHAR C021064
ENCODING 8756
SWIDTH 2000 0
DWIDTH 20 0
BBX 14 14 3 -1
BITMAP
C00C
6FD8
3870
3030
6018
6018
6018
6018
6018
3038
3870
6FF0
C018
000C
ENDCHAR
STARTCHAR C021065
ENCODING 8757
SWIDTH 2000 0
DWIDTH 20 0
BBX 16 15 2 0
BITMAP
01FF
F980
D980
D980
7180
0180
01FC
0180
0180
0180
0180
0180
0180
0180
0180
ENDCHAR
STARTCHAR C021066
ENCODING 8758
SWIDTH 2000 0
DWIDTH 20 0
BBX 16 18 2 -2
BITMAP
7C18
6C30
C630
C660
C6C0
C6C0
C780
6F00
7F00
07CE
0F7B
0F7B
1B7B
337B
337B
637B
C1CE
C000
ENDCHAR
STARTCHAR C021067
ENCODING 8759
SWIDTH 2000 0
DWIDTH 20 0
BBX 11 15 5 -1
BITMAP
0060
00E0
01E0
0760
0C60
3860
6060
C060
7060
3860
0E60
0760
03E0
00E0
0060
ENDCHAR
STARTCHAR C021070
ENCODING 8760
SWIDTH 2000 0
DWIDTH 20 0
BBX 12 15 4 -1
BITMAP
0030
0070
01F0
03F0
07F0
1FF0
3FF0
FFF0
3FF0
1FF0
0FF0
03F0
01F0
0070
0030
ENDCHAR
STARTCHAR C021071
ENCODING 8761
SWIDTH 2000 0
DWIDTH 20 0
BBX 12 15 5 -1
BITMAP
C000
E000
F800
DC00
C600
C380
C0C0
C070
C1C0
C380
C600
DC00
F800
E000
C000
ENDCHAR
STARTCHAR C021072
ENCODING 8762
SWIDTH 2000 0
DWIDTH 20 0
BBX 11 13 5 0
BITMAP
E000
F000
F800
FE00
FF00
FFC0
FFE0
FFC0
FF80
FE00
FC00
F000
E000
ENDCHAR
STARTCHAR C021073
ENCODING 8763
SWIDTH 2000 0
DWIDTH 20 0
BBX 13 16 4 -2
BITMAP
0700
0F80
0D80
18C0
3860
3060
6030
E038
C018
C018
C018
CF98
7FF0
0F00
0D80
0F80
ENDCHAR
STARTCHAR C021074
ENCODING 8764
SWIDTH 2000 0
DWIDTH 20 0
BBX 13 17 4 -2
BITMAP
0600
0700
0F80
1F80
3FC0
3FE0
7FE0
7FF0
FFF0
FFF8
FFF8
FFF8
FFF8
7FF0
0700
0F00
0F80
ENDCHAR
STARTCHAR C021075
ENCODING 8765
SWIDTH 2000 0
DWIDTH 20 0
BBX 13 15 4 -1
BITMAP
39E0
6DB0
C718
C718
C018
C018
C018
6030
6030
3060
3060
18C0
0D80
0700
0300
ENDCHAR
STARTCHAR C021076
ENCODING 8766
SWIDTH 2000 0
DWIDTH 20 0
BBX 14 17 3 -2
BITMAP
3CF8
7FFC
FFFC
FFFC
FFFC
FFFC
FFFC
7FFC
7FF8
3FF8
3FF0
1FF0
1FE0
0FC0
07C0
0780
0300
ENDCHAR
STARTCHAR C021077
ENCODING 8767
SWIDTH 2000 0
DWIDTH 20 0
BBX 16 17 2 -2
BITMAP
03C0
0660
0C30
0C30
0C30
0670
06E0
7FFE
6603
C003
C003
C3C3
E7E6
7FFE
03C0
03C0
07C0
ENDCHAR
STARTCHAR C021100
ENCODING 8768
SWIDTH 2000 0
DWIDTH 20 0
BBX 16 17 2 -2
BITMAP
03C0
07E0
07F0
0FF0
0FF0
07F0
3FFC
7FFE
7FFF
FFFF
FFFF
7FFF
7FFE
3DFC
01C0
03C0
03E0
ENDCHAR
STARTCHAR C021101
ENCODING 8769
SWIDTH 2000 0
DWIDTH 20 0
BBX 15 15 3 -1
BITMAP
0FE0
1838
3798
7FEC
FFF6
FFF6
FFF6
FFF6
FFF6
FFF6
FFFE
7FEC
3398
3838
0FE0
ENDCHAR
STARTCHAR C021102
ENCODING 8770
SWIDTH 2000 0
DWIDTH 20 0
BBX 17 17 2 -2
BITMAP
018000
03C000
066000
0DF000
1BD800
1FEC00
3FF600
7FFB00
FFFF80
7FFF00
3FF600
1FEC00
0FD800
0DB000
066000
03C000
018000
ENDCHAR
STARTCHAR C021103
ENCODING 8771
SWIDTH 2000 0
DWIDTH 20 0
BBX 14 15 3 -1
BITMAP
FFFC
C00C
C00C
C00C
DFEC
DFEC
DFEC
DFEC
DFEC
DFEC
DFEC
C00C
C00C
C00C
FFFC
ENDCHAR
STARTCHAR C021104
ENCODING 8772
SWIDTH 2000 0
DWIDTH 20 0
BBX 15 15 3 -1
BITMAP
0FE0
3F70
7F18
7F0C
FF0E
FF06
FF06
FF06
FF06
FF06
FF0E
7F0C
7F18
3F70
0FE0
ENDCHAR
STARTCHAR C021105
ENCODING 8773
SWIDTH 2000 0
DWIDTH 20 0
BBX 15 15 3 -1
BITMAP
0FE0
1DF8
31FC
61FC
C1FE
C1FE
C1FE
C1FE
C1FE
C1FE
C1FE
61FC
71FC
39F8
0FE0
ENDCHAR
STARTCHAR C021106
ENCODING 8774
SWIDTH 2000 0
DWIDTH 20 0
BBX 14 15 3 -1
BITMAP
FFFC
FDEC
D8FC
C00C
FDEC
D8FC
FDEC
C00C
D8FC
FDEC
D8FC
C00C
FDEC
C00C
FFFC
ENDCHAR
STARTCHAR C021107
ENCODING 8775
SWIDTH 2000 0
DWIDTH 20 0
BBX 15 15 3 -1
BITMAP
FFFE
C006
C006
FFFE
C006
C006
C006
FFFE
C006
C006
FFFE
C006
C006
C006
FFFE
ENDCHAR
STARTCHAR C021110
ENCODING 8776
SWIDTH 2000 0
DWIDTH 20 0
BBX 14 15 3 -1
BITMAP
FFFC
DB6C
DB6C
DB6C
DB6C
DB6C
DB6C
DB6C
DB6C
DB6C
DB6C
DB6C
DB6C
DB6C
FFFC
ENDCHAR
STARTCHAR C021111
ENCODING 8777
SWIDTH 2000 0
DWIDTH 20 0
BBX 15 15 3 -1
BITMAP
FFFE
C30E
C61E
CC36
D866
F0C6
E186
C30E
C61E
CC1E
CC36
D866
F0C6
E186
FFFE
ENDCHAR
STARTCHAR C021112
ENCODING 8778
SWIDTH 2000 0
DWIDTH 20 0
BBX 14 15 3 -1
BITMAP
FFFC
C30C
E18C
F0CC
D86C
CC3C
C61C
E30C
F18C
F0CC
D8CC
CC6C
C63C
C31C
FFFC
ENDCHAR
STARTCHAR C021113
ENCODING 8779
SWIDTH 2000 0
DWIDTH 20 0
BBX 15 15 3 -1
BITMAP
FFFE
DB66
DB66
FFFE
DB66
DB66
DB66
FFFE
DB66
DB66
FFFE
DB66
DB66
DB66
FFFE
ENDCHAR
STARTCHAR C021114
ENCODING 8780
SWIDTH 2000 0
DWIDTH 20 0
BBX 15 15 3 -1
BITMAP
FFFE
E78E
ED9E
F8F6
DC76
FCFE
E79E
C30E
E78E
FCDE
D876
FC76
E6DE
E38E
FFFE
ENDCHAR
STARTCHAR C021115
ENCODING 8781
SWIDTH 2000 0
DWIDTH 20 0
BBX 15 17 3 -2
BITMAP
0180
0180
0DE0
0F60
0F60
0F60
0F70
0DB0
07B0
07B0
37B8
6F6C
CF66
CF66
E00E
703C
1FF0
ENDCHAR
STARTCHAR C021116
ENCODING 8782
SWIDTH 2000 0
DWIDTH 20 0
BBX 17 12 2 0
BITMAP
1FFC00
7FF600
FE7B00
FFF980
FFFF80
7C3800
3C3C00
3C3C00
6C3600
6C3600
67E600
7FFE00
ENDCHAR
STARTCHAR C021117
ENCODING 8783
SWIDTH 2000 0
DWIDTH 20 0
BBX 17 12 2 0
BITMAP
1FFC00
3FFF00
7E3F80
FFFF80
FE3780
0C1800
1C1C00
1C1C00
3C1E00
3C1E00
3E3E00
3FFE00
ENDCHAR
STARTCHAR C021120
ENCODING 8784
SWIDTH 2000 0
DWIDTH 20 0
BBX 17 8 2 3
BITMAP
01F800
FF7F80
C1C780
7FE380
0FF380
0CFB80
07EF80
01F800
ENDCHAR
STARTCHAR C021121
ENCODING 8785
SWIDTH 2000 0
DWIDTH 20 0
BBX 17 8 2 3
BITMAP
07C000
FF7F80
F1C180
E3FF00
E7F800
EFD800
F3F000
1FC000
ENDCHAR
STARTCHAR C021122
ENCODING 8786
SWIDTH 2000 0
DWIDTH 20 0
BBX 11 17 4 -2
BITMAP
3E60
6660
C660
C660
C660
C660
6660
3E60
0660
0660
0660
0660
0660
0660
0660
0660
0660
ENDCHAR
STARTCHAR C021123
ENCODING 8787
SWIDTH 2000 0
DWIDTH 20 0
BBX 10 18 5 -2
BITMAP
0C00
0C00
0C00
0C00
0C00
FFC0
0C00
0C00
0C00
0C00
0C00
0C00
0C00
0C00
0C00
0C00
0C00
0C00
ENDCHAR
STARTCHAR C021124
ENCODING 8788
SWIDTH 2000 0
DWIDTH 20 0
BBX 10 18 5 -2
BITMAP
0C00
0C00
0C00
FFC0
0C00
0C00
FFC0
FF80
0C00
0C00
0C00
0C00
0C00
0C00
0C00
0C00
0C00
0C00
ENDCHAR
STARTCHAR C021125
ENCODING 8789
SWIDTH 2000 0
DWIDTH 20 0
BBX 6 15 7 -1
BITMAP
38
7C
30
30
30
30
30
30
30
30
30
F0
7C
38
30
ENDCHAR
STARTCHAR C021126
ENCODING 8790
SWIDTH 2000 0
DWIDTH 20 0
BBX 11 12 4 0
BITMAP
01E0
00E0
01E0
03E0
0300
0600
0C00
1800
3000
7000
E000
C000
ENDCHAR
STARTCHAR C021127
ENCODING 8791
SWIDTH 2000 0
DWIDTH 20 0
BBX 12 12 5 1
BITMAP
0070
00E0
00C0
0180
0300
0600
0C00
1C00
F800
F000
E000
F800
ENDCHAR
STARTCHAR C021130
ENCODING 8792
SWIDTH 2000 0
DWIDTH 20 0
BBX 12 12 5 0
BITMAP
F800
E000
F000
D800
CC00
0E00
0700
0380
01C0
00E0
0060
0030
ENDCHAR
STARTCHAR C021131
ENCODING 8793
SWIDTH 2000 0
DWIDTH 20 0
BBX 11 12 5 0
BITMAP
C000
E000
7000
3800
1C00
0E00
0600
0360
01E0
00E0
01E0
0300
ENDCHAR
STARTCHAR C021132
ENCODING 8794
SWIDTH 2000 0
DWIDTH 20 0
BBX 7 13 7 0
BITMAP
C0
C0
C0
C0
FC
E6
C6
C6
C6
CE
DC
F8
E0
ENDCHAR
STARTCHAR C021133
ENCODING 8795
SWIDTH 2000 0
DWIDTH 20 0
BBX 5 16 7 -1
BITMAP
18
18
18
18
18
18
18
18
18
18
18
18
18
78
F0
E0
ENDCHAR
STARTCHAR C021134
ENCODING 8796
SWIDTH 2000 0
DWIDTH 20 0
BBX 9 15 5 -1
BITMAP
1800
1C00
1E00
1F00
1B80
1980
1980
1980
1B00
1800
1800
1800
7800
F000
E000
ENDCHAR
STARTCHAR C021135
ENCODING 8797
SWIDTH 2000 0
DWIDTH 20 0
BBX 13 14 4 -1
BITMAP
1FF8
1818
1818
1FF8
1818
1818
1818
1818
1818
1818
1818
7878
F0F0
E0E0
ENDCHAR
STARTCHAR C021136
ENCODING 8798
SWIDTH 2000 0
DWIDTH 20 0
BBX 15 15 3 -1
BITMAP
0FE0
3870
7018
6CCC
EDCC
CD8C
CF00
FFBE
0D86
6CC6
6CC6
6C6C
301C
1C38
07E0
ENDCHAR
STARTCHAR C021137
ENCODING 8799
SWIDTH 2000 0
DWIDTH 20 0
BBX 17 16 2 -1
BITMAP
180C00
380600
3FFE00
61C300
63E300
C77180
DC3D80
C00180
C00180
FFFD80
C18180
C18180
618300
618300
318600
198C00
ENDCHAR
STARTCHAR C021140
ENCODING 8800
SWIDTH 2000 0
DWIDTH 20 0
BBX 17 14 2 0
BITMAP
C60000
E60000
E60000
E60000
F63C00
F67E00
F6E700
DEC300
DEC300
DEC300
CEC300
CEE700
C67780
C63D80
ENDCHAR
STARTCHAR C021141
ENCODING 8801
SWIDTH 2000 0
DWIDTH 20 0
BBX 19 14 1 0
BITMAP
3E0000
730000
618000
C18000
C01E00
C03300
C07380
C06180
C06180
C1E180
C1E180
61F380
733300
3E1EE0
ENDCHAR
STARTCHAR C021142
ENCODING 8802
SWIDTH 2000 0
DWIDTH 20 0
BBX 16 14 2 0
BITMAP
FFC3
18E7
18E7
18E7
18E7
18E7
18EF
18FF
18FF
18FF
18FF
18FF
18DB
18DB
ENDCHAR
STARTCHAR C021143
ENCODING 8803
SWIDTH 2000 0
DWIDTH 20 0
BBX 18 10 2 0
BITMAP
38C000
7CFF00
CCDB00
CCDB00
7CDB00
ECDB00
CCDB00
CCDB00
DCDB00
7FDBC0
ENDCHAR
STARTCHAR C021144
ENCODING 8804
SWIDTH 2000 0
DWIDTH 20 0
BBX 17 13 2 -3
BITMAP
FCCC00
ECFE00
C6DE00
C6DE00
C6DE00
C6DE00
C6DE00
C6DE00
ECDE00
FBDF80
C00000
C00000
C00000
ENDCHAR
STARTCHAR C021145
ENCODING 8805
SWIDTH 2000 0
DWIDTH 20 0
BBX 15 14 2 0
BITMAP
FF06
1806
1806
1806
19E6
1BF6
1B1E
1E1E
1FFE
1E06
1F1E
1B1E
1BBE
19F6
ENDCHAR
STARTCHAR C021441
ENCODING 8993
SWIDTH 2000 0
DWIDTH 20 0
BBX 3 16 9 -1
BITMAP
60
60
60
60
60
60
60
60
60
60
60
60
60
00
C0
C0
ENDCHAR
STARTCHAR C021442
ENCODING 8994
SWIDTH 2000 0
DWIDTH 20 0
BBX 9 6 6 9
BITMAP
1B80
3F00
3600
6C00
D800
D800
ENDCHAR
STARTCHAR C021443
ENCODING 8995
SWIDTH 2000 0
DWIDTH 20 0
BBX 14 15 3 -1
BITMAP
0630
0630
0630
0E30
7FFC
0C60
0C60
0C60
0C60
1860
FFF8
18C0
18C0
18C0
38C0
ENDCHAR
STARTCHAR C021444
ENCODING 8996
SWIDTH 2000 0
DWIDTH 20 0
BBX 13 16 4 -1
BITMAP
0D80
1FC0
7DF0
CDB8
CD98
CD80
7D80
1F80
0DF0
0DB8
0D98
CD98
ED98
7DF0
1FC0
0D80
ENDCHAR
STARTCHAR C021445
ENCODING 8997
SWIDTH 2000 0
DWIDTH 20 0
BBX 17 15 2 -1
BITMAP
7F0300
E38600
C18C00
C19800
C1B000
636000
3EC000
01BE00
036300
06C180
0CC180
18C180
30C180
607700
001C00
ENDCHAR
STARTCHAR C021446
ENCODING 8998
SWIDTH 2000 0
DWIDTH 20 0
BBX 11 14 5 0
BITMAP
1F00
1B80
3180
3180
1B80
1F00
1C00
7600
E760
C360
C1E0
C1C0
63E0
3E60
ENDCHAR
STARTCHAR C021447
ENCODING 8999
SWIDTH 2000 0
DWIDTH 20 0
BBX 3 5 9 11
BITMAP
E0
E0
60
60
C0
ENDCHAR
STARTCHAR C021450
ENCODING 9000
SWIDTH 2000 0
DWIDTH 20 0
BBX 6 17 7 -2
BITMAP
1C
38
30
60
60
C0
C0
C0
C0
C0
C0
C0
60
60
30
38
1C
ENDCHAR
STARTCHAR C021451
ENCODING 9001
SWIDTH 2000 0
DWIDTH 20 0
BBX 6 17 7 -2
BITMAP
E0
70
30
18
18
0C
0C
0C
0C
0C
0C
0C
18
18
30
70
E0
ENDCHAR
STARTCHAR C021452
ENCODING 9002
SWIDTH 2000 0
DWIDTH 20 0
BBX 12 10 4 2
BITMAP
1980
3DC0
1D80
0F80
6730
FFF0
6730
0D80
1DC0
1DC0
ENDCHAR
STARTCHAR C021453
ENCODING 9003
SWIDTH 2000 0
DWIDTH 20 0
BBX 15 15 3 -1
BITMAP
0300
0300
0300
0300
0300
0300
0300
FFFE
0300
0300
0300
0300
0300
0300
0300
ENDCHAR
STARTCHAR C021454
ENCODING 9004
SWIDTH 2000 0
DWIDTH 20 0
BBX 4 6 8 -3
BITMAP
70
F0
70
30
60
C0
ENDCHAR
STARTCHAR C021455
ENCODING 9005
SWIDTH 2000 0
DWIDTH 20 0
BBX 15 1 4 6
BITMAP
FFFE
ENDCHAR
STARTCHAR C021456
ENCODING 9006
SWIDTH 2000 0
DWIDTH 20 0
BBX 4 2 9 -1
BITMAP
F0
F0
ENDCHAR
STARTCHAR C021457
ENCODING 9007
SWIDTH 2000 0
DWIDTH 20 0
BBX 9 17 6 -2
BITMAP
0180
0380
0300
0300
0600
0600
0E00
0C00
0C00
1800
1800
3000
3000
3000
6000
6000
C000
ENDCHAR
STARTCHAR C021460
ENCODING 9008
SWIDTH 2000 0
DWIDTH 20 0
BBX 11 14 5 0
BITMAP
1F00
3180
60C0
E0E0
C060
C060
C060
C060
C060
C060
E0C0
60C0
3180
1F00
ENDCHAR
STARTCHAR C021461
ENCODING 9009
SWIDTH 2000 0
DWIDTH 20 0
BBX 6 14 6 0
BITMAP
1C
1C
3C
6C
CC
0C
0C
0C
0C
0C
0C
0C
0C
0C
ENDCHAR
STARTCHAR C021462
ENCODING 9010
SWIDTH 2000 0
DWIDTH 20 0
BBX 10 14 5 0
BITMAP
3F00
61C0
C0C0
C0C0
00C0
01C0
0380
0E00
1C00
7800
6000
C000
C000
FFC0
ENDCHAR
STARTCHAR C021463
ENCODING 9011
SWIDTH 2000 0
DWIDTH 20 0
BBX 11 14 5 0
BITMAP
3F00
61C0
E0C0
00C0
00C0
0180
1F00
01C0
00C0
00E0
C0E0
C0C0
71C0
3F00
ENDCHAR
STARTCHAR C021464
ENCODING 9012
SWIDTH 2000 0
DWIDTH 20 0
BBX 12 14 4 0
BITMAP
01C0
03C0
03C0
06C0
0CC0
1CC0
38C0
30C0
60C0
E0C0
FFF0
00C0
00C0
00C0
ENDCHAR
STARTCHAR C021465
ENCODING 9013
SWIDTH 2000 0
DWIDTH 20 0
BBX 10 14 6 0
BITMAP
FFC0
C000
C000
C000
C000
FF00
E180
00C0
00C0
00C0
C0C0
C1C0
6380
3F00
ENDCHAR
STARTCHAR C021466
ENCODING 9014
SWIDTH 2000 0
DWIDTH 20 0
BBX 11 14 5 0
BITMAP
1F80
39C0
60E0
6000
C000
DF80
F1C0
E0E0
C060
C060
C060
60E0
71C0
1F80
ENDCHAR
STARTCHAR C021467
ENCODING 9015
SWIDTH 2000 0
DWIDTH 20 0
BBX 10 14 6 0
BITMAP
FFC0
00C0
0180
0380
0300
0700
0600
0C00
0C00
1800
3800
3000
7000
6000
ENDCHAR
STARTCHAR C021470
ENCODING 9016
SWIDTH 2000 0
DWIDTH 20 0
BBX 11 14 5 0
BITMAP
1F80
71C0
60C0
60E0
60C0
71C0
3F80
71C0
E0E0
C060
C060
E0E0
71C0
3F00
ENDCHAR
STARTCHAR C021471
ENCODING 9017
SWIDTH 2000 0
DWIDTH 20 0
BBX 11 14 5 0
BITMAP
3F00
71C0
E0C0
C0C0
C0E0
C0E0
C0E0
63E0
3FE0
00E0
C0C0
E0C0
7180
3F00
ENDCHAR
STARTCHAR C021472
ENCODING 9018
SWIDTH 2000 0
DWIDTH 20 0
BBX 2 11 9 1
BITMAP
C0
C0
00
00
00
00
00
00
00
C0
C0
ENDCHAR
STARTCHAR C021473
ENCODING 9019
SWIDTH 2000 0
DWIDTH 20 0
BBX 4 14 9 -2
BITMAP
C0
C0
00
00
00
00
00
00
00
E0
F0
60
60
C0
ENDCHAR
STARTCHAR C021474
ENCODING 9020
SWIDTH 2000 0
DWIDTH 20 0
BBX 15 15 3 -1
BITMAP
001C
0078
00E0
0380
0E00
3800
E000
C000
F000
3C00
0E00
0380
00E0
0038
000E
ENDCHAR
STARTCHAR C021475
ENCODING 9021
SWIDTH 2000 0
DWIDTH 20 0
BBX 15 5 3 4
BITMAP
FFFE
0000
0000
0000
FFFE
ENDCHAR
STARTCHAR C021476
ENCODING 9022
SWIDTH 2000 0
DWIDTH 20 0
BBX 15 16 3 -1
BITMAP
C000
7000
1C00
0700
01C0
00F0
003C
000E
000E
003C
0070
01C0
0700
1C00
7000
C000
ENDCHAR
STARTCHAR C021477
ENCODING 9023
SWIDTH 2000 0
DWIDTH 20 0
BBX 13 17 4 -2
BITMAP
1FE0
3870
6018
E018
E018
6038
3870
19E0
0700
0600
0600
0600
0600
0000
0000
0000
0300
ENDCHAR
STARTCHAR C021500
ENCODING 9024
SWIDTH 2000 0
DWIDTH 20 0
BBX 17 15 2 -1
BITMAP
0FF800
380C00
700600
600300
E7F300
CE3300
CC3180
CC3180
CC3380
CC3300
E67B00
67DE00
300000
1C0000
0FF800
ENDCHAR
STARTCHAR C021501
ENCODING 9025
SWIDTH 2000 0
DWIDTH 20 0
BBX 13 15 4 0
BITMAP
0700
0700
0F80
0D80
0D80
1DC0
18C0
38C0
3060
3060
7070
7FF0
6030
C018
C018
ENDCHAR
STARTCHAR C021502
ENCODING 9026
SWIDTH 2000 0
DWIDTH 20 0
BBX 13 15 5 0
BITMAP
FFC0
C060
C030
C030
C030
C030
C060
FFE0
C070
C038
C038
C038
C030
C070
FFE0
ENDCHAR
STARTCHAR C021503
ENCODING 9027
SWIDTH 2000 0
DWIDTH 20 0
BBX 13 15 4 0
BITMAP
0FC0
38E0
7030
6038
E018
C000
C000
C000
C000
C000
C018
6038
7030
3860
0FC0
ENDCHAR
STARTCHAR C021504
ENCODING 9028
SWIDTH 2000 0
DWIDTH 20 0
BBX 13 15 5 0
BITMAP
FF80
C0E0
C030
C030
C018
C018
C018
C018
C018
C018
C018
C030
C030
C0E0
FF80
ENDCHAR
STARTCHAR C021505
ENCODING 9029
SWIDTH 2000 0
DWIDTH 20 0
BBX 11 14 5 0
BITMAP
FFE0
C000
C000
C000
C000
C000
FFE0
C000
C000
C000
C000
C000
C000
FFE0
ENDCHAR
STARTCHAR C021506
ENCODING 9030
SWIDTH 2000 0
DWIDTH 20 0
BBX 11 14 6 0
BITMAP
FFE0
C000
C000
C000
C000
C000
FFE0
C000
C000
C000
C000
C000
C000
C000
ENDCHAR
STARTCHAR C021507
ENCODING 9031
SWIDTH 2000 0
DWIDTH 20 0
BBX 13 16 4 -1
BITMAP
1FC0
38E0
7030
6030
E018
C000
C000
C3F8
C018
C018
C018
E018
6030
3070
38E0
0F80
ENDCHAR
STARTCHAR C021510
ENCODING 9032
SWIDTH 2000 0
DWIDTH 20 0
BBX 11 15 5 0
BITMAP
C060
C060
C060
C060
C060
C060
C060
FFE0
C060
C060
C060
C060
C060
C060
C060
ENDCHAR
STARTCHAR C021511
ENCODING 9033
SWIDTH 2000 0
DWIDTH 20 0
BBX 2 15 10 0
BITMAP
C0
C0
C0
C0
C0
C0
C0
C0
C0
C0
C0
C0
C0
C0
C0
ENDCHAR
STARTCHAR C021512
ENCODING 9034
SWIDTH 2000 0
DWIDTH 20 0
BBX 11 15 4 0
BITMAP
0060
0060
0060
0060
0060
0060
0060
0060
0060
C060
C060
C060
60C0
71C0
1F00
ENDCHAR
STARTCHAR C021513
ENCODING 9035
SWIDTH 2000 0
DWIDTH 20 0
BBX 11 15 6 0
BITMAP
C060
C0C0
C380
C700
CE00
DC00
F000
F000
F800
DC00
CE00
C700
C380
C1C0
C060
ENDCHAR
STARTCHAR C021514
ENCODING 9036
SWIDTH 2000 0
DWIDTH 20 0
BBX 12 15 6 0
BITMAP
C000
C000
C000
C000
C000
C000
C000
C000
C000
C000
C000
C000
C000
C000
FFF0
ENDCHAR
STARTCHAR C021515
ENCODING 9037
SWIDTH 2000 0
DWIDTH 20 0
BBX 15 15 3 0
BITMAP
C00E
E00E
E01E
F01E
F01E
F836
D836
D876
CC66
CCE6
C6C6
C6C6
C786
C386
C306
ENDCHAR
STARTCHAR C021516
ENCODING 9038
SWIDTH 2000 0
DWIDTH 20 0
BBX 11 15 5 0
BITMAP
E060
E060
F060
F060
D860
DC60
CC60
CE60
C660
C760
C360
C1E0
C1E0
C0E0
C0E0
ENDCHAR
STARTCHAR C021517
ENCODING 9039
SWIDTH 2000 0
DWIDTH 20 0
BBX 13 16 4 -1
BITMAP
0F80
38E0
7070
6030
C038
C018
C018
C018
C018
C018
C018
E030
6030
7070
38E0
0F80
ENDCHAR
STARTCHAR C021520
ENCODING 9040
SWIDTH 2000 0
DWIDTH 20 0
BBX 13 15 5 0
BITMAP
FFE0
C030
C018
C018
C018
C018
C038
C030
FFE0
C000
C000
C000
C000
C000
C000
ENDCHAR
STARTCHAR C021521
ENCODING 9041
SWIDTH 2000 0
DWIDTH 20 0
BBX 14 18 3 -3
BITMAP
0FC0
3870
6038
6018
C00C
C00C
C00C
C00C
C00C
C00C
C00C
6018
7038
3870
1FC0
39C0
6070
003C
ENDCHAR
STARTCHAR C021522
ENCODING 9042
SWIDTH 2000 0
DWIDTH 20 0
BBX 13 14 4 0
BITMAP
FFE0
C030
C018
C018
C018
C030
FFE0
C060
C070
C030
C030
C030
C038
C018
ENDCHAR
STARTCHAR C021523
ENCODING 9043
SWIDTH 2000 0
DWIDTH 20 0
BBX 12 16 4 -1
BITMAP
1FC0
30E0
6070
6030
6000
7000
3800
0F80
01E0
0070
0030
C030
C030
6030
78E0
1FC0
ENDCHAR
STARTCHAR C021524
ENCODING 9044
SWIDTH 2000 0
DWIDTH 20 0
BBX 12 15 5 0
BITMAP
FFF0
0600
0600
0600
0600
0600
0600
0600
0600
0600
0600
0600
0600
0600
0600
ENDCHAR
STARTCHAR C021525
ENCODING 9045
SWIDTH 2000 0
DWIDTH 20 0
BBX 11 15 5 0
BITMAP
C060
C060
C060
C060
C060
C060
C060
C060
C060
C060
C060
C060
60C0
71C0
1F00
ENDCHAR
STARTCHAR C021526
ENCODING 9046
SWIDTH 2000 0
DWIDTH 20 0
BBX 13 15 4 0
BITMAP
C038
6030
6030
6070
3060
3060
30E0
18C0
18C0
18C0
0D80
0D80
0D80
0700
0700
ENDCHAR
STARTCHAR C021527
ENCODING 9047
SWIDTH 2000 0
DWIDTH 20 0
BBX 17 15 2 -1
BITMAP
C1C180
C1C180
C1C180
61C300
63E300
636300
636300
336700
333600
363600
363600
1E3600
1E1C00
1C1C00
1C1C00
ENDCHAR
STARTCHAR C021530
ENCODING 9048
SWIDTH 2000 0
DWIDTH 20 0
BBX 13 15 4 0
BITMAP
6030
7070
3060
18C0
0DC0
0F80
0700
0700
0F80
0DC0
18C0
3860
3070
6030
C018
ENDCHAR
STARTCHAR C021531
ENCODING 9049
SWIDTH 2000 0
DWIDTH 20 0
BBX 12 15 4 0
BITMAP
C030
E070
6060
30C0
39C0
1980
0F00
0F00
0600
0600
0600
0600
0600
0600
0600
ENDCHAR
STARTCHAR C021532
ENCODING 9050
SWIDTH 2000 0
DWIDTH 20 0
BBX 12 14 4 0
BITMAP
7FF0
0070
00E0
00C0
0180
0380
0700
0E00
0C00
1800
3000
7000
E000
FFF0
ENDCHAR
STARTCHAR C021533
ENCODING 9051
SWIDTH 2000 0
DWIDTH 20 0
BBX 7 18 7 -3
BITMAP
FE
C0
C0
C0
C0
C0
C0
C0
C0
C0
C0
C0
C0
C0
C0
C0
FE
70
ENDCHAR
STARTCHAR C021534
ENCODING 9052
SWIDTH 2000 0
DWIDTH 20 0
BBX 18 15 1 -1
BITMAP
30E180
30E180
30E180
31F180
31B180
FFFFC0
19B300
19B300
19BB00
7FFFC0
1B1B00
0F1E00
0F1E00
0F1E00
060C00
ENDCHAR
STARTCHAR C021535
ENCODING 9053
SWIDTH 2000 0
DWIDTH 20 0
BBX 7 17 6 -2
BITMAP
FE
06
06
06
06
06
06
06
06
06
06
06
06
06
06
06
FE
ENDCHAR
STARTCHAR C021536
ENCODING 9054
SWIDTH 2000 0
DWIDTH 20 0
BBX 7 3 7 12
BITMAP
7C
EE
C6
ENDCHAR
STARTCHAR C021537
ENCODING 9055
SWIDTH 2000 0
DWIDTH 20 0
BBX 18 1 2 -3
BITMAP
FFFFC0
ENDCHAR
STARTCHAR C021540
ENCODING 9056
SWIDTH 2000 0
DWIDTH 20 0
BBX 3 4 9 12
BITMAP
C0
C0
E0
60
ENDCHAR
STARTCHAR C021541
ENCODING 9057
SWIDTH 2000 0
DWIDTH 20 0
BBX 9 10 6 0
BITMAP
7F00
E380
C180
0380
7F80
C180
C180
C180
C780
7F80
ENDCHAR
STARTCHAR C021542
ENCODING 9058
SWIDTH 2000 0
DWIDTH 20 0
BBX 10 13 6 0
BITMAP
C000
C000
C000
FE00
F380
C180
C0C0
C0C0
C0C0
C0C0
E1C0
F380
FF00
ENDCHAR
STARTCHAR C021543
ENCODING 9059
SWIDTH 2000 0
DWIDTH 20 0
BBX 10 10 6 0
BITMAP
3F00
7380
E180
C000
C000
C000
C0C0
61C0
7380
3F00
ENDCHAR
STARTCHAR C021544
ENCODING 9060
SWIDTH 2000 0
DWIDTH 20 0
BBX 9 13 6 0
BITMAP
0180
0180
0180
3F80
6380
E180
C180
C180
C180
C180
E180
6380
3F80
ENDCHAR
STARTCHAR C021545
ENCODING 9061
SWIDTH 2000 0
DWIDTH 20 0
BBX 9 10 6 0
BITMAP
3E00
6300
C180
C180
FF80
C000
C000
C180
6380
3E00
ENDCHAR
STARTCHAR C021546
ENCODING 9062
SWIDTH 2000 0
DWIDTH 20 0
BBX 9 14 6 0
BITMAP
0600
0F80
1800
1800
1800
FF80
1800
1800
1800
1800
1800
1800
1800
1800
ENDCHAR
STARTCHAR C021547
ENCODING 9063
SWIDTH 2000 0
DWIDTH 20 0
BBX 9 13 6 -3
BITMAP
3F80
6780
E380
C180
C180
C180
C180
E180
6380
3F80
0180
E300
7E00
ENDCHAR
STARTCHAR C021550
ENCODING 9064
SWIDTH 2000 0
DWIDTH 20 0
BBX 9 13 6 0
BITMAP
C000
C000
C000
FE00
E300
C180
C180
C180
C180
C180
C180
C180
C180
ENDCHAR
STARTCHAR C021551
ENCODING 9065
SWIDTH 2000 0
DWIDTH 20 0
BBX 2 14 9 0
BITMAP
C0
00
00
C0
C0
C0
C0
C0
C0
C0
C0
C0
C0
C0
ENDCHAR
STARTCHAR C021552
ENCODING 9066
SWIDTH 2000 0
DWIDTH 20 0
BBX 7 17 5 -3
BITMAP
06
00
00
06
06
06
06
06
06
06
06
06
06
06
06
FC
78
ENDCHAR
STARTCHAR C021553
ENCODING 9067
SWIDTH 2000 0
DWIDTH 20 0
BBX 8 13 7 0
BITMAP
C0
C0
C0
CE
DC
F8
F0
F0
F8
DC
CE
C6
C3
ENDCHAR
STARTCHAR C021554
ENCODING 9068
SWIDTH 2000 0
DWIDTH 20 0
BBX 2 13 10 0
BITMAP
C0
C0
C0
C0
C0
C0
C0
C0
C0
C0
C0
C0
C0
ENDCHAR
STARTCHAR C021555
ENCODING 9069
SWIDTH 2000 0
DWIDTH 20 0
BBX 13 11 4 0
BITMAP
FCF0
E7B8
C318
C318
C318
C318
C318
C318
C318
C318
C318
ENDCHAR
STARTCHAR C021556
ENCODING 9070
SWIDTH 2000 0
DWIDTH 20 0
BBX 8 11 6 0
BITMAP
DC
F6
C3
C3
C3
C3
C3
C3
C3
C3
C3
ENDCHAR
STARTCHAR C021557
ENCODING 9071
SWIDTH 2000 0
DWIDTH 20 0
BBX 9 11 6 0
BITMAP
3E00
6300
6300
C180
C180
C180
C180
C180
6300
6300
3E00
ENDCHAR
STARTCHAR C021560
ENCODING 9072
SWIDTH 2000 0
DWIDTH 20 0
BBX 9 14 6 -3
BITMAP
C000
FE00
E300
C300
C180
C180
C180
C180
C180
E300
FE00
C000
C000
C000
ENDCHAR
STARTCHAR C021561
ENCODING 9073
SWIDTH 2000 0
DWIDTH 20 0
BBX 9 13 6 -3
BITMAP
3F80
6380
C180
C180
C180
C180
C180
E180
7780
3F80
0180
0180
0180
ENDCHAR
STARTCHAR C021562
ENCODING 9074
SWIDTH 2000 0
DWIDTH 20 0
BBX 8 11 8 0
BITMAP
FC
FE
C7
C0
C0
C0
C0
C0
C0
C0
C0
ENDCHAR
STARTCHAR C021563
ENCODING 9075
SWIDTH 2000 0
DWIDTH 20 0
BBX 9 11 6 0
BITMAP
3E00
7700
E300
E000
7000
3E00
0300
C180
C180
6380
3E00
ENDCHAR
STARTCHAR C021564
ENCODING 9076
SWIDTH 2000 0
DWIDTH 20 0
BBX 7 13 7 0
BITMAP
60
60
60
FE
60
60
60
60
60
60
66
76
3C
ENDCHAR
STARTCHAR C021565
ENCODING 9077
SWIDTH 2000 0
DWIDTH 20 0
BBX 9 11 6 0
BITMAP
C180
C180
C180
C180
C180
C180
C180
C180
C180
6380
3F80
ENDCHAR
STARTCHAR C021566
ENCODING 9078
SWIDTH 2000 0
DWIDTH 20 0
BBX 9 10 6 0
BITMAP
C180
C180
E300
6300
6300
3600
3600
3C00
1C00
1C00
ENDCHAR
STARTCHAR C021567
ENCODING 9079
SWIDTH 2000 0
DWIDTH 20 0
BBX 15 11 3 0
BITMAP
C006
C386
638C
678C
66CC
36D8
36D8
3CD8
3C78
1C70
1870
ENDCHAR
STARTCHAR C021570
ENCODING 9080
SWIDTH 2000 0
DWIDTH 20 0
BBX 10 11 6 0
BITMAP
C180
6300
3700
3E00
1C00
1C00
3600
7300
6380
C180
00C0
ENDCHAR
STARTCHAR C021571
ENCODING 9081
SWIDTH 2000 0
DWIDTH 20 0
BBX 10 14 5 -3
BITMAP
60C0
60C0
6180
3180
3380
1B00
1B00
1F00
0E00
0E00
0C00
0C00
F800
7000
ENDCHAR
STARTCHAR C021572
ENCODING 9082
SWIDTH 2000 0
DWIDTH 20 0
BBX 9 11 6 0
BITMAP
FF80
0300
0700
0E00
0C00
1800
3800
7000
6000
C000
FF80
ENDCHAR
STARTCHAR C021573
ENCODING 9083
SWIDTH 2000 0
DWIDTH 20 0
BBX 6 17 8 -2
BITMAP
1C
30
30
30
30
30
30
30
E0
30
30
30
30
30
30
30
1C
ENDCHAR
STARTCHAR C021574
ENCODING 9084
SWIDTH 2000 0
DWIDTH 20 0
BBX 2 17 9 -2
BITMAP
C0
C0
C0
C0
C0
C0
C0
C0
C0
C0
C0
C0
C0
C0
C0
C0
C0
ENDCHAR
STARTCHAR C021575
ENCODING 9085
SWIDTH 2000 0
DWIDTH 20 0
BBX 6 17 7 -2
BITMAP
E0
30
30
30
30
30
30
30
1C
30
30
30
30
30
30
30
E0
ENDCHAR
STARTCHAR C021576
ENCODING 9086
SWIDTH 2000 0
DWIDTH 20 0
BBX 12 1 5 6
BITMAP
FFF0
ENDCHAR
STARTCHAR C021577
ENCODING 9087
SWIDTH 2000 0
DWIDTH 20 0
BBX 0 0 0 0
BITMAP
ENDCHAR
STARTCHAR C022041
ENCODING 9249
SWIDTH 2000 0
DWIDTH 20 0
BBX 12 10 4 0
BITMAP
FFF0
0030
0030
0030
0030
0030
0030
0030
0030
0030
ENDCHAR
STARTCHAR C022042
ENCODING 9250
SWIDTH 2000 0
DWIDTH 20 0
BBX 14 10 3 0
BITMAP
FFFC
060C
060C
060C
060C
060C
060C
060C
060C
060C
ENDCHAR
STARTCHAR C022043
ENCODING 9251
SWIDTH 2000 0
DWIDTH 20 0
BBX 15 10 3 0
BITMAP
FE60
0660
0660
0660
0660
06F0
06F0
06D8
079C
070E
ENDCHAR
STARTCHAR C022044
ENCODING 9252
SWIDTH 2000 0
DWIDTH 20 0
BBX 13 10 5 0
BITMAP
C000
C000
C000
C000
C000
C000
C000
C000
C000
FFF8
ENDCHAR
STARTCHAR C022045
ENCODING 9253
SWIDTH 2000 0
DWIDTH 20 0
BBX 16 10 3 0
BITMAP
C1FE
C030
C030
C030
C030
C078
C078
C0CC
DDCE
FB07
ENDCHAR
STARTCHAR C022046
ENCODING 9254
SWIDTH 2000 0
DWIDTH 20 0
BBX 15 11 3 -1
BITMAP
C0F8
C000
C3FE
C000
C000
C0FC
C1CE
C186
DD86
F9CE
00FC
ENDCHAR
STARTCHAR C022047
ENCODING 9255
SWIDTH 2000 0
DWIDTH 20 0
BBX 12 10 5 0
BITMAP
FFF0
C000
C000
C000
C000
C000
C000
C000
C000
FFF0
ENDCHAR
STARTCHAR C022050
ENCODING 9256
SWIDTH 2000 0
DWIDTH 20 0
BBX 15 10 3 0
BITMAP
FEFE
C0C0
C0C0
C0C0
C0C0
C0C0
C0C0
C0C0
DEC0
F8FE
ENDCHAR
STARTCHAR C022051
ENCODING 9257
SWIDTH 2000 0
DWIDTH 20 0
BBX 13 10 4 0
BITMAP
FFF0
0030
0030
0030
7FF0
6000
6000
6000
6000
7FF8
ENDCHAR
STARTCHAR C022052
ENCODING 9258
SWIDTH 2000 0
DWIDTH 20 0
BBX 14 10 3 0
BITMAP
FFFC
060C
060C
060C
FE0C
C00C
C00C
C00C
C70C
FC0C
ENDCHAR
STARTCHAR C022053
ENCODING 9259
SWIDTH 2000 0
DWIDTH 20 0
BBX 14 10 3 0
BITMAP
FEFC
06CC
06CC
06CC
FECC
C0CC
C0CC
C0CC
C7CC
FCFC
ENDCHAR
STARTCHAR C022054
ENCODING 9260
SWIDTH 2000 0
DWIDTH 20 0
BBX 14 10 3 0
BITMAP
FECC
06CC
06CC
06CC
FEFC
C0CC
C0CC
C0CC
C6CC
FCFC
ENDCHAR
STARTCHAR C022055
ENCODING 9261
SWIDTH 2000 0
DWIDTH 20 0
BBX 16 10 3 0
BITMAP
FC30
0C30
0C30
0C30
FC30
C078
C078
C06C
C6CE
FD87
ENDCHAR
STARTCHAR C022056
ENCODING 9262
SWIDTH 2000 0
DWIDTH 20 0
BBX 15 10 3 0
BITMAP
FEFE
06C0
06C0
06C0
FEFE
C0C0
C0C0
C0C0
C6C0
FCFE
ENDCHAR
STARTCHAR C022057
ENCODING 9263
SWIDTH 2000 0
DWIDTH 20 0
BBX 16 10 3 0
BITMAP
FDFE
0C00
0C0C
0CCC
FCCC
C0CC
C0CC
C0D8
CEF8
FBFF
ENDCHAR
STARTCHAR C022060
ENCODING 9264
SWIDTH 2000 0
DWIDTH 20 0
BBX 15 11 3 -1
BITMAP
FCF8
0C00
0FFE
0C00
FC00
C0FC
C1CE
C186
C786
FDCE
00FC
ENDCHAR
STARTCHAR C022061
ENCODING 9265
SWIDTH 2000 0
DWIDTH 20 0
BBX 11 10 5 0
BITMAP
FFE0
C060
C060
C060
C060
C060
C060
C060
C060
FFE0
ENDCHAR
STARTCHAR C022062
ENCODING 9266
SWIDTH 2000 0
DWIDTH 20 0
BBX 11 10 5 0
BITMAP
C060
C060
C060
C060
FFE0
C060
C060
C060
C060
FFE0
ENDCHAR
STARTCHAR C022063
ENCODING 9267
SWIDTH 2000 0
DWIDTH 20 0
BBX 14 10 3 0
BITMAP
C6CC
C6CC
C6CC
C6CC
FEFC
C6CC
C6CC
C6CC
C6CC
FEFC
ENDCHAR
STARTCHAR C022064
ENCODING 9268
SWIDTH 2000 0
DWIDTH 20 0
BBX 16 10 3 0
BITMAP
C630
C630
C630
C630
FE30
C678
C678
C66C
C6CE
FF87
ENDCHAR
STARTCHAR C022065
ENCODING 9269
SWIDTH 2000 0
DWIDTH 20 0
BBX 14 10 3 0
BITMAP
0300
0300
0300
0300
0780
0780
0CC0
1CE0
3838
E01C
ENDCHAR
STARTCHAR C022066
ENCODING 9270
SWIDTH 2000 0
DWIDTH 20 0
BBX 16 11 2 -1
BITMAP
0C18
0C18
0C18
0C18
0C18
1E1C
1E3C
3F3C
7366
60E3
C0C0
ENDCHAR
STARTCHAR C022067
ENCODING 9271
SWIDTH 2000 0
DWIDTH 20 0
BBX 13 10 4 0
BITMAP
1FC0
7070
6030
C018
C018
C018
C018
6030
7070
1FC0
ENDCHAR
STARTCHAR C022070
ENCODING 9272
SWIDTH 2000 0
DWIDTH 20 0
BBX 13 10 4 0
BITMAP
FFF8
0600
0700
0700
0F00
0D80
19C0
38E0
7070
C038
ENDCHAR
STARTCHAR C022071
ENCODING 9273
SWIDTH 2000 0
DWIDTH 20 0
BBX 15 10 3 0
BITMAP
FFFE
1830
1830
1830
3C38
3C78
3678
67CC
E1C6
C186
ENDCHAR
STARTCHAR C022072
ENCODING 9274
SWIDTH 2000 0
DWIDTH 20 0
BBX 14 10 3 0
BITMAP
1FE0
0000
0000
7FFC
0300
0380
0780
0EC0
1C70
F03C
ENDCHAR
STARTCHAR C022073
ENCODING 9275
SWIDTH 2000 0
DWIDTH 20 0
BBX 13 10 3 0
BITMAP
FFF8
0018
0018
0018
0018
FFF8
0018
0018
0030
0030
ENDCHAR
STARTCHAR C022074
ENCODING 9276
SWIDTH 2000 0
DWIDTH 20 0
BBX 12 10 5 0
BITMAP
FFF0
C000
C000
C000
FFF0
C000
C000
C000
C000
FFF0
ENDCHAR
STARTCHAR C022075
ENCODING 9277
SWIDTH 2000 0
DWIDTH 20 0
BBX 14 10 3 0
BITMAP
7FFC
0000
0000
1860
1860
1860
0C60
0C60
0C60
FFFC
ENDCHAR
STARTCHAR C022076
ENCODING 9278
SWIDTH 2000 0
DWIDTH 20 0
BBX 14 12 3 -1
BITMAP
1FE0
0000
0000
FFFC
0000
0FC0
1860
3030
3030
3030
1860
0FC0
ENDCHAR
STARTCHAR C022077
ENCODING 9279
SWIDTH 2000 0
DWIDTH 20 0
BBX 7 18 8 -4
BITMAP
C0
C0
C0
C0
C0
C0
C0
C0
FE
C0
C0
C0
C0
C0
C0
C0
C0
C0
ENDCHAR
STARTCHAR C022100
ENCODING 9280
SWIDTH 2000 0
DWIDTH 20 0
BBX 6 18 7 -4
BITMAP
0C
CC
CC
CC
CC
CC
CC
CC
FC
CC
CC
CC
CC
CC
CC
CC
0C
0C
ENDCHAR
STARTCHAR C022101
ENCODING 9281
SWIDTH 2000 0
DWIDTH 20 0
BBX 6 18 8 -4
BITMAP
C0
C0
C0
C0
C0
C0
FC
C0
C0
C0
C0
FC
C0
C0
C0
C0
C0
C0
ENDCHAR
STARTCHAR C022102
ENCODING 9282
SWIDTH 2000 0
DWIDTH 20 0
BBX 7 17 7 -3
BITMAP
06
C6
C6
C6
C6
C6
FE
C6
C6
C6
FE
C6
C6
C6
C6
C6
C6
ENDCHAR
STARTCHAR C022103
ENCODING 9283
SWIDTH 2000 0
DWIDTH 20 0
BBX 7 18 6 -4
BITMAP
06
06
06
06
06
06
06
06
FE
06
06
06
06
06
06
06
06
06
ENDCHAR
STARTCHAR C022104
ENCODING 9284
SWIDTH 2000 0
DWIDTH 20 0
BBX 10 18 4 -4
BITMAP
00C0
00C0
06C0
06C0
06C0
06C0
06C0
06C0
FEC0
06C0
06C0
06C0
06C0
06C0
06C0
06C0
06C0
00C0
ENDCHAR
STARTCHAR C022105
ENCODING 9285
SWIDTH 2000 0
DWIDTH 20 0
BBX 8 18 5 -4
BITMAP
03
03
03
03
03
03
FF
03
03
03
03
FF
03
03
03
03
03
03
ENDCHAR
STARTCHAR C022106
ENCODING 9286
SWIDTH 2000 0
DWIDTH 20 0
BBX 9 18 5 -4
BITMAP
0180
0D80
0D80
0D80
0D80
0D80
FD80
0D80
0D80
0D80
0D80
FD80
0D80
0D80
0D80
0D80
0180
0180
ENDCHAR
STARTCHAR C022107
ENCODING 9287
SWIDTH 2000 0
DWIDTH 20 0
BBX 16 9 2 1
BITMAP
0180
0180
0180
0180
0180
0180
0180
0180
FFFF
ENDCHAR
STARTCHAR C022110
ENCODING 9288
SWIDTH 2000 0
DWIDTH 20 0
BBX 17 18 2 -4
BITMAP
001800
001800
001800
001800
061800
061800
061800
061800
061F80
061800
061800
FFF800
FC1800
001800
001800
001800
001800
001800
ENDCHAR
STARTCHAR C022111
ENCODING 9289
SWIDTH 2000 0
DWIDTH 20 0
BBX 15 18 2 -4
BITMAP
0006
0066
0066
0066
0C66
0C66
0C66
0C66
0C66
0C7E
0C66
1FE6
F066
0066
0066
0066
0006
0006
ENDCHAR
STARTCHAR C022112
ENCODING 9290
SWIDTH 2000 0
DWIDTH 20 0
BBX 13 18 3 -4
BITMAP
0018
0018
0018
0018
0618
0618
0618
0618
0618
0618
0618
07F8
FF18
0018
0018
0018
0018
0018
ENDCHAR
STARTCHAR C022113
ENCODING 9291
SWIDTH 2000 0
DWIDTH 20 0
BBX 16 9 2 1
BITMAP
0630
0630
0630
0630
0630
0630
0630
0630
FFFF
ENDCHAR
STARTCHAR C022114
ENCODING 9292
SWIDTH 2000 0
DWIDTH 20 0
BBX 16 13 2 -2
BITMAP
FFFF
0180
0180
0180
0180
0180
0180
0180
0180
0180
0180
0180
0180
ENDCHAR
STARTCHAR C022115
ENCODING 9293
SWIDTH 2000 0
DWIDTH 20 0
BBX 13 18 3 -4
BITMAP
0018
0018
0018
0018
0018
FFF8
0618
0618
0618
07F8
0618
0618
0618
0618
0618
0018
0018
0018
ENDCHAR
STARTCHAR C022116
ENCODING 9294
SWIDTH 2000 0
DWIDTH 20 0
BBX 15 18 2 -4
BITMAP
0036
0036
0036
0036
0036
0036
FFF6
0C36
0C36
0DF6
0C36
0C36
0C36
0C36
0C36
0036
0006
0006
ENDCHAR
STARTCHAR C022117
ENCODING 9295
SWIDTH 2000 0
DWIDTH 20 0
BBX 14 18 2 -4
BITMAP
000C
000C
000C
000C
000C
01FC
FFFC
030C
030C
030C
030C
030C
030C
030C
030C
000C
000C
000C
ENDCHAR
STARTCHAR C022120
ENCODING 9296
SWIDTH 2000 0
DWIDTH 20 0
BBX 17 13 2 -2
BITMAP
FFFF80
063000
063000
063000
063000
063000
063000
063000
063000
063000
063000
063000
063000
ENDCHAR
STARTCHAR C022121
ENCODING 9297
SWIDTH 2000 0
DWIDTH 20 0
BBX 16 1 2 5
BITMAP
FFFF
ENDCHAR
STARTCHAR C022122
ENCODING 9298
SWIDTH 2000 0
DWIDTH 20 0
BBX 13 18 3 -4
BITMAP
0018
0018
0018
0018
0018
0018
0018
0018
0018
0038
1FF8
F818
0018
0018
0018
0018
0018
0018
ENDCHAR
STARTCHAR C022123
ENCODING 9299
SWIDTH 2000 0
DWIDTH 20 0
BBX 2 18 9 -4
BITMAP
C0
C0
C0
C0
C0
C0
C0
C0
C0
C0
C0
C0
C0
C0
C0
C0
C0
C0
ENDCHAR
STARTCHAR C022124
ENCODING 9300
SWIDTH 2000 0
DWIDTH 20 0
BBX 1 10 20 0
BITMAP
80
80
80
80
80
80
80
80
80
80
ENDCHAR
STARTCHAR C022125
ENCODING 9301
SWIDTH 2000 0
DWIDTH 20 0
BBX 15 10 3 0
BITMAP
C180
C180
C180
C180
C180
C180
C180
C180
DF80
F9FE
ENDCHAR
STARTCHAR C022126
ENCODING 9302
SWIDTH 2000 0
DWIDTH 20 0
BBX 15 10 3 0
BITMAP
C1FC
C180
C180
C180
C180
C180
C180
C780
FF80
E1FE
ENDCHAR
STARTCHAR C022127
ENCODING 9303
SWIDTH 2000 0
DWIDTH 20 0
BBX 15 10 3 0
BITMAP
C030
C030
C030
C030
C030
C078
C078
C06C
CCC6
FD80
ENDCHAR
STARTCHAR C022130
ENCODING 9304
SWIDTH 2000 0
DWIDTH 20 0
BBX 15 10 3 0
BITMAP
C000
C070
C070
C070
C0D8
C0D8
C1CC
C18C
FD8C
E3FE
ENDCHAR
STARTCHAR C022131
ENCODING 9305
SWIDTH 2000 0
DWIDTH 20 0
BBX 15 10 3 0
BITMAP
FF98
1998
1998
1998
F998
C1BC
C1BC
C1BC
FDE6
C1E0
ENDCHAR
STARTCHAR C022132
ENCODING 9306
SWIDTH 2000 0
DWIDTH 20 0
BBX 15 10 3 0
BITMAP
FEFE
06C0
06C0
06C0
FEC0
C0C0
C0C0
C0C0
C7C0
FCFE
ENDCHAR
STARTCHAR C022133
ENCODING 9307
SWIDTH 2000 0
DWIDTH 20 0
BBX 15 10 3 0
BITMAP
F8D8
1ED8
1ED8
1ED8
FFD8
C6FC
C6FC
C6FC
FEF6
07E6
ENDCHAR
STARTCHAR C022134
ENCODING 9308
SWIDTH 2000 0
DWIDTH 20 0
BBX 15 10 3 0
BITMAP
FE30
0630
0670
0678
FE78
C0CC
C0CC
C0CC
C186
FFFE
ENDCHAR
STARTCHAR C022135
ENCODING 9309
SWIDTH 2000 0
DWIDTH 20 0
BBX 15 10 3 0
BITMAP
FFFE
0600
0600
06FC
FFCE
C186
C186
C186
CFCE
FCFC
ENDCHAR
STARTCHAR C022136
ENCODING 9310
SWIDTH 2000 0
DWIDTH 20 0
BBX 14 10 3 0
BITMAP
FECC
C6CC
C6CC
C6CC
C6FC
C6CC
C6CC
C6CC
C6CC
FEFC
ENDCHAR
STARTCHAR C022137
ENCODING 9311
SWIDTH 2000 0
DWIDTH 20 0
BBX 16 10 3 0
BITMAP
FE30
C630
C630
C630
C630
C678
C678
C6EC
C6C6
FF83
ENDCHAR
STARTCHAR C022140
ENCODING 9312
SWIDTH 2000 0
DWIDTH 20 0
BBX 15 10 3 0
BITMAP
FE30
C630
C678
C678
C678
C6CC
C6CC
C6CE
C786
FFFE
ENDCHAR
STARTCHAR C022141
ENCODING 9313
SWIDTH 2000 0
DWIDTH 20 0
BBX 9 14 6 -3
BITMAP
FF80
C180
C180
C180
C180
FF80
0000
0000
7F00
E380
C180
C180
E380
7F00
ENDCHAR
STARTCHAR C022142
ENCODING 9314
SWIDTH 2000 0
DWIDTH 20 0
BBX 14 10 3 0
BITMAP
C7FC
C60C
C60C
C60C
FE0C
C60C
C60C
C60C
C60C
FE0C
ENDCHAR
STARTCHAR C022143
ENCODING 9315
SWIDTH 2000 0
DWIDTH 20 0
BBX 15 10 3 0
BITMAP
C6FE
C6C0
C6C0
C6C0
FEC0
C6C0
C6C0
C6C0
C6C0
FEFE
ENDCHAR
STARTCHAR C022144
ENCODING 9316
SWIDTH 2000 0
DWIDTH 20 0
BBX 14 10 3 0
BITMAP
D9FC
D98C
D98C
D98C
F98C
DBCC
DBCC
DBCC
DB6C
FE60
ENDCHAR
STARTCHAR C022145
ENCODING 9317
SWIDTH 2000 0
DWIDTH 20 0
BBX 15 10 3 0
BITMAP
DB3E
DB30
DB30
DB30
FB30
DFB0
DFB0
DEF0
DCF0
FC3E
ENDCHAR
STARTCHAR C022146
ENCODING 9318
SWIDTH 2000 0
DWIDTH 20 0
BBX 15 10 3 0
BITMAP
C7FE
C630
C630
C630
FE78
C678
C6FC
C6CC
C786
FE00
ENDCHAR
STARTCHAR C022147
ENCODING 9319
SWIDTH 2000 0
DWIDTH 20 0
BBX 15 10 3 0
BITMAP
C6FE
C6C0
C6C0
C6C0
FEFE
C6C0
C6C0
C6C0
C6C0
FEFE
ENDCHAR
STARTCHAR C022150
ENCODING 9320
SWIDTH 2000 0
DWIDTH 20 0
BBX 9 15 6 -3
BITMAP
C180
C180
C180
FF80
C180
C180
FF80
0000
0000
7F00
E380
C180
C180
E380
7F00
ENDCHAR
STARTCHAR C022151
ENCODING 9321
SWIDTH 2000 0
DWIDTH 20 0
BBX 12 16 4 -3
BITMAP
CDB0
CDB0
CDB0
FDF0
CDB0
CDB0
CDB0
FDF0
0000
0000
1FC0
38E0
3060
3060
38E0
1FC0
ENDCHAR
STARTCHAR C022152
ENCODING 9322
SWIDTH 2000 0
DWIDTH 20 0
BBX 14 10 3 0
BITMAP
19FC
180C
180C
180C
180C
3C0C
3C0C
660C
E30C
C00C
ENDCHAR
STARTCHAR C022153
ENCODING 9323
SWIDTH 2000 0
DWIDTH 20 0
BBX 17 10 2 0
BITMAP
186000
186000
186000
186000
186000
3C6000
3C6000
366000
636000
C3FF80
ENDCHAR
STARTCHAR C022154
ENCODING 9324
SWIDTH 2000 0
DWIDTH 20 0
BBX 16 10 3 0
BITMAP
18FE
18C0
18C0
18C0
18C0
3CC0
3CC0
66C0
E3C0
C0FF
ENDCHAR
STARTCHAR C022155
ENCODING 9325
SWIDTH 2000 0
DWIDTH 20 0
BBX 15 10 2 0
BITMAP
1806
1866
1866
1866
187E
3C66
3C66
3666
6366
C3FE
ENDCHAR
STARTCHAR C022156
ENCODING 9326
SWIDTH 2000 0
DWIDTH 20 0
BBX 15 10 3 0
BITMAP
19FE
1830
1830
1830
1878
3C78
3CFC
66CC
E186
C000
ENDCHAR
STARTCHAR C022157
ENCODING 9327
SWIDTH 2000 0
DWIDTH 20 0
BBX 11 10 5 0
BITMAP
0C00
0E00
1E00
1B00
3300
3180
6180
60C0
C0E0
FFE0
ENDCHAR
STARTCHAR C022160
ENCODING 9328
SWIDTH 2000 0
DWIDTH 20 0
BBX 14 10 3 0
BITMAP
7C78
6CF8
C6CC
C6CC
C6CC
C6CC
C6CC
C6CC
6CF8
7C78
ENDCHAR
STARTCHAR C022161
ENCODING 9329
SWIDTH 2000 0
DWIDTH 20 0
BBX 12 13 4 -1
BITMAP
0600
0600
0600
3FC0
79E0
E070
C030
C030
C030
C030
6060
30E0
1F80
ENDCHAR
STARTCHAR C022162
ENCODING 9330
SWIDTH 2000 0
DWIDTH 20 0
BBX 16 11 3 0
BITMAP
1800
1830
3830
7C30
EE30
C630
C678
C678
C66C
6CC6
7987
ENDCHAR
STARTCHAR C022163
ENCODING 9331
SWIDTH 2000 0
DWIDTH 20 0
BBX 15 11 3 0
BITMAP
1800
1800
3830
7C70
EE78
C6F8
C6D8
C6CC
C78C
6D86
79FE
ENDCHAR
STARTCHAR C022164
ENCODING 9332
SWIDTH 2000 0
DWIDTH 20 0
BBX 13 14 4 -2
BITMAP
FFF0
0000
18C0
18C0
18C0
18C0
FFF8
0000
1FC0
38E0
3060
3060
38E0
1FC0
ENDCHAR
STARTCHAR C022165
ENCODING 9333
SWIDTH 2000 0
DWIDTH 20 0
BBX 17 12 2 -1
BITMAP
7E7F00
000000
000000
FFFF80
000000
000000
3E3E00
676700
636300
636300
676700
3E3E00
ENDCHAR
STARTCHAR C022166
ENCODING 9334
SWIDTH 2000 0
DWIDTH 20 0
BBX 15 12 3 -1
BITMAP
FFFE
0000
0000
0000
0000
07C0
1C70
1830
1830
1830
1C70
07C0
ENDCHAR
STARTCHAR C022167
ENCODING 9335
SWIDTH 2000 0
DWIDTH 20 0
BBX 15 18 3 -4
BITMAP
0030
0030
0030
1830
1B30
1B30
1B3E
1B30
1B30
1B30
1B30
FFFE
F830
0030
0030
0030
0030
0030
ENDCHAR
STARTCHAR C022170
ENCODING 9336
SWIDTH 2000 0
DWIDTH 20 0
BBX 14 18 3 -4
BITMAP
000C
00CC
00CC
00CC
00CC
36CC
36FC
36CC
36CC
36CC
37FC
FFCC
E0CC
00CC
00CC
00CC
00CC
000C
ENDCHAR
STARTCHAR C022171
ENCODING 9337
SWIDTH 2000 0
DWIDTH 20 0
BBX 13 18 3 -4
BITMAP
0018
0018
0018
0018
1B18
1B18
1B18
1B18
1B18
1B18
1B18
FFF8
F018
0018
0018
0018
0018
0018
ENDCHAR
STARTCHAR C022172
ENCODING 9338
SWIDTH 2000 0
DWIDTH 20 0
BBX 13 18 3 -4
BITMAP
0018
0018
0018
0018
01F8
FFF8
1B18
1B18
1BF8
1B18
1B18
1BF8
1B18
1B18
1B18
1B18
0018
0018
ENDCHAR
STARTCHAR C022173
ENCODING 9339
SWIDTH 2000 0
DWIDTH 20 0
BBX 14 18 3 -4
BITMAP
000C
006C
006C
006C
006C
07EC
FE6C
366C
37EC
366C
366C
37EC
366C
366C
366C
366C
000C
000C
ENDCHAR
STARTCHAR C022174
ENCODING 9340
SWIDTH 2000 0
DWIDTH 20 0
BBX 13 18 3 -4
BITMAP
0018
0018
0018
0018
0018
0018
03F8
FFF8
1998
1998
1998
1998
1998
1998
1998
1998
0198
0018
ENDCHAR
STARTCHAR C022175
ENCODING 9341
SWIDTH 2000 0
DWIDTH 20 0
BBX 4 3 8 4
BITMAP
F0
F0
F0
ENDCHAR
STARTCHAR C022176
ENCODING 9342
SWIDTH 2000 0
DWIDTH 20 0
BBX 10 18 5 -4
BITMAP
00C0
00C0
00C0
00C0
00C0
00C0
00C0
F0C0
F0C0
F0C0
00C0
00C0
00C0
00C0
00C0
00C0
00C0
00C0
ENDCHAR
STARTCHAR C022177
ENCODING 9343
SWIDTH 2000 0
DWIDTH 20 0
BBX 0 0 0 0
BITMAP
ENDCHAR
STARTCHAR C022441
ENCODING 9505
SWIDTH 2000 0
DWIDTH 20 0
BBX 2 15 9 0
BITMAP
C0
00
00
00
00
C0
C0
C0
C0
C0
C0
C0
C0
C0
C0
ENDCHAR
STARTCHAR C022442
ENCODING 9506
SWIDTH 2000 0
DWIDTH 20 0
BBX 7 15 7 0
BITMAP
C6
00
00
00
00
C6
C6
C6
C6
C6
C6
C6
C6
C6
C6
ENDCHAR
STARTCHAR C022443
ENCODING 9507
SWIDTH 2000 0
DWIDTH 20 0
BBX 10 15 5 0
BITMAP
CCC0
0000
0000
0000
0000
CCC0
CCC0
CCC0
CCC0
CCC0
CCC0
CCC0
CCC0
CCC0
CCC0
ENDCHAR
STARTCHAR C022444
ENCODING 9508
SWIDTH 2000 0
DWIDTH 20 0
BBX 11 15 5 0
BITMAP
C000
0000
0000
0000
0000
D860
CCC0
CCC0
CCC0
C780
C780
C780
C380
C300
C300
ENDCHAR
STARTCHAR C022445
ENCODING 9509
SWIDTH 2000 0
DWIDTH 20 0
BBX 8 10 6 0
BITMAP
C3
63
66
66
36
3C
3C
1C
18
18
ENDCHAR
STARTCHAR C022446
ENCODING 9510
SWIDTH 2000 0
DWIDTH 20 0
BBX 12 15 4 0
BITMAP
0030
0000
0000
0000
0000
C330
C330
6630
6630
3630
3C30
3C30
1C30
1830
1830
ENDCHAR
STARTCHAR C022447
ENCODING 9511
SWIDTH 2000 0
DWIDTH 20 0
BBX 13 15 4 0
BITMAP
01B0
0000
0000
0000
0000
CD98
CD98
CD98
D998
7998
7998
7198
7198
3198
3198
ENDCHAR
STARTCHAR C022450
ENCODING 9512
SWIDTH 2000 0
DWIDTH 20 0
BBX 14 15 3 0
BITMAP
01EC
0000
0000
0000
0000
CDEC
CDEC
CDEC
D9EC
79EC
79EC
79EC
31EC
31EC
31EC
ENDCHAR
STARTCHAR C022451
ENCODING 9513
SWIDTH 2000 0
DWIDTH 20 0
BBX 11 15 5 0
BITMAP
C000
0000
0000
0000
0000
CC60
CCC0
C6C0
C780
C380
C380
C380
C6C0
C6C0
CC60
ENDCHAR
STARTCHAR C022452
ENCODING 9514
SWIDTH 2000 0
DWIDTH 20 0
BBX 7 10 7 0
BITMAP
06
CC
6C
78
30
30
78
6C
CC
C6
ENDCHAR
STARTCHAR C022453
ENCODING 9515
SWIDTH 2000 0
DWIDTH 20 0
BBX 0 0 0 0
BITMAP
ENDCHAR
STARTCHAR C022454
ENCODING 9516
SWIDTH 2000 0
DWIDTH 20 0
BBX 0 0 0 0
BITMAP
ENDCHAR
STARTCHAR C022455
ENCODING 9517
SWIDTH 2000 0
DWIDTH 20 0
BBX 0 0 0 0
BITMAP
ENDCHAR
STARTCHAR C022456
ENCODING 9518
SWIDTH 2000 0
DWIDTH 20 0
BBX 0 0 0 0
BITMAP
ENDCHAR
STARTCHAR C022457
ENCODING 9519
SWIDTH 2000 0
DWIDTH 20 0
BBX 1 19 20 -3
BITMAP
80
80
80
80
00
00
00
00
00
00
80
00
80
00
00
00
00
00
80
ENDCHAR
STARTCHAR C022460
ENCODING 9520
SWIDTH 2000 0
DWIDTH 20 0
BBX 2 14 9 0
BITMAP
C0
C0
C0
C0
C0
C0
C0
C0
C0
C0
C0
C0
C0
C0
ENDCHAR
STARTCHAR C022461
ENCODING 9521
SWIDTH 2000 0
DWIDTH 20 0
BBX 8 14 6 0
BITMAP
C3
C3
C3
C3
C3
C3
C3
C3
C3
C3
C3
C3
C3
C3
ENDCHAR
STARTCHAR C022462
ENCODING 9522
SWIDTH 2000 0
DWIDTH 20 0
BBX 11 14 5 0
BITMAP
CC60
CC60
CC60
CC60
CC60
CC60
CC60
CC60
CC60
CC60
CC60
CC60
CC60
CC60
ENDCHAR
STARTCHAR C022463
ENCODING 9523
SWIDTH 2000 0
DWIDTH 20 0
BBX 11 14 5 0
BITMAP
D860
D860
D860
CCC0
CCC0
CCC0
CCC0
C780
C780
C780
C780
C300
C300
C300
ENDCHAR
STARTCHAR C022464
ENCODING 9524
SWIDTH 2000 0
DWIDTH 20 0
BBX 9 14 6 0
BITMAP
C180
C300
C300
6300
6700
6600
7600
3600
3C00
3C00
1C00
1C00
1800
1800
ENDCHAR
STARTCHAR C022465
ENCODING 9525
SWIDTH 2000 0
DWIDTH 20 0
BBX 12 14 4 0
BITMAP
C330
C330
6330
6330
6630
7630
3630
3630
3C30
1C30
1C30
1C30
1830
0030
ENDCHAR
STARTCHAR C022466
ENCODING 9526
SWIDTH 2000 0
DWIDTH 20 0
BBX 14 14 3 0
BITMAP
C36C
C36C
C66C
C66C
666C
666C
6C6C
6C6C
3C6C
3C6C
386C
186C
186C
186C
ENDCHAR
STARTCHAR C022467
ENCODING 9527
SWIDTH 2000 0
DWIDTH 20 0
BBX 16 14 2 0
BITMAP
C3DB
66DB
66DB
66DB
66DB
36DB
3CDB
3CDB
3CDB
3CDB
18DB
18DB
18DB
18DB
ENDCHAR
STARTCHAR C022470
ENCODING 9528
SWIDTH 2000 0
DWIDTH 20 0
BBX 11 14 5 0
BITMAP
D860
CCC0
CCC0
CD80
C780
C780
C300
C300
C700
C780
CD80
CCC0
CCC0
D860
ENDCHAR
STARTCHAR C022471
ENCODING 9529
SWIDTH 2000 0
DWIDTH 20 0
BBX 8 14 6 0
BITMAP
C3
63
66
36
3C
1C
18
1C
1C
3C
36
66
63
C3
ENDCHAR
STARTCHAR C022472
ENCODING 9530
SWIDTH 2000 0
DWIDTH 20 0
BBX 0 0 0 0
BITMAP
ENDCHAR
STARTCHAR C022473
ENCODING 9531
SWIDTH 2000 0
DWIDTH 20 0
BBX 0 0 0 0
BITMAP
ENDCHAR
STARTCHAR C022474
ENCODING 9532
SWIDTH 2000 0
DWIDTH 20 0
BBX 0 0 0 0
BITMAP
ENDCHAR
STARTCHAR C022475
ENCODING 9533
SWIDTH 2000 0
DWIDTH 20 0
BBX 0 0 0 0
BITMAP
ENDCHAR
STARTCHAR C022476
ENCODING 9534
SWIDTH 2000 0
DWIDTH 20 0
BBX 1 19 20 -3
BITMAP
80
80
80
80
00
00
00
00
00
00
80
00
80
00
00
00
00
00
80
ENDCHAR
STARTCHAR C022477
ENCODING 9535
SWIDTH 2000 0
DWIDTH 20 0
BBX 0 0 0 0
BITMAP
ENDCHAR
STARTCHAR C022500
ENCODING 9536
SWIDTH 2000 0
DWIDTH 20 0
BBX 0 0 0 0
BITMAP
ENDCHAR
STARTCHAR C022501
ENCODING 9537
SWIDTH 2000 0
DWIDTH 20 0
BBX 11 14 5 0
BITMAP
00C0
00C0
01C0
07C0
07C0
0CC0
0CE0
18E0
30E0
30E0
3FE0
6060
6060
C060
ENDCHAR
STARTCHAR C022502
ENCODING 9538
SWIDTH 2000 0
DWIDTH 20 0
BBX 11 14 5 0
BITMAP
1FC0
18E0
1860
3060
3060
30C0
3F80
6180
60C0
60C0
60C0
C0C0
C380
FF00
ENDCHAR
STARTCHAR C022503
ENCODING 9539
SWIDTH 2000 0
DWIDTH 20 0
BBX 11 13 5 1
BITMAP
1FE0
1800
1800
3000
3000
3000
6000
6000
6000
6000
C000
C000
C000
ENDCHAR
STARTCHAR C022504
ENCODING 9540
SWIDTH 2000 0
DWIDTH 20 0
BBX 12 14 4 0
BITMAP
00E0
00E0
03E0
03E0
06E0
0CE0
0CF0
1870
3070
3070
6070
C070
C070
FFF0
ENDCHAR
STARTCHAR C022505
ENCODING 9541
SWIDTH 2000 0
DWIDTH 20 0
BBX 12 14 4 0
BITMAP
0FF0
0C00
1800
1800
1800
3000
3FE0
3000
3000
6000
6000
6000
E000
FF80
ENDCHAR
STARTCHAR C022506
ENCODING 9542
SWIDTH 2000 0
DWIDTH 20 0
BBX 13 14 4 0
BITMAP
3FF8
0030
0060
00C0
0180
0380
0700
0600
0C00
1800
3800
7000
E000
FFE0
ENDCHAR
STARTCHAR C022507
ENCODING 9543
SWIDTH 2000 0
DWIDTH 20 0
BBX 14 13 3 0
BITMAP
0C0C
0C0C
180C
1818
1818
3018
3FF0
3030
3030
6030
6060
6060
C060
ENDCHAR
STARTCHAR C022510
ENCODING 9544
SWIDTH 2000 0
DWIDTH 20 0
BBX 12 14 4 0
BITMAP
0FC0
1C60
3030
7030
6030
6030
7FF0
C030
C030
C060
C060
60C0
61C0
3F00
ENDCHAR
STARTCHAR C022511
ENCODING 9545
SWIDTH 2000 0
DWIDTH 20 0
BBX 5 14 8 0
BITMAP
18
30
30
30
30
30
60
60
60
60
60
C0
C0
C0
ENDCHAR
STARTCHAR C022512
ENCODING 9546
SWIDTH 2000 0
DWIDTH 20 0
BBX 11 14 5 0
BITMAP
1860
30C0
3180
3300
3600
3C00
7E00
7600
6300
6300
6300
6180
C180
C0C0
ENDCHAR
STARTCHAR C022513
ENCODING 9547
SWIDTH 2000 0
DWIDTH 20 0
BBX 10 14 5 0
BITMAP
0300
0700
0700
0F00
0F80
1980
1980
3180
3180
3180
61C0
60C0
C0C0
C0C0
ENDCHAR
STARTCHAR C022514
ENCODING 9548
SWIDTH 2000 0
DWIDTH 20 0
BBX 14 14 3 0
BITMAP
180C
381C
381C
3C3C
3C3C
3C7C
6C78
6CD8
6D98
6798
6718
6738
C630
C630
ENDCHAR
STARTCHAR C022515
ENCODING 9549
SWIDTH 2000 0
DWIDTH 20 0
BBX 12 14 4 0
BITMAP
1830
1830
3C30
3C30
3C60
3660
3660
7660
6360
6360
63C0
61C0
61C0
C1C0
ENDCHAR
STARTCHAR C022516
ENCODING 9550
SWIDTH 2000 0
DWIDTH 20 0
BBX 12 14 4 0
BITMAP
1FF0
0000
0000
0000
0000
0000
1FC0
0000
0000
0000
0000
0000
0000
FFC0
ENDCHAR
STARTCHAR C022517
ENCODING 9551
SWIDTH 2000 0
DWIDTH 20 0
BBX 12 14 4 0
BITMAP
0F80
18E0
3070
6030
6030
6030
C030
C030
C030
C060
C060
60C0
71C0
3F00
ENDCHAR
STARTCHAR C022520
ENCODING 9552
SWIDTH 2000 0
DWIDTH 20 0
BBX 12 14 4 0
BITMAP
3FF0
3030
3030
3030
3060
3060
6060
6060
6060
6060
60C0
C0C0
C0C0
C0C0
ENDCHAR
STARTCHAR C022521
ENCODING 9553
SWIDTH 2000 0
DWIDTH 20 0
BBX 11 14 5 0
BITMAP
3FC0
30C0
30E0
30E0
30C0
60C0
7F80
6000
6000
6000
C000
C000
C000
C000
ENDCHAR
STARTCHAR C022522
ENCODING 9554
SWIDTH 2000 0
DWIDTH 20 0
BBX 12 14 5 0
BITMAP
3FF0
3000
1800
0C00
0C00
0600
0700
0600
0C00
1800
3000
7000
E000
FFC0
ENDCHAR
STARTCHAR C022523
ENCODING 9555
SWIDTH 2000 0
DWIDTH 20 0
BBX 11 14 5 0
BITMAP
FFE0
0C00
0C00
0C00
0C00
0C00
0C00
1800
1800
1800
1800
1800
1800
3000
ENDCHAR
STARTCHAR C022524
ENCODING 9556
SWIDTH 2000 0
DWIDTH 20 0
BBX 10 14 6 0
BITMAP
C0C0
C1C0
C180
6300
6700
3600
3C00
3800
1800
3000
3000
3000
3000
3000
ENDCHAR
STARTCHAR C022525
ENCODING 9557
SWIDTH 2000 0
DWIDTH 20 0
BBX 13 15 4 0
BITMAP
0180
0180
0FC0
3BF0
6330
C338
C718
C618
C618
C630
E630
7EE0
3FC0
0C00
0C00
ENDCHAR
STARTCHAR C022526
ENCODING 9558
SWIDTH 2000 0
DWIDTH 20 0
BBX 12 14 4 0
BITMAP
1870
1860
0CC0
0D80
0F80
0700
0600
0F00
0F00
1B00
3180
7180
60C0
C0C0
ENDCHAR
STARTCHAR C022527
ENCODING 9559
SWIDTH 2000 0
DWIDTH 20 0
BBX 14 14 4 0
BITMAP
000C
6318
6338
6630
E630
C630
C630
C670
E660
3FC0
0C00
0C00
0C00
0C00
ENDCHAR
STARTCHAR C022530
ENCODING 9560
SWIDTH 2000 0
DWIDTH 20 0
BBX 12 14 4 0
BITMAP
0F80
38E0
3060
6030
6030
6030
E030
E030
6060
6060
30C0
1B80
3300
F7E0
ENDCHAR
STARTCHAR C022531
ENCODING 9561
SWIDTH 2000 0
DWIDTH 20 0
BBX 0 0 0 0
BITMAP
ENDCHAR
STARTCHAR C022532
ENCODING 9562
SWIDTH 2000 0
DWIDTH 20 0
BBX 0 0 0 0
BITMAP
ENDCHAR
STARTCHAR C022533
ENCODING 9563
SWIDTH 2000 0
DWIDTH 20 0
BBX 0 0 0 0
BITMAP
ENDCHAR
STARTCHAR C022534
ENCODING 9564
SWIDTH 2000 0
DWIDTH 20 0
BBX 1 19 20 -3
BITMAP
80
80
80
80
00
00
00
00
00
00
80
00
80
00
00
00
00
00
80
ENDCHAR
STARTCHAR C022535
ENCODING 9565
SWIDTH 2000 0
DWIDTH 20 0
BBX 0 0 0 0
BITMAP
ENDCHAR
STARTCHAR C022536
ENCODING 9566
SWIDTH 2000 0
DWIDTH 20 0
BBX 0 0 0 0
BITMAP
ENDCHAR
STARTCHAR C022537
ENCODING 9567
SWIDTH 2000 0
DWIDTH 20 0
BBX 0 0 0 0
BITMAP
ENDCHAR
STARTCHAR C022540
ENCODING 9568
SWIDTH 2000 0
DWIDTH 20 0
BBX 1 7 20 1
BITMAP
80
80
80
80
80
80
80
ENDCHAR
STARTCHAR C022541
ENCODING 9569
SWIDTH 2000 0
DWIDTH 20 0
BBX 9 11 6 0
BITMAP
3F80
6780
6380
C300
C300
C300
C300
C300
C600
EF00
7B80
ENDCHAR
STARTCHAR C022542
ENCODING 9570
SWIDTH 2000 0
DWIDTH 20 0
BBX 9 17 6 -2
BITMAP
0600
1F00
3980
3180
7180
7300
6600
7E00
6300
6300
6300
E300
E300
E700
FE00
C000
C000
ENDCHAR
STARTCHAR C022543
ENCODING 9571
SWIDTH 2000 0
DWIDTH 20 0
BBX 8 14 6 -3
BITMAP
C3
E3
E6
E6
EC
6C
6C
78
78
70
70
70
F0
F0
ENDCHAR
STARTCHAR C022544
ENCODING 9572
SWIDTH 2000 0
DWIDTH 20 0
BBX 10 15 6 0
BITMAP
3FC0
3000
1800
0C00
3E00
7700
6300
C300
C300
C300
C300
C300
C600
C600
7C00
ENDCHAR
STARTCHAR C022545
ENCODING 9573
SWIDTH 2000 0
DWIDTH 20 0
BBX 9 11 6 0
BITMAP
3E00
7300
6180
6180
3E00
7E00
E000
C300
C300
E700
7E00
ENDCHAR
STARTCHAR C022546
ENCODING 9574
SWIDTH 2000 0
DWIDTH 20 0
BBX 9 18 6 -3
BITMAP
3F80
0380
0700
0600
0C00
1C00
3800
3000
6000
E000
C000
C000
C000
7800
0E00
0600
0600
3E00
ENDCHAR
STARTCHAR C022547
ENCODING 9575
SWIDTH 2000 0
DWIDTH 20 0
BBX 8 14 6 -3
BITMAP
EF
7B
73
63
63
63
C3
C3
C3
C6
C6
06
06
06
ENDCHAR
STARTCHAR C022550
ENCODING 9576
SWIDTH 2000 0
DWIDTH 20 0
BBX 10 15 5 0
BITMAP
0F80
1980
30C0
30C0
60C0
60C0
7FC0
60C0
61C0
C180
6180
6180
6300
6700
3C00
ENDCHAR
STARTCHAR C022551
ENCODING 9577
SWIDTH 2000 0
DWIDTH 20 0
BBX 4 11 8 0
BITMAP
30
30
60
60
60
60
60
60
60
E0
70
ENDCHAR
STARTCHAR C022552
ENCODING 9578
SWIDTH 2000 0
DWIDTH 20 0
BBX 10 11 6 0
BITMAP
31C0
6700
6C00
7800
7C00
7C00
6C00
EC00
C600
C600
C600
ENDCHAR
STARTCHAR C022553
ENCODING 9579
SWIDTH 2000 0
DWIDTH 20 0
BBX 9 15 6 0
BITMAP
1800
3C00
0E00
0E00
0E00
0E00
1E00
1E00
3600
3700
6700
6700
C700
C700
0380
ENDCHAR
STARTCHAR C022554
ENCODING 9580
SWIDTH 2000 0
DWIDTH 20 0
BBX 9 14 6 -3
BITMAP
3180
6180
6300
6300
6300
6300
6300
E700
E700
EF00
FB80
C000
C000
C000
ENDCHAR
STARTCHAR C022555
ENCODING 9581
SWIDTH 2000 0
DWIDTH 20 0
BBX 7 11 7 0
BITMAP
C6
C6
CC
CC
CC
D8
D8
F0
F0
E0
E0
ENDCHAR
STARTCHAR C022556
ENCODING 9582
SWIDTH 2000 0
DWIDTH 20 0
BBX 10 18 6 -3
BITMAP
7FC0
1C00
3000
3000
3000
3000
1F00
3800
6000
C000
C000
C000
C000
7800
0E00
0600
0E00
3C00
ENDCHAR
STARTCHAR C022557
ENCODING 9583
SWIDTH 2000 0
DWIDTH 20 0
BBX 9 11 6 0
BITMAP
1E00
7300
6300
E180
C180
C180
C300
C300
C700
6600
7C00
ENDCHAR
STARTCHAR C022560
ENCODING 9584
SWIDTH 2000 0
DWIDTH 20 0
BBX 10 11 6 0
BITMAP
FFC0
6300
6300
6300
C300
C300
C600
C600
C600
C600
C600
ENDCHAR
STARTCHAR C022561
ENCODING 9585
SWIDTH 2000 0
DWIDTH 20 0
BBX 9 14 6 -3
BITMAP
0F00
1B80
3180
6180
6180
6180
6180
6180
E300
E300
FE00
C000
C000
C000
ENDCHAR
STARTCHAR C022562
ENCODING 9586
SWIDTH 2000 0
DWIDTH 20 0
BBX 10 11 6 0
BITMAP
3FC0
7300
6300
E180
C180
C180
C300
C300
C300
6600
3C00
ENDCHAR
STARTCHAR C022563
ENCODING 9587
SWIDTH 2000 0
DWIDTH 20 0
BBX 8 11 7 0
BITMAP
FF
30
30
30
30
30
30
30
60
70
38
ENDCHAR
STARTCHAR C022564
ENCODING 9588
SWIDTH 2000 0
DWIDTH 20 0
BBX 9 11 6 0
BITMAP
6180
6300
6300
6300
6300
C300
C300
C600
C600
EE00
7C00
ENDCHAR
STARTCHAR C022565
ENCODING 9589
SWIDTH 2000 0
DWIDTH 20 0
BBX 11 14 5 -3
BITMAP
1FC0
3F60
6660
6660
E660
C660
C660
CCC0
ECC0
7F80
3F00
0C00
0C00
1800
ENDCHAR
STARTCHAR C022566
ENCODING 9590
SWIDTH 2000 0
DWIDTH 20 0
BBX 9 14 6 -3
BITMAP
E180
3300
3600
3600
1C00
1C00
1800
1C00
3C00
3C00
6C00
6600
C600
0700
ENDCHAR
STARTCHAR C022567
ENCODING 9591
SWIDTH 2000 0
DWIDTH 20 0
BBX 12 14 5 -3
BITMAP
C630
E660
C660
CC60
CC60
CC60
CCC0
CCC0
CCC0
FDC0
7F00
1800
1800
1800
ENDCHAR
STARTCHAR C022570
ENCODING 9592
SWIDTH 2000 0
DWIDTH 20 0
BBX 11 11 5 0
BITMAP
1D80
30C0
60E0
E660
C660
CC60
CC60
CCE0
DCC0
DFC0
7380
ENDCHAR
STARTCHAR C022571
ENCODING 9593
SWIDTH 2000 0
DWIDTH 20 0
BBX 0 0 0 0
BITMAP
ENDCHAR
STARTCHAR C022572
ENCODING 9594
SWIDTH 2000 0
DWIDTH 20 0
BBX 1 19 20 -3
BITMAP
80
80
80
80
00
00
00
00
00
00
80
00
80
00
00
00
00
00
80
ENDCHAR
STARTCHAR C022573
ENCODING 9595
SWIDTH 2000 0
DWIDTH 20 0
BBX 0 0 0 0
BITMAP
ENDCHAR
STARTCHAR C022574
ENCODING 9596
SWIDTH 2000 0
DWIDTH 20 0
BBX 0 0 0 0
BITMAP
ENDCHAR
STARTCHAR C022575
ENCODING 9597
SWIDTH 2000 0
DWIDTH 20 0
BBX 0 0 0 0
BITMAP
ENDCHAR
STARTCHAR C022576
ENCODING 9598
SWIDTH 2000 0
DWIDTH 20 0
BBX 0 0 0 0
BITMAP
ENDCHAR
STARTCHAR C022577
ENCODING 9599
SWIDTH 2000 0
DWIDTH 20 0
BBX 1 16 20 0
BITMAP
80
00
00
00
00
00
00
80
00
80
00
00
00
80
80
80
ENDCHAR
STARTCHAR C023041
ENCODING 9761
SWIDTH 2000 0
DWIDTH 20 0
BBX 20 1 0 6
BITMAP
FFFFF0
ENDCHAR
STARTCHAR C023042
ENCODING 9762
SWIDTH 2000 0
DWIDTH 20 0
BBX 2 20 10 -4
BITMAP
C0
C0
C0
C0
C0
C0
C0
C0
C0
C0
C0
C0
C0
C0
C0
C0
C0
C0
C0
C0
ENDCHAR
STARTCHAR C023043
ENCODING 9763
SWIDTH 2000 0
DWIDTH 20 0
BBX 10 11 10 -4
BITMAP
FFC0
C000
C000
C000
C000
C000
C000
C000
C000
C000
C000
ENDCHAR
STARTCHAR C023044
ENCODING 9764
SWIDTH 2000 0
DWIDTH 20 0
BBX 12 11 0 -4
BITMAP
FFF0
0030
0030
0030
0030
0030
0030
0030
0030
0030
0030
ENDCHAR
STARTCHAR C023045
ENCODING 9765
SWIDTH 2000 0
DWIDTH 20 0
BBX 12 10 0 6
BITMAP
0030
0030
0030
0030
0030
0030
0030
0030
0030
FFF0
ENDCHAR
STARTCHAR C023046
ENCODING 9766
SWIDTH 2000 0
DWIDTH 20 0
BBX 10 10 10 6
BITMAP
C000
C000
C000
C000
C000
C000
C000
C000
C000
FFC0
ENDCHAR
STARTCHAR C023047
ENCODING 9767
SWIDTH 2000 0
DWIDTH 20 0
BBX 11 20 10 -4
BITMAP
C000
C000
C000
C000
C000
C000
C000
C000
C000
FFC0
C000
C000
C000
C000
C000
C000
C000
C000
C000
C000
ENDCHAR
STARTCHAR C023050
ENCODING 9768
SWIDTH 2000 0
DWIDTH 20 0
BBX 21 11 0 -4
BITMAP
FFFFF8
003000
003000
003000
003000
003000
003000
003000
003000
003000
003000
ENDCHAR
STARTCHAR C023051
ENCODING 9769
SWIDTH 2000 0
DWIDTH 20 0
BBX 12 20 0 -4
BITMAP
0030
0030
0030
0030
0030
0030
0030
0030
0030
FFF0
0030
0030
0030
0030
0030
0030
0030
0030
0030
0030
ENDCHAR
STARTCHAR C023052
ENCODING 9770
SWIDTH 2000 0
DWIDTH 20 0
BBX 21 10 0 6
BITMAP
003000
003000
003000
003000
003000
003000
003000
003000
003000
FFFFF8
ENDCHAR
STARTCHAR C023053
ENCODING 9771
SWIDTH 2000 0
DWIDTH 20 0
BBX 21 20 0 -4
BITMAP
003000
003000
003000
003000
003000
003000
003000
003000
003000
FFFFF8
003000
003000
003000
003000
003000
003000
003000
003000
003000
003000
ENDCHAR
STARTCHAR C023054
ENCODING 9772
SWIDTH 2000 0
DWIDTH 20 0
BBX 21 20 0 -4
BITMAP
000008
000008
000008
000008
000008
000008
000008
000008
000008
FFFFF8
000008
000008
000008
000008
000008
000008
000008
000008
000008
000008
ENDCHAR
STARTCHAR C023055
ENCODING 9773
SWIDTH 2000 0
DWIDTH 20 0
BBX 2 20 9 -4
BITMAP
C0
C0
C0
C0
C0
C0
C0
C0
C0
C0
C0
C0
C0
C0
C0
C0
C0
C0
C0
C0
ENDCHAR
STARTCHAR C023056
ENCODING 9774
SWIDTH 2000 0
DWIDTH 20 0
BBX 11 11 9 -4
BITMAP
FFE0
C000
C000
C000
C000
C000
C000
C000
C000
C000
C000
ENDCHAR
STARTCHAR C023057
ENCODING 9775
SWIDTH 2000 0
DWIDTH 20 0
BBX 11 11 0 -4
BITMAP
FFE0
0060
0060
0060
0060
0060
0060
0060
0060
0060
0060
ENDCHAR
STARTCHAR C023060
ENCODING 9776
SWIDTH 2000 0
DWIDTH 20 0
BBX 11 10 0 6
BITMAP
0060
0060
0060
0060
0060
0060
0060
0060
0060
FFE0
ENDCHAR
STARTCHAR C023061
ENCODING 9777
SWIDTH 2000 0
DWIDTH 20 0
BBX 11 10 9 6
BITMAP
C000
C000
C000
C000
C000
C000
C000
C000
C000
FFE0
ENDCHAR
STARTCHAR C023062
ENCODING 9778
SWIDTH 2000 0
DWIDTH 20 0
BBX 12 20 9 -4
BITMAP
C000
C000
C000
C000
C000
C000
C000
C000
C000
FFE0
C000
C000
C000
C000
C000
C000
C000
C000
C000
C000
ENDCHAR
STARTCHAR C023063
ENCODING 9779
SWIDTH 2000 0
DWIDTH 20 0
BBX 20 11 0 -4
BITMAP
FFFFF0
006000
006000
006000
006000
006000
006000
006000
006000
006000
006000
ENDCHAR
STARTCHAR C023064
ENCODING 9780
SWIDTH 2000 0
DWIDTH 20 0
BBX 11 20 0 -4
BITMAP
0060
0060
0060
0060
0060
0060
0060
0060
0060
FFE0
0060
0060
0060
0060
0060
0060
0060
0060
0060
0060
ENDCHAR
STARTCHAR C023065
ENCODING 9781
SWIDTH 2000 0
DWIDTH 20 0
BBX 21 10 0 6
BITMAP
006000
006000
006000
006000
006000
006000
006000
006000
006000
FFFFF8
ENDCHAR
STARTCHAR C023066
ENCODING 9782
SWIDTH 2000 0
DWIDTH 20 0
BBX 20 20 0 -4
BITMAP
006000
006000
006000
006000
006000
006000
006000
006000
006000
FFFFF0
006000
006000
006000
006000
006000
006000
006000
006000
006000
006000
ENDCHAR
STARTCHAR C023067
ENCODING 9783
SWIDTH 2000 0
DWIDTH 20 0
BBX 12 20 9 -4
BITMAP
C000
C000
C000
C000
C000
C000
C000
C000
C000
FFE0
C000
C000
C000
C000
C000
C000
C000
C000
C000
C000
ENDCHAR
STARTCHAR C023070
ENCODING 9784
SWIDTH 2000 0
DWIDTH 20 0
BBX 20 11 0 -4
BITMAP
FFFFF0
003000
003000
003000
003000
003000
003000
003000
003000
003000
003000
ENDCHAR
STARTCHAR C023071
ENCODING 9785
SWIDTH 2000 0
DWIDTH 20 0
BBX 11 20 0 -4
BITMAP
0060
0060
0060
0060
0060
0060
0060
0060
0060
FFE0
0060
0060
0060
0060
0060
0060
0060
0060
0060
0060
ENDCHAR
STARTCHAR C023072
ENCODING 9786
SWIDTH 2000 0
DWIDTH 20 0
BBX 20 10 0 6
BITMAP
003000
003000
003000
003000
003000
003000
003000
003000
003000
FFFFF0
ENDCHAR
STARTCHAR C023073
ENCODING 9787
SWIDTH 2000 0
DWIDTH 20 0
BBX 20 20 0 -4
BITMAP
003000
003000
003000
003000
003000
003000
003000
003000
003000
FFFFF0
003000
003000
003000
003000
003000
003000
003000
003000
003000
003000
ENDCHAR
STARTCHAR C023074
ENCODING 9788
SWIDTH 2000 0
DWIDTH 20 0
BBX 11 20 10 -4
BITMAP
C000
C000
C000
C000
C000
C000
C000
C000
C000
FFC0
C000
C000
C000
C000
C000
C000
C000
C000
C000
C000
ENDCHAR
STARTCHAR C023075
ENCODING 9789
SWIDTH 2000 0
DWIDTH 20 0
BBX 20 11 0 -4
BITMAP
FFFFF0
006000
006000
006000
006000
006000
006000
006000
006000
006000
006000
ENDCHAR
STARTCHAR C023076
ENCODING 9790
SWIDTH 2000 0
DWIDTH 20 0
BBX 12 20 0 -4
BITMAP
0030
0030
0030
0030
0030
0030
0030
0030
0030
FFF0
0030
0030
0030
0030
0030
0030
0030
0030
0030
0030
ENDCHAR
STARTCHAR C023077
ENCODING 9791
SWIDTH 2000 0
DWIDTH 20 0
BBX 20 10 0 6
BITMAP
006000
006000
006000
006000
006000
006000
006000
006000
006000
FFFFF0
ENDCHAR
STARTCHAR C023100
ENCODING 9792
SWIDTH 2000 0
DWIDTH 20 0
BBX 20 20 0 -4
BITMAP
006000
006000
006000
006000
006000
006000
006000
006000
006000
FFFFF0
006000
006000
006000
006000
006000
006000
006000
006000
006000
006000
ENDCHAR
STARTCHAR C023101
ENCODING 9793
SWIDTH 2000 0
DWIDTH 20 0
BBX 11 11 0 -4
BITMAP
FFE0
0060
0060
0060
0060
0060
0060
0060
0060
0060
0060
ENDCHAR
STARTCHAR C023102
ENCODING 9794
SWIDTH 2000 0
DWIDTH 20 0
BBX 12 11 0 -4
BITMAP
FFF0
0030
0030
0030
0030
0030
0030
0030
0030
0030
0030
ENDCHAR
STARTCHAR C023103
ENCODING 9795
SWIDTH 2000 0
DWIDTH 20 0
BBX 11 10 0 6
BITMAP
0060
0060
0060
0060
0060
0060
0060
0060
0060
FFE0
ENDCHAR
STARTCHAR C023104
ENCODING 9796
SWIDTH 2000 0
DWIDTH 20 0
BBX 12 10 0 6
BITMAP
0030
0030
0030
0030
0030
0030
0030
0030
0030
FFF0
ENDCHAR
STARTCHAR C023105
ENCODING 9797
SWIDTH 2000 0
DWIDTH 20 0
BBX 11 10 9 6
BITMAP
C000
C000
C000
C000
C000
C000
C000
C000
C000
FFE0
ENDCHAR
STARTCHAR C023106
ENCODING 9798
SWIDTH 2000 0
DWIDTH 20 0
BBX 10 10 10 6
BITMAP
C000
C000
C000
C000
C000
C000
C000
C000
C000
FFC0
ENDCHAR
STARTCHAR C023107
ENCODING 9799
SWIDTH 2000 0
DWIDTH 20 0
BBX 11 11 9 -4
BITMAP
FFE0
C000
C000
C000
C000
C000
C000
C000
C000
C000
C000
ENDCHAR
STARTCHAR C023110
ENCODING 9800
SWIDTH 2000 0
DWIDTH 20 0
BBX 10 11 10 -4
BITMAP
FFC0
C000
C000
C000
C000
C000
C000
C000
C000
C000
C000
ENDCHAR
STARTCHAR C023111
ENCODING 9801
SWIDTH 2000 0
DWIDTH 20 0
BBX 10 20 10 -4
BITMAP
C000
C000
C000
C000
C000
C000
C000
C000
C000
FFC0
C000
C000
C000
C000
C000
C000
C000
C000
C000
C000
ENDCHAR
STARTCHAR C023112
ENCODING 9802
SWIDTH 2000 0
DWIDTH 20 0
BBX 10 20 10 -4
BITMAP
C000
C000
C000
C000
C000
C000
C000
C000
C000
FFC0
C000
C000
C000
C000
C000
C000
C000
C000
C000
C000
ENDCHAR
STARTCHAR C023113
ENCODING 9803
SWIDTH 2000 0
DWIDTH 20 0
BBX 10 20 10 -4
BITMAP
C000
C000
C000
C000
C000
C000
C000
C000
C000
FFC0
C000
C000
C000
C000
C000
C000
C000
C000
C000
C000
ENDCHAR
STARTCHAR C023114
ENCODING 9804
SWIDTH 2000 0
DWIDTH 20 0
BBX 12 20 9 -4
BITMAP
6000
6000
6000
6000
6000
6000
6000
6000
6000
7FE0
6000
6000
6000
6000
6000
6000
6000
6000
6000
6000
ENDCHAR
STARTCHAR C023115
ENCODING 9805
SWIDTH 2000 0
DWIDTH 20 0
BBX 11 20 0 -4
BITMAP
0060
0060
0060
0060
0060
0060
0060
0060
0060
FFE0
0060
0060
0060
0060
0060
0060
0060
0060
0060
0060
ENDCHAR
STARTCHAR C023116
ENCODING 9806
SWIDTH 2000 0
DWIDTH 20 0
BBX 11 20 0 -4
BITMAP
0060
0060
0060
0060
0060
0060
0060
0060
0060
FFE0
0060
0060
0060
0060
0060
0060
0060
0060
0060
0060
ENDCHAR
STARTCHAR C023117
ENCODING 9807
SWIDTH 2000 0
DWIDTH 20 0
BBX 11 20 0 -4
BITMAP
0060
0060
0060
0060
0060
0060
0060
0060
0060
FFE0
0060
0060
0060
0060
0060
0060
0060
0060
0060
0060
ENDCHAR
STARTCHAR C023120
ENCODING 9808
SWIDTH 2000 0
DWIDTH 20 0
BBX 11 20 0 -4
BITMAP
0060
0060
0060
0060
0060
0060
0060
0060
0060
FFE0
0060
0060
0060
0060
0060
0060
0060
0060
0060
0060
ENDCHAR
STARTCHAR C023121
ENCODING 9809
SWIDTH 2000 0
DWIDTH 20 0
BBX 20 11 0 -4
BITMAP
FFFFF0
003000
003000
003000
003000
003000
003000
003000
003000
003000
003000
ENDCHAR
STARTCHAR C023122
ENCODING 9810
SWIDTH 2000 0
DWIDTH 20 0
BBX 21 11 0 -4
BITMAP
FFFFF8
003000
003000
003000
003000
003000
003000
003000
003000
003000
003000
ENDCHAR
STARTCHAR C023123
ENCODING 9811
SWIDTH 2000 0
DWIDTH 20 0
BBX 21 11 0 -4
BITMAP
FFFFF8
006000
006000
006000
006000
006000
006000
006000
006000
006000
006000
ENDCHAR
STARTCHAR C023124
ENCODING 9812
SWIDTH 2000 0
DWIDTH 20 0
BBX 21 11 0 -4
BITMAP
FFFFF8
006000
006000
006000
006000
006000
006000
006000
006000
006000
006000
ENDCHAR
STARTCHAR C023125
ENCODING 9813
SWIDTH 2000 0
DWIDTH 20 0
BBX 21 10 0 6
BITMAP
003000
003000
003000
003000
003000
003000
003000
003000
003000
FFFFF8
ENDCHAR
STARTCHAR C023126
ENCODING 9814
SWIDTH 2000 0
DWIDTH 20 0
BBX 20 10 0 6
BITMAP
003000
003000
003000
003000
003000
003000
003000
003000
003000
FFFFF0
ENDCHAR
STARTCHAR C023127
ENCODING 9815
SWIDTH 2000 0
DWIDTH 20 0
BBX 21 10 0 6
BITMAP
006000
006000
006000
006000
006000
006000
006000
006000
006000
FFFFF8
ENDCHAR
STARTCHAR C023130
ENCODING 9816
SWIDTH 2000 0
DWIDTH 20 0
BBX 20 10 0 6
BITMAP
006000
006000
006000
006000
006000
006000
006000
006000
006000
FFFFF0
ENDCHAR
STARTCHAR C023131
ENCODING 9817
SWIDTH 2000 0
DWIDTH 20 0
BBX 20 20 0 -4
BITMAP
003000
003000
003000
003000
003000
003000
003000
003000
003000
FFFFF0
003000
003000
003000
003000
003000
003000
003000
003000
003000
003000
ENDCHAR
STARTCHAR C023132
ENCODING 9818
SWIDTH 2000 0
DWIDTH 20 0
BBX 20 20 0 -4
BITMAP
003000
003000
003000
003000
003000
003000
003000
003000
003000
FFFFF0
003000
003000
003000
003000
003000
003000
003000
003000
003000
003000
ENDCHAR
STARTCHAR C023133
ENCODING 9819
SWIDTH 2000 0
DWIDTH 20 0
BBX 20 20 0 -4
BITMAP
006000
006000
006000
006000
006000
006000
006000
006000
006000
FFFFF0
006000
006000
006000
006000
006000
006000
006000
006000
006000
006000
ENDCHAR
STARTCHAR C023134
ENCODING 9820
SWIDTH 2000 0
DWIDTH 20 0
BBX 20 20 0 -4
BITMAP
006000
006000
006000
006000
006000
006000
006000
006000
006000
FFFFF0
006000
006000
006000
006000
006000
006000
006000
006000
006000
006000
ENDCHAR
STARTCHAR C023135
ENCODING 9821
SWIDTH 2000 0
DWIDTH 20 0
BBX 20 20 0 -4
BITMAP
006000
006000
006000
006000
006000
006000
006000
006000
006000
FFFFF0
006000
006000
006000
006000
006000
006000
006000
006000
006000
006000
ENDCHAR
STARTCHAR C023136
ENCODING 9822
SWIDTH 2000 0
DWIDTH 20 0
BBX 20 20 0 -4
BITMAP
006000
006000
006000
006000
006000
006000
006000
006000
006000
FFFFF0
006000
006000
006000
006000
006000
006000
006000
006000
006000
006000
ENDCHAR
STARTCHAR C023137
ENCODING 9823
SWIDTH 2000 0
DWIDTH 20 0
BBX 20 20 0 -4
BITMAP
006000
006000
006000
006000
006000
006000
006000
006000
006000
FFFFF0
006000
006000
006000
006000
006000
006000
006000
006000
006000
006000
ENDCHAR
STARTCHAR C023140
ENCODING 9824
SWIDTH 2000 0
DWIDTH 20 0
BBX 20 20 0 -4
BITMAP
003000
003000
003000
003000
003000
003000
003000
003000
003000
FFFFF0
006000
006000
006000
006000
006000
006000
006000
006000
006000
006000
ENDCHAR
STARTCHAR C023141
ENCODING 9825
SWIDTH 2000 0
DWIDTH 20 0
BBX 20 20 0 -4
BITMAP
006000
006000
006000
006000
006000
006000
006000
006000
006000
FFFFF0
006000
006000
006000
006000
006000
006000
006000
006000
006000
006000
ENDCHAR
STARTCHAR C023142
ENCODING 9826
SWIDTH 2000 0
DWIDTH 20 0
BBX 20 20 0 -4
BITMAP
006000
006000
006000
006000
006000
006000
006000
006000
006000
FFFFF0
006000
006000
006000
006000
006000
006000
006000
006000
006000
006000
ENDCHAR
STARTCHAR C023143
ENCODING 9827
SWIDTH 2000 0
DWIDTH 20 0
BBX 20 20 0 -4
BITMAP
006000
006000
006000
006000
006000
006000
006000
006000
006000
FFFFF0
006000
006000
006000
006000
006000
006000
006000
006000
006000
006000
ENDCHAR
STARTCHAR C023144
ENCODING 9828
SWIDTH 2000 0
DWIDTH 20 0
BBX 21 20 0 -4
BITMAP
006000
006000
006000
006000
006000
006000
006000
006000
006000
FFFFF0
006000
006000
006000
006000
006000
006000
006000
006000
006000
006000
ENDCHAR
STARTCHAR C023160
ENCODING 9840
SWIDTH 2000 0
DWIDTH 20 0
BBX 0 0 0 0
BITMAP
ENDCHAR
STARTCHAR C023161
ENCODING 9841
SWIDTH 2000 0
DWIDTH 20 0
BBX 0 0 0 0
BITMAP
ENDCHAR
STARTCHAR C023162
ENCODING 9842
SWIDTH 2000 0
DWIDTH 20 0
BBX 0 0 0 0
BITMAP
ENDCHAR
STARTCHAR C023440
ENCODING 10016
SWIDTH 2000 0
DWIDTH 20 0
BBX 1 3 20 -2
BITMAP
80
80
80
ENDCHAR
STARTCHAR C023441
ENCODING 10017
SWIDTH 2000 0
DWIDTH 20 0
BBX 17 17 2 -2
BITMAP
000700
000F00
001D80
18D980
18DB00
18F300
19B300
31B300
31B600
333600
633D80
633980
637180
761B00
FE0F00
C00000
C00000
ENDCHAR
STARTCHAR C023442
ENCODING 10018
SWIDTH 2000 0
DWIDTH 20 0
BBX 15 15 3 0
BITMAP
001C
0036
0076
0066
FE66
FEC6
F6CC
F6CC
F6D8
F6D8
F6F6
F6E6
F7C6
F66E
F63C
ENDCHAR
STARTCHAR C023443
ENCODING 10019
SWIDTH 2000 0
DWIDTH 20 0
BBX 15 15 2 0
BITMAP
031C
033E
037E
1F76
7776
63E6
63EC
E3EC
E3EC
E3F8
E3F6
63E6
63C6
776E
3F3C
ENDCHAR
STARTCHAR C023444
ENCODING 10020
SWIDTH 2000 0
DWIDTH 20 0
BBX 8 15 6 0
BITMAP
0E
1B
3B
33
33
66
66
66
6C
6C
7B
73
E3
36
1E
ENDCHAR
STARTCHAR C023445
ENCODING 10021
SWIDTH 2000 0
DWIDTH 20 0
BBX 15 15 3 0
BITMAP
C01C
C036
C076
C066
C66C
CCCC
D8CC
F8CC
F0D8
F0D8
F0F6
D8E6
CDC6
CE6C
C63C
ENDCHAR
STARTCHAR C023446
ENCODING 10022
SWIDTH 2000 0
DWIDTH 20 0
BBX 16 12 3 0
BITMAP
3C3C
6666
C6E6
C3C3
C0C0
C0C0
C0C0
C0C0
C3C3
E7E7
6666
3C3C
ENDCHAR
STARTCHAR C023447
ENCODING 10023
SWIDTH 2000 0
DWIDTH 20 0
BBX 17 15 2 0
BITMAP
000300
000780
000300
000180
FFFF80
FFFB00
F7F800
F7F800
F7F800
F7F800
F7F800
F7F800
F7F800
F7F800
F7F800
ENDCHAR
STARTCHAR C023450
ENCODING 10024
SWIDTH 2000 0
DWIDTH 20 0
BBX 17 15 2 0
BITMAP
000380
000180
000380
000180
7BFB80
6F7800
CF7800
CF7800
C37800
C37800
C37800
CF7800
CF7800
6F7800
7B7800
ENDCHAR
STARTCHAR C023451
ENCODING 10025
SWIDTH 2000 0
DWIDTH 20 0
BBX 17 15 2 0
BITMAP
000300
000780
000380
000180
FDF780
E79B00
C31800
C31800
C31800
C31800
C31800
C31800
C31800
C31800
C31800
ENDCHAR
STARTCHAR C023452
ENCODING 10026
SWIDTH 2000 0
DWIDTH 20 0
BBX 17 15 2 0
BITMAP
C00300
C00180
C00380
C00780
CFFF80
DFFB00
DB7800
F37800
F37800
F37800
F37800
FB7800
DB7800
DF7800
CF7800
ENDCHAR
STARTCHAR C023453
ENCODING 10027
SWIDTH 2000 0
DWIDTH 20 0
BBX 17 15 2 0
BITMAP
0F0000
1C0000
180000
180000
FFFF00
18F980
18D980
18D980
18D980
18D980
18D980
18D980
18D980
18D980
18D980
ENDCHAR
STARTCHAR C023454
ENCODING 10028
SWIDTH 2000 0
DWIDTH 20 0
BBX 16 12 2 0
BITMAP
1800
FEFF
C6DB
C6DB
C6DB
C6DB
C6DB
C6DB
C6DB
C6DB
C6DB
C6DB
ENDCHAR
STARTCHAR C023455
ENCODING 10029
SWIDTH 2000 0
DWIDTH 20 0
BBX 17 12 2 -1
BITMAP
19FF80
19FD80
19ED80
336D80
336D80
336D80
336D80
666D80
666D80
7E6D80
FE6D80
C00000
ENDCHAR
STARTCHAR C023456
ENCODING 10030
SWIDTH 2000 0
DWIDTH 20 0
BBX 16 11 2 0
BITMAP
FF7F
FB7F
DB7B
DB7B
DB7B
DB7B
DB7B
DB7B
DB7B
DB7B
DB7B
ENDCHAR
STARTCHAR C023457
ENCODING 10031
SWIDTH 2000 0
DWIDTH 20 0
BBX 16 11 2 0
BITMAP
3CFF
6EDB
C6DB
C6DB
C0DB
C0DB
C3DB
C3DB
C3DB
67DB
3EDB
ENDCHAR
STARTCHAR C023460
ENCODING 10032
SWIDTH 2000 0
DWIDTH 20 0
BBX 16 15 2 0
BITMAP
C000
C000
C000
C000
C7FE
CF9B
CD9B
D99B
F19B
F19B
D99B
DD9B
CD9B
C79B
C79B
ENDCHAR
STARTCHAR C023461
ENCODING 10033
SWIDTH 2000 0
DWIDTH 20 0
BBX 17 15 2 0
BITMAP
000380
000780
000300
018600
FFFF80
F7EC00
F7EC00
F7EC00
F7EC00
F7EC00
F7EC00
F7EC00
F7EC00
F7EC00
F7EC00
ENDCHAR
STARTCHAR C023462
ENCODING 10034
SWIDTH 2000 0
DWIDTH 20 0
BBX 17 15 2 0
BITMAP
000380
000180
000300
000300
7BFF80
7FEC00
CF6C00
CF6C00
C36C00
C36C00
CF6C00
CF6C00
CF6C00
7F6C00
7B6C00
ENDCHAR
STARTCHAR C023463
ENCODING 10035
SWIDTH 2000 0
DWIDTH 20 0
BBX 17 15 2 0
BITMAP
000380
000780
000300
000600
FDF780
EF1800
C61800
C61800
C61800
C61800
C61800
C61800
C61800
C61800
C61800
ENDCHAR
STARTCHAR C023464
ENCODING 10036
SWIDTH 2000 0
DWIDTH 20 0
BBX 17 15 2 0
BITMAP
C00380
C00180
C00300
C00600
CFFF80
DBEC00
DB6C00
F36C00
F36C00
E36C00
F36C00
F36C00
DB6C00
DF6C00
CF6C00
ENDCHAR
STARTCHAR C023465
ENCODING 10037
SWIDTH 2000 0
DWIDTH 20 0
BBX 16 15 2 0
BITMAP
C000
C000
C000
C000
FE3E
E773
C363
C303
C31F
C333
C363
C3C3
C3C3
C367
C33F
ENDCHAR
STARTCHAR C023466
ENCODING 10038
SWIDTH 2000 0
DWIDTH 20 0
BBX 17 14 2 -2
BITMAP
000180
19BF00
19E300
336300
336300
333E00
376000
667C00
666780
66C180
7EE180
FE7F00
C00000
C00000
ENDCHAR
STARTCHAR C023467
ENCODING 10039
SWIDTH 2000 0
DWIDTH 20 0
BBX 17 12 2 0
BITMAP
000380
FC7F00
FC6300
FC6300
FC6300
FC7E00
FC6000
FC7E00
FCC300
FCC180
FCE380
FC7E00
ENDCHAR
STARTCHAR C023470
ENCODING 10040
SWIDTH 2000 0
DWIDTH 20 0
BBX 17 15 2 0
BITMAP
C00000
C00000
C00000
C00300
C73F00
CE6600
CCC300
D86700
F07E00
F0C000
D87C00
CCC700
CEC180
C6C300
C37E00
ENDCHAR
STARTCHAR C023471
ENCODING 10041
SWIDTH 2000 0
DWIDTH 20 0
BBX 15 15 3 0
BITMAP
C060
C060
C060
C060
C660
CFFE
CC60
D860
F060
F060
F060
D860
CC60
CE66
C63C
ENDCHAR
STARTCHAR C023472
ENCODING 10042
SWIDTH 2000 0
DWIDTH 20 0
BBX 17 15 2 0
BITMAP
000180
000180
000180
000180
787980
6CCD80
CCCD80
CC0D80
C03D80
C0ED80
C18D80
CD8D80
CD8D80
6D9D80
78FD80
ENDCHAR
STARTCHAR C023473
ENCODING 10043
SWIDTH 2000 0
DWIDTH 20 0
BBX 17 15 2 0
BITMAP
C00180
C00180
C00180
C00180
CFF980
DBCD80
DECD80
F6CD80
F63D80
F66D80
F66D80
DEED80
DEED80
DBED80
CFBD80
ENDCHAR
STARTCHAR C023474
ENCODING 10044
SWIDTH 2000 0
DWIDTH 20 0
BBX 17 15 2 0
BITMAP
037E00
036700
036300
036300
3F6300
676300
E36600
C37E00
C36300
C36180
C36180
C36180
E36180
676300
3F7E00
ENDCHAR
STARTCHAR C023475
ENCODING 10045
SWIDTH 2000 0
DWIDTH 20 0
BBX 17 16 2 -2
BITMAP
FF8300
CD8600
CD8C00
CD9800
CDB800
CDF000
00E000
01C000
03BE00
076300
0E6000
1C3C00
380780
700180
E06180
003F00
ENDCHAR
STARTCHAR C023476
ENCODING 10046
SWIDTH 2000 0
DWIDTH 20 0
BBX 17 17 2 -2
BITMAP
F30000
FF8300
D98600
D98C00
D99800
D9B000
D9E380
00C180
01C300
03FB80
07CC00
0EC000
1C7800
380E00
700600
E0C600
007C00
ENDCHAR
STARTCHAR C023477
ENCODING 10047
SWIDTH 2000 0
DWIDTH 20 0
BBX 17 14 2 -3
BITMAP
FC3E00
E66300
C76300
C36000
C37800
C30E00
C30300
C30180
C36180
E66300
FC3E00
C00000
C00000
C00000
ENDCHAR
STARTCHAR C023500
ENCODING 10048
SWIDTH 2000 0
DWIDTH 20 0
BBX 17 11 2 0
BITMAP
FF3E00
E36700
C36300
C36000
C37800
C30E00
C30300
C30180
C36380
C36300
C33E00
ENDCHAR
STARTCHAR C023501
ENCODING 10049
SWIDTH 2000 0
DWIDTH 20 0
BBX 17 12 2 -1
BITMAP
19BF00
31F380
31E180
337000
333800
630F00
630380
660180
666180
EE3380
FE1F00
C00000
ENDCHAR
STARTCHAR C023502
ENCODING 10050
SWIDTH 2000 0
DWIDTH 20 0
BBX 17 11 2 0
BITMAP
FC3E00
FC6300
FC6300
FC6000
FC3800
FC0E00
FC0300
FC0180
FC6180
FC6300
FC3E00
ENDCHAR
STARTCHAR C023503
ENCODING 10051
SWIDTH 2000 0
DWIDTH 20 0
BBX 17 17 2 -2
BITMAP
00C180
00C300
00C300
006300
D86300
FE6300
E66600
C36600
C33600
C33600
C33600
C33C00
C31C00
E61C00
FC1C00
C00000
C00000
ENDCHAR
STARTCHAR C023504
ENCODING 10052
SWIDTH 2000 0
DWIDTH 20 0
BBX 17 15 2 0
BITMAP
00C180
00C300
00C300
006300
FF6300
C36300
C36600
C37600
C33600
C33600
C33600
C33C00
C31C00
C31C00
C31C00
ENDCHAR
STARTCHAR C023505
ENCODING 10053
SWIDTH 2000 0
DWIDTH 20 0
BBX 17 17 2 -2
BITMAP
00C180
006180
006180
006300
19E300
19E300
333300
333300
333600
333600
661E00
661E00
661E00
6E1C00
FE1C00
C00000
C00000
ENDCHAR
STARTCHAR C023506
ENCODING 10054
SWIDTH 2000 0
DWIDTH 20 0
BBX 17 15 2 0
BITMAP
00C180
00C180
00E300
006300
FF6300
DB6300
DB6600
DB3600
DB3600
DB3600
DB3600
DB3C00
DB1C00
DB1C00
DB1C00
ENDCHAR
STARTCHAR C023507
ENCODING 10055
SWIDTH 2000 0
DWIDTH 20 0
BBX 17 15 2 0
BITMAP
C0C180
C0C300
C0C300
C06300
C36300
C66300
CC6600
D87600
F03600
F03600
D83600
CC3C00
CE1C00
C71C00
C39C00
ENDCHAR
STARTCHAR C023510
ENCODING 10056
SWIDTH 2000 0
DWIDTH 20 0
BBX 17 15 2 0
BITMAP
E7C180
E7C180
E76300
E76300
EF6300
EF6300
FF6300
FF3600
FF3600
FF3600
FF3600
FB1E00
FB1C00
FB1C00
DB1C00
ENDCHAR
STARTCHAR C023511
ENCODING 10057
SWIDTH 2000 0
DWIDTH 20 0
BBX 17 17 2 -2
BITMAP
001C00
001C00
001C00
003C00
FE3600
E63600
C33600
C33600
C36600
C36300
C37F00
C36300
E66300
FCC300
C0C180
C00000
C00000
ENDCHAR
STARTCHAR C023512
ENCODING 10058
SWIDTH 2000 0
DWIDTH 20 0
BBX 17 15 2 0
BITMAP
001C00
001C00
001C00
003C00
FF3600
E33600
C33600
C33600
C36600
C36300
C37F00
C36300
C36300
C3C300
C3C180
ENDCHAR
STARTCHAR C023513
ENCODING 10059
SWIDTH 2000 0
DWIDTH 20 0
BBX 17 17 2 -2
BITMAP
000C00
001C00
001E00
001E00
18DE00
19F600
31B600
31B300
31B300
33B300
737F00
636300
636180
776180
DF6180
C00000
C00000
ENDCHAR
STARTCHAR C023514
ENCODING 10060
SWIDTH 2000 0
DWIDTH 20 0
BBX 17 15 2 0
BITMAP
001C00
001C00
001C00
001C00
FF3600
FB3600
DB3600
DB3600
DB3300
DB6300
DB7F00
DB6300
DB6300
DBC180
DBC180
ENDCHAR
STARTCHAR C023515
ENCODING 10061
SWIDTH 2000 0
DWIDTH 20 0
BBX 17 15 2 0
BITMAP
C01C00
C01C00
C01C00
C03C00
C73600
CE3600
CC3600
D83600
F06600
F06300
D87F00
CC6300
CE6300
C6C300
C3C180
ENDCHAR
STARTCHAR C023516
ENCODING 10062
SWIDTH 2000 0
DWIDTH 20 0
BBX 15 17 3 -2
BITMAP
03BE
03BE
03FE
03FE
FFFE
EFFE
C7EE
C7EE
C7EE
C7EE
C7CE
C7C6
EDC6
FDC6
C1C6
C000
C000
ENDCHAR
STARTCHAR C023517
ENCODING 10063
SWIDTH 2000 0
DWIDTH 20 0
BBX 16 15 2 0
BITMAP
01DF
01DF
01FF
01FF
FFFF
C7FF
C7F7
C6F7
C6F7
C6F7
C6E7
C6E3
C6E3
C6E3
C6E3
ENDCHAR
STARTCHAR C023520
ENCODING 10064
SWIDTH 2000 0
DWIDTH 20 0
BBX 17 17 2 -2
BITMAP
01DD80
01DD80
01FD80
01FD80
33FD80
63FF80
63F780
66F780
66F780
66F780
66E780
66E700
66E700
EEE300
FEE300
C00000
C00000
ENDCHAR
STARTCHAR C023521
ENCODING 10065
SWIDTH 2000 0
DWIDTH 20 0
BBX 16 15 2 0
BITMAP
01DF
01DF
01FF
01FF
FFFF
FBFF
DBFF
DBFF
DBFF
DBFF
DBE7
DBE3
DBE3
DBE3
DBE3
ENDCHAR
STARTCHAR C023522
ENCODING 10066
SWIDTH 2000 0
DWIDTH 20 0
BBX 16 15 2 0
BITMAP
C33B
C37B
C37B
C37B
C7FB
CDFB
DDEF
D9EF
F1EF
F1EF
D9EE
DCEE
CCCE
C6CE
C7C6
ENDCHAR
STARTCHAR C023523
ENCODING 10067
SWIDTH 2000 0
DWIDTH 20 0
BBX 16 15 2 0
BITMAP
E7CF
E7DF
E7DF
E7DF
E77F
E77F
EF7F
FF7E
FF7E
FF7E
FF7E
FF3E
FF3E
DF3E
DB3E
ENDCHAR
STARTCHAR C023524
ENCODING 10068
SWIDTH 2000 0
DWIDTH 20 0
BBX 17 15 2 0
BITMAP
C30000
C30000
C30000
C30000
C37F00
C30300
C30600
FF0C00
C30C00
C31800
C31800
C33000
C36000
C36000
C37F80
ENDCHAR
STARTCHAR C023525
ENCODING 10069
SWIDTH 2000 0
DWIDTH 20 0
BBX 17 15 2 0
BITMAP
C66000
C66000
C66000
C66000
DE7F80
DE6180
F66300
F7E300
E66600
F66600
F66600
F66C00
DE6C00
DE7800
CE7F00
ENDCHAR
STARTCHAR C023526
ENCODING 10070
SWIDTH 2000 0
DWIDTH 20 0
BBX 17 15 2 0
BITMAP
CFB000
CFB000
DFB000
DFB000
DFBF80
DFB180
FFB300
FFF300
FFB300
FFB600
FFB600
F7B600
F7BC00
F7BC00
F7BF80
ENDCHAR
STARTCHAR C023527
ENCODING 10071
SWIDTH 2000 0
DWIDTH 20 0
BBX 17 16 2 -1
BITMAP
333000
7F3000
6F3000
CF3000
CF3F80
C33180
C33180
C3F300
FF3300
CF3600
CF3600
CF3600
CF3C00
6F3C00
7F3F80
300000
ENDCHAR
STARTCHAR C023530
ENCODING 10072
SWIDTH 2000 0
DWIDTH 20 0
BBX 17 15 2 0
BITMAP
FF3000
333000
333000
333000
333F80
333180
333300
33F300
333300
333600
333600
333C00
333C00
333C00
333F80
ENDCHAR
STARTCHAR C023531
ENCODING 10073
SWIDTH 2000 0
DWIDTH 20 0
BBX 13 14 4 0
BITMAP
3FC0
70E0
6060
C030
C030
C030
C030
E060
6060
38C0
1D80
0D80
0D80
FDF8
ENDCHAR
STARTCHAR C023532
ENCODING 10074
SWIDTH 2000 0
DWIDTH 20 0
BBX 17 15 2 0
BITMAP
C03C00
C0E600
C0C300
C18380
C78180
CD8180
DD8180
D98180
F0C300
F0C300
F86600
D83C00
CC3C00
C63C00
C7FF00
ENDCHAR
STARTCHAR C023533
ENCODING 10075
SWIDTH 2000 0
DWIDTH 20 0
BBX 17 15 2 0
BITMAP
E63C00
E6E700
EEC300
EF8380
EF8180
EF8180
FF8180
FF8180
FEC300
FEC300
FE7E00
FE3C00
FE3C00
DE3C00
DFFF00
ENDCHAR
STARTCHAR C023534
ENCODING 10076
SWIDTH 2000 0
DWIDTH 20 0
BBX 17 17 2 -2
BITMAP
007F80
006000
006000
006000
D86000
FE6000
E67F80
C36000
C36000
C36000
C36000
C36000
C76000
E66000
FC6000
C00000
C00000
ENDCHAR
STARTCHAR C023535
ENCODING 10077
SWIDTH 2000 0
DWIDTH 20 0
BBX 17 15 2 0
BITMAP
007F80
006000
006000
006000
FF6000
C36000
C37F00
C36000
C36000
C36000
C36000
C36000
C36000
C36000
C36000
ENDCHAR
STARTCHAR C023536
ENCODING 10078
SWIDTH 2000 0
DWIDTH 20 0
BBX 17 17 2 -2
BITMAP
007F80
006000
006000
006000
19E000
31E000
31FF00
336000
336000
336000
636000
666000
666000
666000
FE6000
C00000
C00000
ENDCHAR
STARTCHAR C023537
ENCODING 10079
SWIDTH 2000 0
DWIDTH 20 0
BBX 17 15 2 0
BITMAP
000180
000180
000180
000180
FF7980
DB7980
DBCD80
DBCD80
DBCD80
DBCD80
DBCD80
DBCD80
DBCD80
DB7980
DB7980
ENDCHAR
STARTCHAR C023540
ENCODING 10080
SWIDTH 2000 0
DWIDTH 20 0
BBX 17 15 2 0
BITMAP
000180
000180
000180
000180
3C1F80
663380
E33180
C37180
C06180
C06180
C06180
C33180
C33180
663B80
3E1F80
ENDCHAR
STARTCHAR C023541
ENCODING 10081
SWIDTH 2000 0
DWIDTH 20 0
BBX 15 15 3 0
BITMAP
0006
0006
0006
0006
FF9E
E6F6
CCF6
C0F6
C3F6
C6F6
CCF6
CCF6
CCF6
CCF6
C7DE
ENDCHAR
STARTCHAR C023542
ENCODING 10082
SWIDTH 2000 0
DWIDTH 20 0
BBX 17 17 2 -2
BITMAP
001800
001800
001800
FF7800
EFD800
C7D800
DFD800
DBD980
CFFF00
001C00
003F00
00ED80
018C00
070700
0C0D80
380F80
600600
ENDCHAR
STARTCHAR C023543
ENCODING 10083
SWIDTH 2000 0
DWIDTH 20 0
BBX 19 17 1 -2
BITMAP
001800
001800
001800
FF7800
CFD800
C7D800
DFD8C0
DBDB80
CFFFC0
000CC0
0039E0
006F00
01CC00
030600
0E0300
180F00
300600
ENDCHAR
STARTCHAR C023544
ENCODING 10084
SWIDTH 2000 0
DWIDTH 20 0
BBX 15 11 3 0
BITMAP
7E7E
E770
C360
E060
7060
1E60
0760
0360
C360
E760
3E60
ENDCHAR
STARTCHAR C023545
ENCODING 10085
SWIDTH 2000 0
DWIDTH 20 0
BBX 16 15 2 0
BITMAP
FE00
C700
C380
C180
C1BE
C1E3
C363
C703
FC1F
C073
C0E3
C0C3
C0C3
C067
C07F
ENDCHAR
STARTCHAR C023546
ENCODING 10086
SWIDTH 2000 0
DWIDTH 20 0
BBX 16 15 2 0
BITMAP
C3C0
C360
C360
C360
CF6E
DB7B
DB7B
F363
F3C7
F30F
F31B
DB1B
DB1B
CF1B
CF0F
ENDCHAR
STARTCHAR C023547
ENCODING 10087
SWIDTH 2000 0
DWIDTH 20 0
BBX 17 15 2 0
BITMAP
C7E000
C7B000
CFB000
CFB000
EFB780
EFBD80
EFB980
EFB180
EFE780
FF8D80
FF8D80
FF8D80
FF8D80
FF8D80
FF8780
ENDCHAR
STARTCHAR C023550
ENCODING 10088
SWIDTH 2000 0
DWIDTH 20 0
BBX 17 16 2 -1
BITMAP
01E000
79B000
6DB000
CDB000
CDBF00
C1B980
C1B180
C1B180
FDE380
CD8780
CD8D80
CD8D80
CD8D80
CD8D80
7D8780
3C0780
ENDCHAR
STARTCHAR C023551
ENCODING 10089
SWIDTH 2000 0
DWIDTH 20 0
BBX 17 15 2 0
BITMAP
EDE000
EDE000
EDE000
FDE000
FDFE00
FF7300
FF6180
7F6180
7F6180
7F6180
7F6180
7F6180
7F6300
7F7300
7E7E00
ENDCHAR
STARTCHAR C023552
ENCODING 10090
SWIDTH 2000 0
DWIDTH 20 0
BBX 14 15 3 0
BITMAP
C000
C000
C000
C000
CFF8
CEEC
CCCC
CCCC
CCCC
CCCC
CCCC
CCCC
CCCC
CCCC
CCCC
ENDCHAR
STARTCHAR C023553
ENCODING 10091
SWIDTH 2000 0
DWIDTH 20 0
BBX 13 15 4 0
BITMAP
C000
C000
C000
C000
CC30
C630
C360
C360
C1C0
C0C0
C1C0
C360
C360
C630
C618
ENDCHAR
STARTCHAR C023554
ENCODING 10092
SWIDTH 2000 0
DWIDTH 20 0
BBX 15 17 3 -2
BITMAP
FC00
CE00
C600
C600
C67E
C6CE
CD86
FD86
C786
C386
C386
C3C6
C3EE
C67E
FC06
0006
0006
ENDCHAR
STARTCHAR C023555
ENCODING 10093
SWIDTH 2000 0
DWIDTH 20 0
BBX 17 18 2 -3
BITMAP
3E0000
630000
618000
C18000
C1E180
C06300
C06300
C03300
C7B600
C1B600
C1B600
C19C00
E19C00
639C00
3F9C00
001800
007800
007000
ENDCHAR
STARTCHAR C023556
ENCODING 10094
SWIDTH 2000 0
DWIDTH 20 0
BBX 17 15 2 0
BITMAP
3E0000
630000
618000
618000
606180
603300
303300
1E3300
033300
019E00
019E00
C19E00
619E00
638C00
3E0C00
ENDCHAR
STARTCHAR C023557
ENCODING 10095
SWIDTH 2000 0
DWIDTH 20 0
BBX 17 16 2 -2
BITMAP
FB0000
DB0000
C60000
C60000
C60000
DF0000
7F0000
0F0000
1B7F00
1BDF00
33DF00
33DE00
337E00
633380
603980
601F00
ENDCHAR
STARTCHAR C023560
ENCODING 10096
SWIDTH 2000 0
DWIDTH 20 0
BBX 0 0 0 0
BITMAP
ENDCHAR
STARTCHAR C023561
ENCODING 10097
SWIDTH 2000 0
DWIDTH 20 0
BBX 0 0 0 0
BITMAP
ENDCHAR
STARTCHAR C023562
ENCODING 10098
SWIDTH 2000 0
DWIDTH 20 0
BBX 0 0 0 0
BITMAP
ENDCHAR
STARTCHAR C023563
ENCODING 10099
SWIDTH 2000 0
DWIDTH 20 0
BBX 1 16 20 0
BITMAP
80
00
00
00
00
00
00
80
00
80
00
00
00
80
80
80
ENDCHAR
STARTCHAR C023564
ENCODING 10100
SWIDTH 2000 0
DWIDTH 20 0
BBX 0 0 0 0
BITMAP
ENDCHAR
STARTCHAR C023565
ENCODING 10101
SWIDTH 2000 0
DWIDTH 20 0
BBX 0 0 0 0
BITMAP
ENDCHAR
STARTCHAR C023566
ENCODING 10102
SWIDTH 2000 0
DWIDTH 20 0
BBX 0 0 0 0
BITMAP
ENDCHAR
STARTCHAR C023567
ENCODING 10103
SWIDTH 2000 0
DWIDTH 20 0
BBX 0 0 0 0
BITMAP
ENDCHAR
STARTCHAR C023570
ENCODING 10104
SWIDTH 2000 0
DWIDTH 20 0
BBX 1 18 20 -4
BITMAP
80
80
80
80
80
00
80
00
00
80
80
80
80
80
80
80
80
80
ENDCHAR
STARTCHAR C023571
ENCODING 10105
SWIDTH 2000 0
DWIDTH 20 0
BBX 0 0 0 0
BITMAP
ENDCHAR
STARTCHAR C023572
ENCODING 10106
SWIDTH 2000 0
DWIDTH 20 0
BBX 0 0 0 0
BITMAP
ENDCHAR
STARTCHAR C023573
ENCODING 10107
SWIDTH 2000 0
DWIDTH 20 0
BBX 0 0 0 0
BITMAP
ENDCHAR
STARTCHAR C023574
ENCODING 10108
SWIDTH 2000 0
DWIDTH 20 0
BBX 0 0 0 0
BITMAP
ENDCHAR
STARTCHAR C023575
ENCODING 10109
SWIDTH 2000 0
DWIDTH 20 0
BBX 1 19 20 -3
BITMAP
80
80
80
80
00
00
00
00
00
00
80
00
80
00
00
00
00
00
80
ENDCHAR
STARTCHAR C023576
ENCODING 10110
SWIDTH 2000 0
DWIDTH 20 0
BBX 0 0 0 0
BITMAP
ENDCHAR
STARTCHAR C023577
ENCODING 10111
SWIDTH 2000 0
DWIDTH 20 0
BBX 0 0 0 0
BITMAP
ENDCHAR
STARTCHAR C024040
ENCODING 10272
SWIDTH 2000 0
DWIDTH 20 0
BBX 1 2 20 0
BITMAP
80
80
ENDCHAR
STARTCHAR C024041
ENCODING 10273
SWIDTH 2000 0
DWIDTH 20 0
BBX 16 13 2 0
BITMAP
03FF
0380
0780
0780
0D80
0D80
19FF
1980
3F80
6180
6180
C180
C1FF
ENDCHAR
STARTCHAR C024042
ENCODING 10274
SWIDTH 2000 0
DWIDTH 20 0
BBX 14 13 3 0
BITMAP
1FE0
1838
1818
180C
180C
180C
FF0C
180C
180C
180C
1818
1878
1FE0
ENDCHAR
STARTCHAR C024043
ENCODING 10275
SWIDTH 2000 0
DWIDTH 20 0
BBX 9 13 6 0
BITMAP
3E00
6700
C300
0300
1F00
7300
C300
C300
C700
7F80
0000
0000
FF80
ENDCHAR
STARTCHAR C024044
ENCODING 10276
SWIDTH 2000 0
DWIDTH 20 0
BBX 15 13 3 0
BITMAP
3030
3030
FFFE
3030
3030
3030
3FF0
3030
3030
3030
3030
3030
3030
ENDCHAR
STARTCHAR C024045
ENCODING 10277
SWIDTH 2000 0
DWIDTH 20 0
BBX 1 13 20 0
BITMAP
80
80
80
80
80
80
80
80
80
80
80
80
80
ENDCHAR
STARTCHAR C024046
ENCODING 10278
SWIDTH 2000 0
DWIDTH 20 0
BBX 10 13 5 0
BITMAP
C0C0
C0C0
C0C0
C0C0
C0C0
C0C0
C0C0
C0C0
D8C0
D8C0
D8C0
DD80
CF80
ENDCHAR
STARTCHAR C024047
ENCODING 10279
SWIDTH 2000 0
DWIDTH 20 0
BBX 1 18 20 -4
BITMAP
80
80
80
80
80
00
80
00
00
80
80
80
80
80
80
80
80
80
ENDCHAR
STARTCHAR C024050
ENCODING 10280
SWIDTH 2000 0
DWIDTH 20 0
BBX 9 13 6 0
BITMAP
C000
C000
C000
C000
C000
C600
C600
C000
C000
C000
C000
C000
FF80
ENDCHAR
STARTCHAR C024051
ENCODING 10281
SWIDTH 2000 0
DWIDTH 20 0
BBX 12 13 4 0
BITMAP
1800
1B00
1B00
1E00
1C00
1800
1800
3800
7800
7800
D800
1800
1FF0
ENDCHAR
STARTCHAR C024052
ENCODING 10282
SWIDTH 2000 0
DWIDTH 20 0
BBX 14 15 3 -1
BITMAP
000C
0FF8
1870
3070
3078
70D8
6198
6318
6618
7C18
3C38
3830
3C60
6FC0
C000
ENDCHAR
STARTCHAR C024053
ENCODING 10283
SWIDTH 2000 0
DWIDTH 20 0
BBX 16 13 2 0
BITMAP
3FFF
7180
6180
C180
C180
C180
C1FF
C180
C180
E180
6180
7180
3FFF
ENDCHAR
STARTCHAR C024054
ENCODING 10284
SWIDTH 2000 0
DWIDTH 20 0
BBX 9 13 6 0
BITMAP
3E00
7700
E380
C180
C180
C180
C180
C180
6300
3E00
0000
0000
FF80
ENDCHAR
STARTCHAR C024055
ENCODING 10285
SWIDTH 2000 0
DWIDTH 20 0
BBX 9 13 6 0
BITMAP
C000
C000
C000
FE00
C300
C180
C180
C180
C380
FF00
C000
C000
C000
ENDCHAR
STARTCHAR C024056
ENCODING 10286
SWIDTH 2000 0
DWIDTH 20 0
BBX 10 12 5 0
BITMAP
FFC0
0C00
0C00
0C00
0C00
0C00
7F80
0C00
0C00
0C00
0C00
0C00
ENDCHAR
STARTCHAR C024057
ENCODING 10287
SWIDTH 2000 0
DWIDTH 20 0
BBX 9 14 6 0
BITMAP
DE00
FF00
E180
C180
C180
C180
C180
C180
C180
C180
C180
C180
C180
CF00
ENDCHAR
STARTCHAR C024060
ENCODING 10288
SWIDTH 2000 0
DWIDTH 20 0
BBX 1 7 20 2
BITMAP
80
80
80
80
80
80
80
ENDCHAR
STARTCHAR C024061
ENCODING 10289
SWIDTH 2000 0
DWIDTH 20 0
BBX 17 17 2 -3
BITMAP
07F000
1C1C00
380E00
700700
7FFB00
E01B80
C01980
C01980
C01980
C01980
C03180
E03380
600300
700700
380E00
1C1C00
07F000
ENDCHAR
STARTCHAR C024062
ENCODING 10290
SWIDTH 2000 0
DWIDTH 20 0
BBX 17 17 2 -3
BITMAP
07F000
1C1C00
380E00
700700
780300
F80380
D80180
D80180
D80180
D80180
D80180
FFFB80
600300
700700
380E00
1C1C00
07F000
ENDCHAR
STARTCHAR C024063
ENCODING 10291
SWIDTH 2000 0
DWIDTH 20 0
BBX 17 17 2 -3
BITMAP
07F000
1C1C00
380E00
700700
7FFB00
F80380
D80180
D80180
D80180
D80180
D80180
FFFB80
600300
700700
380E00
1C1C00
07F000
ENDCHAR
STARTCHAR C024064
ENCODING 10292
SWIDTH 2000 0
DWIDTH 20 0
BBX 17 17 2 -3
BITMAP
07F000
1C1C00
380E00
700700
7FFB00
E01B80
C01980
CFF980
CC0180
CC0180
CC0180
EFFF80
600300
700700
380E00
1C1C00
07F000
ENDCHAR
STARTCHAR C024065
ENCODING 10293
SWIDTH 2000 0
DWIDTH 20 0
BBX 17 17 2 -3
BITMAP
07F000
1C1C00
380E00
700700
7FFB00
F81B80
D81980
D81980
D81980
D81980
D81980
FFFB80
600300
700700
380E00
1C1C00
07F000
ENDCHAR
STARTCHAR C024066
ENCODING 10294
SWIDTH 2000 0
DWIDTH 20 0
BBX 17 17 2 -3
BITMAP
07F000
1C1C00
380E00
700700
600300
F81B80
D81980
DFF980
D81980
D81980
D81980
FFFB80
600300
700700
380E00
1C1C00
07F000
ENDCHAR
STARTCHAR C024067
ENCODING 10295
SWIDTH 2000 0
DWIDTH 20 0
BBX 17 17 2 -3
BITMAP
07F000
1C1C00
380E00
718700
618300
E18380
C18180
C3C180
C3C180
C66180
CC3980
F81F80
600300
700700
380E00
1C1C00
07F000
ENDCHAR
STARTCHAR C024070
ENCODING 10296
SWIDTH 2000 0
DWIDTH 20 0
BBX 17 17 2 -3
BITMAP
07F000
1C1C00
380E00
77E700
6E7300
FC3380
D81980
D81980
D81980
D81980
CC3180
EE7380
67E300
700700
380E00
1C1C00
07F000
ENDCHAR
STARTCHAR C024071
ENCODING 10297
SWIDTH 2000 0
DWIDTH 20 0
BBX 17 17 2 -3
BITMAP
07F000
1C1C00
380E00
700700
7FFF00
E18380
C1C180
C1C180
C36180
C67180
DC3980
F80F80
600300
700700
380E00
1C1C00
07F000
ENDCHAR
STARTCHAR C024072
ENCODING 10298
SWIDTH 2000 0
DWIDTH 20 0
BBX 17 17 2 -3
BITMAP
07F000
1C1C00
380E00
77F700
600300
FFFF80
C18180
C1C180
C36180
C67180
DC1D80
F80F80
600300
700700
380E00
1C1C00
07F000
ENDCHAR
STARTCHAR C024073
ENCODING 10299
SWIDTH 2000 0
DWIDTH 20 0
BBX 17 17 2 -3
BITMAP
07F000
1C1C00
380E00
700700
7FFB00
E01B80
C01980
C07980
DFD980
C01980
C03180
E03380
600300
700700
380E00
1C1C00
07F000
ENDCHAR
STARTCHAR C024074
ENCODING 10300
SWIDTH 2000 0
DWIDTH 20 0
BBX 17 17 2 -3
BITMAP
07F000
1C1C00
380E00
700700
7FFB00
F80380
D80180
D80180
DFF180
D80180
D80180
FFFB80
600300
700700
380E00
1C1C00
07F000
ENDCHAR
STARTCHAR C024075
ENCODING 10301
SWIDTH 2000 0
DWIDTH 20 0
BBX 17 17 2 -3
BITMAP
07F000
1C1C00
380E00
700700
7FFB00
E00380
C63180
C63180
C63180
C66180
C66180
FFFF80
600300
700700
380E00
1C1C00
07F000
ENDCHAR
STARTCHAR C024076
ENCODING 10302
SWIDTH 2000 0
DWIDTH 20 0
BBX 17 17 2 -3
BITMAP
07F000
1C1C00
380E00
77E700
600300
FFFF80
C00180
C3E180
C63180
CC1980
CC1980
EC1B80
663300
73E700
380E00
1C1C00
07F000
ENDCHAR
STARTCHAR C024077
ENCODING 10303
SWIDTH 2000 0
DWIDTH 20 0
BBX 17 17 2 -3
BITMAP
07F000
1C1C00
383E00
703700
7FB300
E1B380
C1B180
C33180
C33F80
C63180
CC3180
F83380
603300
703700
380E00
1C1C00
07F000
ENDCHAR
STARTCHAR C024100
ENCODING 10304
SWIDTH 2000 0
DWIDTH 20 0
BBX 17 17 2 -3
BITMAP
07F000
1C1C00
383E00
703700
783300
F83380
D83180
D83180
D83F80
D83180
D9F180
EF3380
603300
703700
380E00
1C1C00
07F000
ENDCHAR
STARTCHAR C024101
ENCODING 10305
SWIDTH 2000 0
DWIDTH 20 0
BBX 17 17 2 -3
BITMAP
07F000
1C1C00
383E00
703700
7FF300
F83380
D83180
D83180
D83F80
D83180
D8F180
FFB380
603300
703700
380E00
1C1C00
07F000
ENDCHAR
STARTCHAR C024102
ENCODING 10306
SWIDTH 2000 0
DWIDTH 20 0
BBX 17 17 2 -3
BITMAP
07F000
1C1C00
383E00
703700
7FB300
E1B380
C1B180
DFB180
D83F80
D83180
D83180
FFF380
603300
703700
380E00
1C1C00
07F000
ENDCHAR
STARTCHAR C024103
ENCODING 10307
SWIDTH 2000 0
DWIDTH 20 0
BBX 17 17 2 -3
BITMAP
07F000
1C1C00
383E00
703700
7FB300
F9B380
D9B180
D9B180
D9BF80
D9B180
D9B180
FFB380
603300
703700
380E00
1C1C00
07F000
ENDCHAR
STARTCHAR C024104
ENCODING 10308
SWIDTH 2000 0
DWIDTH 20 0
BBX 17 17 2 -3
BITMAP
07F000
1C1C00
383E00
703700
79B300
F9B380
D9B180
DFB180
D9BF80
D9B180
D9B180
FFB380
603300
703700
380E00
1C1C00
07F000
ENDCHAR
STARTCHAR C024105
ENCODING 10309
SWIDTH 2000 0
DWIDTH 20 0
BBX 17 17 2 -3
BITMAP
07F000
1C1C00
383E00
763700
663300
E63380
C63180
C63180
CF3F80
DFB180
F9F180
F0F380
603300
703700
380E00
1C1C00
07F000
ENDCHAR
STARTCHAR C024106
ENCODING 10310
SWIDTH 2000 0
DWIDTH 20 0
BBX 17 17 2 -3
BITMAP
07F000
1C1C00
383E00
703700
6F3300
FFB380
D9B180
D9B180
D9BF80
D9B180
DFB180
EF3380
603300
703700
380E00
1C1C00
07F000
ENDCHAR
STARTCHAR C024107
ENCODING 10311
SWIDTH 2000 0
DWIDTH 20 0
BBX 17 17 2 -3
BITMAP
07F000
1C1C00
383E00
703700
7FF300
E63380
C63180
C63180
CF3F80
CF3180
D9B180
F0F380
603300
703700
380E00
1C1C00
07F000
ENDCHAR
STARTCHAR C024110
ENCODING 10312
SWIDTH 2000 0
DWIDTH 20 0
BBX 17 17 2 -3
BITMAP
07F000
1C1C00
383E00
7FB700
603300
FFF380
C63180
C63180
C63F80
CF3180
DFB180
F9F380
603300
703700
380E00
1C1C00
07F000
ENDCHAR
STARTCHAR C024111
ENCODING 10313
SWIDTH 2000 0
DWIDTH 20 0
BBX 17 17 2 -3
BITMAP
07F000
1C1C00
383E00
703700
7FB300
E1B380
C1B180
DFB180
C1BF80
C33180
C73180
EE3380
7C3300
703700
380E00
1C1C00
07F000
ENDCHAR
STARTCHAR C024112
ENCODING 10314
SWIDTH 2000 0
DWIDTH 20 0
BBX 17 17 2 -3
BITMAP
07F000
1C1C00
383E00
703700
7FF300
F83380
D83180
DFB180
D83F80
D83180
D8F180
FFF380
603300
703700
380E00
1C1C00
07F000
ENDCHAR
STARTCHAR C024113
ENCODING 10315
SWIDTH 2000 0
DWIDTH 20 0
BBX 17 17 2 -3
BITMAP
07F000
1C1C00
383E00
703700
7FF300
E03380
CDB180
CDB180
CDBF80
CDB180
CFF180
FC3380
603300
703700
380E00
1C1C00
07F000
ENDCHAR
STARTCHAR C024114
ENCODING 10316
SWIDTH 2000 0
DWIDTH 20 0
BBX 17 17 2 -3
BITMAP
07F000
1C1C00
383E00
7FB700
603300
FFF380
C03180
C03180
CF3F80
D9B180
D9B180
F9B380
6F3300
703700
380E00
1C1C00
07F000
ENDCHAR
STARTCHAR C024115
ENCODING 10317
SWIDTH 2000 0
DWIDTH 20 0
BBX 17 17 2 -3
BITMAP
07F000
1C1C00
380E00
700700
63E300
E73380
C63180
C07180
C7F180
C63180
C63180
E7F380
63DB00
700700
380E00
1C1C00
07F000
ENDCHAR
STARTCHAR C024116
ENCODING 10318
SWIDTH 2000 0
DWIDTH 20 0
BBX 17 17 2 -3
BITMAP
07F000
1C1C00
3C0E00
7C0700
6C0300
EFC380
CE6180
CC3180
CC3180
CC3180
CC3180
EC3380
6E6300
7FC700
380E00
1C1C00
07F000
ENDCHAR
STARTCHAR C024117
ENCODING 10319
SWIDTH 2000 0
DWIDTH 20 0
BBX 17 17 2 -3
BITMAP
07F000
1C1C00
380E00
700700
67C300
E66380
CC6180
CC0180
CC0180
CC6180
C66180
E7C380
600300
700700
380E00
1C1C00
07F000
ENDCHAR
STARTCHAR C024120
ENCODING 10320
SWIDTH 2000 0
DWIDTH 20 0
BBX 17 17 2 -3
BITMAP
07F000
1C1C00
383E00
703700
603300
E3F380
C67180
CC3180
CC3180
CC3180
CC3180
EC3380
667300
73F700
380E00
1C1C00
07F000
ENDCHAR
STARTCHAR C024121
ENCODING 10321
SWIDTH 2000 0
DWIDTH 20 0
BBX 17 17 2 -3
BITMAP
07F000
1C1C00
380E00
700700
63C300
E66380
CC6180
CC3180
CFF180
CC0180
CC3180
E66380
63C300
700700
380E00
1C1C00
07F000
ENDCHAR
STARTCHAR C024122
ENCODING 10322
SWIDTH 2000 0
DWIDTH 20 0
BBX 17 17 2 -3
BITMAP
07F000
1C1C00
39EE00
718700
618300
E7E380
C18180
C18180
C18180
C18180
C18180
E18380
618300
718700
380E00
1C1C00
07F000
ENDCHAR
STARTCHAR C024123
ENCODING 10323
SWIDTH 2000 0
DWIDTH 20 0
BBX 17 17 2 -3
BITMAP
07F000
1C1C00
3BFE00
737700
663300
E63380
C63180
C63180
C63180
C77180
C3F180
E63380
666300
77C700
380E00
1C1C00
07F000
ENDCHAR
STARTCHAR C024124
ENCODING 10324
SWIDTH 2000 0
DWIDTH 20 0
BBX 17 17 2 -3
BITMAP
07F000
1C1C00
3E0E00
760700
660300
E7E380
C77180
C63180
C63180
C63180
C63180
E63380
663300
763700
380E00
1C1C00
07F000
ENDCHAR
STARTCHAR C024125
ENCODING 10325
SWIDTH 2000 0
DWIDTH 20 0
BBX 17 17 2 -3
BITMAP
07F000
1C1C00
398E00
718700
600300
E18380
C18180
C18180
C18180
C18180
C18180
E18380
618300
718700
380E00
1C1C00
07F000
ENDCHAR
STARTCHAR C024126
ENCODING 10326
SWIDTH 2000 0
DWIDTH 20 0
BBX 17 17 2 -3
BITMAP
07F000
1D9C00
398E00
700700
618300
E18380
C18180
C18180
C18180
C18180
C18180
E18380
618300
718700
3F8E00
1C1C00
07F000
ENDCHAR
STARTCHAR C024127
ENCODING 10327
SWIDTH 2000 0
DWIDTH 20 0
BBX 17 17 2 -3
BITMAP
07F000
1C1C00
3E0E00
760700
660300
E60380
C6E180
C78180
C78180
C6C180
C6C180
E66380
666300
763700
380E00
1C1C00
07F000
ENDCHAR
STARTCHAR C024130
ENCODING 10328
SWIDTH 2000 0
DWIDTH 20 0
BBX 17 17 2 -3
BITMAP
07F000
1C1C00
398E00
718700
618300
E18380
C18180
C18180
C18180
C18180
C18180
E18380
618300
718700
380E00
1C1C00
07F000
ENDCHAR
STARTCHAR C024131
ENCODING 10329
SWIDTH 2000 0
DWIDTH 20 0
BBX 17 17 2 -3
BITMAP
07F000
1C1C00
380E00
780700
7FFF00
F9CF80
D98D80
D98D80
D98D80
D98D80
D98D80
F98F80
600300
700700
380E00
1C1C00
07F000
ENDCHAR
STARTCHAR C024132
ENCODING 10330
SWIDTH 2000 0
DWIDTH 20 0
BBX 17 17 2 -3
BITMAP
07F000
1C1C00
380E00
700700
67E300
E73380
C63180
C63180
C63180
C63180
C63180
E63380
663300
700700
380E00
1C1C00
07F000
ENDCHAR
STARTCHAR C024133
ENCODING 10331
SWIDTH 2000 0
DWIDTH 20 0
BBX 17 17 2 -3
BITMAP
07F000
1C1C00
380E00
700700
63C300
E66380
CC3180
CC3180
CC3180
CC3180
C66180
E3C380
600300
700700
380E00
1C1C00
07F000
ENDCHAR
STARTCHAR C024134
ENCODING 10332
SWIDTH 2000 0
DWIDTH 20 0
BBX 17 17 2 -3
BITMAP
07F000
1C1C00
380E00
7FC700
6E6300
EC3380
CC3180
CC3180
CC3180
CE6180
CFC180
EC0380
6C0300
7C0700
380E00
1C1C00
07F000
ENDCHAR
STARTCHAR C024135
ENCODING 10333
SWIDTH 2000 0
DWIDTH 20 0
BBX 17 17 2 -3
BITMAP
07F000
1C1C00
3BFE00
767700
6C3300
EC3380
CC3180
CC3180
CC3180
C67180
C3F180
E03380
603300
703700
380E00
1C1C00
07F000
ENDCHAR
STARTCHAR C024136
ENCODING 10334
SWIDTH 2000 0
DWIDTH 20 0
BBX 17 17 2 -3
BITMAP
07F000
1C1C00
380E00
700700
63E300
E38380
C30180
C30180
C30180
C30180
C30180
E30380
630300
700700
380E00
1C1C00
07F000
ENDCHAR
STARTCHAR C024137
ENCODING 10335
SWIDTH 2000 0
DWIDTH 20 0
BBX 17 17 2 -3
BITMAP
07F000
1C1C00
380E00
73E700
666300
E60380
C70180
C1E180
C07180
C63180
C67180
E3E380
600300
700700
380E00
1C1C00
07F000
ENDCHAR
STARTCHAR C024140
ENCODING 10336
SWIDTH 2000 0
DWIDTH 20 0
BBX 17 17 2 -3
BITMAP
07F000
1C1C00
398E00
718700
618300
E7E380
C18180
C18180
C18180
C18180
C18180
E18380
61E300
700700
380E00
1C1C00
07F000
ENDCHAR
STARTCHAR C024141
ENCODING 10337
SWIDTH 2000 0
DWIDTH 20 0
BBX 17 17 2 -3
BITMAP
07F000
1C1C00
380E00
700700
663300
E63380
C63180
C63180
C63180
C63180
C63180
E77380
63F300
700700
380E00
1C1C00
07F000
ENDCHAR
STARTCHAR C024142
ENCODING 10338
SWIDTH 2000 0
DWIDTH 20 0
BBX 17 17 2 -3
BITMAP
07F000
1C1C00
380E00
700700
663300
E63380
C66180
C36180
C36180
C3C180
C3C180
E1C380
618300
700700
380E00
1C1C00
07F000
ENDCHAR
STARTCHAR C024143
ENCODING 10339
SWIDTH 2000 0
DWIDTH 20 0
BBX 17 17 2 -3
BITMAP
07F000
1C1C00
380E00
700700
798F00
F9CF80
D9D980
DBD980
CFD980
CF7980
CF7180
E67380
667300
760700
380E00
1C1C00
07F000
ENDCHAR
STARTCHAR C024144
ENCODING 10340
SWIDTH 2000 0
DWIDTH 20 0
BBX 17 17 2 -3
BITMAP
07F000
1C1C00
380E00
703700
666300
E36380
C3C180
C1C180
C1C180
C3C180
C76180
E67380
603300
700700
380E00
1C1C00
07F000
ENDCHAR
STARTCHAR C024145
ENCODING 10341
SWIDTH 2000 0
DWIDTH 20 0
BBX 17 17 2 -3
BITMAP
07F000
1C1C00
380E00
763700
666300
E66380
C36180
C3C180
C3C180
C1C180
C1C180
E18380
618300
770700
380E00
1C1C00
07F000
ENDCHAR
STARTCHAR C024146
ENCODING 10342
SWIDTH 2000 0
DWIDTH 20 0
BBX 17 17 2 -3
BITMAP
07F000
1C1C00
380E00
700700
6FF300
E06380
C0C180
C0C180
C18180
C30180
C60180
EFF380
600300
700700
380E00
1C1C00
07F000
ENDCHAR
STARTCHAR C024147
ENCODING 10343
SWIDTH 2000 0
DWIDTH 20 0
BBX 17 17 2 -3
BITMAP
07F000
1C1C00
38CE00
70C700
60C300
E7C380
C0C180
C0C180
C0C180
C0C180
C0C180
E0C380
60C300
70C700
380E00
1C1C00
07F000
ENDCHAR
STARTCHAR C024150
ENCODING 10344
SWIDTH 2000 0
DWIDTH 20 0
BBX 17 17 2 -3
BITMAP
07F000
1C1C00
3BEE00
777700
663300
E63380
C63180
C07180
C0E180
C1C180
C30180
E60380
660300
7FF700
380E00
1C1C00
07F000
ENDCHAR
STARTCHAR C024151
ENCODING 10345
SWIDTH 2000 0
DWIDTH 20 0
BBX 17 17 2 -3
BITMAP
07F000
1C1C00
3BEE00
767700
6C3300
EC3380
C07180
C1E180
C03180
C03180
CC3180
EC3380
666300
73C700
380E00
1C1C00
07F000
ENDCHAR
STARTCHAR C024152
ENCODING 10346
SWIDTH 2000 0
DWIDTH 20 0
BBX 17 17 2 -3
BITMAP
07F000
1C1C00
38CE00
71C700
61C300
E3C380
C3C180
C6C180
CCC180
CCC180
DFF180
E0C380
60C300
70C700
380E00
1C1C00
07F000
ENDCHAR
STARTCHAR C024153
ENCODING 10347
SWIDTH 2000 0
DWIDTH 20 0
BBX 17 17 2 -3
BITMAP
07F000
1C1C00
3FFE00
760700
660300
E60380
C7C180
C66180
C03180
C03180
C03180
EC3380
666300
73C700
380E00
1C1C00
07F000
ENDCHAR
STARTCHAR C024154
ENCODING 10348
SWIDTH 2000 0
DWIDTH 20 0
BBX 17 17 2 -3
BITMAP
07F000
1C1C00
3BCE00
766700
666300
EC0380
CC0180
CFE180
CE7180
CC3180
CC3180
EC3380
667300
73E700
380E00
1C1C00
07F000
ENDCHAR
STARTCHAR C024155
ENCODING 10349
SWIDTH 2000 0
DWIDTH 20 0
BBX 17 17 2 -3
BITMAP
07F000
1C1C00
3FFE00
703700
606300
E06380
C0C180
C0C180
C18180
C18180
C18180
E30380
630300
730700
380E00
1C1C00
07F000
ENDCHAR
STARTCHAR C024156
ENCODING 10350
SWIDTH 2000 0
DWIDTH 20 0
BBX 17 17 2 -3
BITMAP
07F000
1C1C00
3BEE00
777700
663300
E63380
C77180
C3E180
C67180
CC3180
CC3180
EC3380
6E7300
73E700
380E00
1C1C00
07F000
ENDCHAR
STARTCHAR C024157
ENCODING 10351
SWIDTH 2000 0
DWIDTH 20 0
BBX 17 17 2 -3
BITMAP
07F000
1C1C00
3BCE00
736700
663300
E63380
C63180
C63180
C77180
C3F180
C03180
EC6380
666300
77C700
380E00
1C1C00
07F000
ENDCHAR
STARTCHAR C024160
ENCODING 10352
SWIDTH 2000 0
DWIDTH 20 0
BBX 17 17 2 -3
BITMAP
07F000
1C1C00
380E00
7C7F00
6C7B00
FCCF80
CCCD80
CCCD80
CCCD80
CCCD80
CCCD80
EC7B80
6C7B00
700700
380E00
1C1C00
07F000
ENDCHAR
STARTCHAR C024161
ENCODING 10353
SWIDTH 2000 0
DWIDTH 20 0
BBX 17 17 2 -3
BITMAP
07F000
1C1C00
380E00
7C1F00
6C1B00
FCFB80
CC1980
CC1980
CC1980
CC1980
CC1980
EC1B80
6C1B00
700700
380E00
1C1C00
07F000
ENDCHAR
STARTCHAR C024162
ENCODING 10354
SWIDTH 2000 0
DWIDTH 20 0
BBX 17 17 2 -3
BITMAP
07F000
1C1C00
380E00
7C0700
6CFB00
FCCF80
CCCD80
CC0D80
CC1980
CC3180
CC6180
ECC380
6DFF00
700700
380E00
1C1C00
07F000
ENDCHAR
STARTCHAR C024163
ENCODING 10355
SWIDTH 2000 0
DWIDTH 20 0
BBX 17 17 2 -3
BITMAP
07F000
1C1C00
380E00
7C7F00
6CDF00
FCCF80
CC1980
CC7180
CC1D80
CC0D80
CD8D80
EDCF80
6CFB00
700700
380E00
1C1C00
07F000
ENDCHAR
STARTCHAR C024164
ENCODING 10356
SWIDTH 2000 0
DWIDTH 20 0
BBX 17 17 2 -3
BITMAP
07F000
1C1C00
380E00
7C1F00
6C3B00
FC3B80
CC7980
CCD980
CCD980
CDFF80
CC1980
EC1B80
6C0300
700700
380E00
1C1C00
07F000
ENDCHAR
STARTCHAR C024165
ENCODING 10357
SWIDTH 2000 0
DWIDTH 20 0
BBX 17 17 2 -3
BITMAP
07F000
1C1C00
380E00
7CFF00
6CC300
FCC380
CCF980
CCDD80
CC0D80
CC0D80
CCCD80
ECFB80
6C0300
700700
380E00
1C1C00
07F000
ENDCHAR
STARTCHAR C024166
ENCODING 10358
SWIDTH 2000 0
DWIDTH 20 0
BBX 14 14 3 0
BITMAP
3060
3060
F0C0
30C0
3180
31B0
33FC
33CC
36CC
361C
0C38
0C60
18C0
18FC
ENDCHAR
STARTCHAR C024167
ENCODING 10359
SWIDTH 2000 0
DWIDTH 20 0
BBX 15 13 3 0
BITMAP
3060
F0C0
F0C0
3180
31B8
337C
336C
360C
3638
0C0C
0CC6
18EE
187C
ENDCHAR
STARTCHAR C024170
ENCODING 10360
SWIDTH 2000 0
DWIDTH 20 0
BBX 15 13 3 0
BITMAP
7860
CC60
CCC0
1CC0
39B8
61FC
C36C
FF0C
0638
060C
0CC6
0CEE
187C
ENDCHAR
STARTCHAR C024171
ENCODING 10361
SWIDTH 2000 0
DWIDTH 20 0
BBX 14 14 3 0
BITMAP
3060
3060
F0C0
30C0
3198
31B8
3338
3378
36D8
36D8
0D98
0FFC
1818
1818
ENDCHAR
STARTCHAR C024172
ENCODING 10362
SWIDTH 2000 0
DWIDTH 20 0
BBX 15 14 3 0
BITMAP
3830
7C60
CC60
0CC0
38D8
0DB8
CFB8
EF78
7FD8
06D8
0798
0FFE
0C18
1818
ENDCHAR
STARTCHAR C024173
ENCODING 10363
SWIDTH 2000 0
DWIDTH 20 0
BBX 15 13 3 0
BITMAP
3060
F0C0
F0C0
3180
3180
337C
3366
366C
3638
0C6C
0C66
1866
187C
ENDCHAR
STARTCHAR C024174
ENCODING 10364
SWIDTH 2000 0
DWIDTH 20 0
BBX 15 13 3 0
BITMAP
FC60
CC60
0CC0
38C0
1D80
CDFC
CF66
FF6C
0638
066C
0C66
0C66
187C
ENDCHAR
STARTCHAR C024175
ENCODING 10365
SWIDTH 2000 0
DWIDTH 20 0
BBX 15 13 3 0
BITMAP
FC60
C060
F8C0
FCC0
0D80
CDFC
CF66
FB6C
0638
066C
0C66
0C66
187C
ENDCHAR
STARTCHAR C024176
ENCODING 10366
SWIDTH 2000 0
DWIDTH 20 0
BBX 15 13 3 0
BITMAP
FE60
0CC0
0CC0
1980
1980
337C
3366
366C
0638
0C6C
0C66
1866
187C
ENDCHAR
STARTCHAR C024177
ENCODING 10367
SWIDTH 2000 0
DWIDTH 20 0
BBX 0 0 0 0
BITMAP
ENDCHAR
STARTCHAR C024441
ENCODING 10529
SWIDTH 2000 0
DWIDTH 20 0
BBX 14 10 3 0
BITMAP
7EF8
679C
C30C
030C
3FFC
6300
C300
C30C
C78C
7CF8
ENDCHAR
STARTCHAR C024442
ENCODING 10530
SWIDTH 2000 0
DWIDTH 20 0
BBX 11 13 5 0
BITMAP
0180
1FE0
0180
3D80
7780
E380
C180
C180
C180
C180
E380
6380
3F80
ENDCHAR
STARTCHAR C024443
ENCODING 10531
SWIDTH 2000 0
DWIDTH 20 0
BBX 8 14 6 0
BITMAP
66
3C
38
7C
06
06
3F
67
C3
C3
C3
C3
66
3C
ENDCHAR
STARTCHAR C024444
ENCODING 10532
SWIDTH 2000 0
DWIDTH 20 0
BBX 10 13 5 0
BITMAP
3000
FF00
7E00
3000
3780
3DC0
30C0
30C0
30C0
30C0
30C0
30C0
30C0
ENDCHAR
STARTCHAR C024445
ENCODING 10533
SWIDTH 2000 0
DWIDTH 20 0
BBX 2 9 9 0
BITMAP
C0
C0
C0
C0
C0
C0
C0
C0
C0
ENDCHAR
STARTCHAR C024446
ENCODING 10534
SWIDTH 2000 0
DWIDTH 20 0
BBX 7 15 7 -2
BITMAP
C6
00
00
00
C6
C6
C6
C6
C6
C6
C6
C6
C6
06
1E
ENDCHAR
STARTCHAR C024447
ENCODING 10535
SWIDTH 2000 0
DWIDTH 20 0
BBX 8 9 6 0
BITMAP
C6
CC
F8
F8
DC
CC
C6
C6
C3
ENDCHAR
STARTCHAR C024450
ENCODING 10536
SWIDTH 2000 0
DWIDTH 20 0
BBX 6 13 8 0
BITMAP
C0
C0
C0
C0
C0
CC
CC
CC
C0
C0
C0
C0
C0
ENDCHAR
STARTCHAR C024451
ENCODING 10537
SWIDTH 2000 0
DWIDTH 20 0
BBX 8 13 6 0
BITMAP
18
18
1B
1E
1C
1C
18
38
78
D8
D8
18
18
ENDCHAR
STARTCHAR C024452
ENCODING 10538
SWIDTH 2000 0
DWIDTH 20 0
BBX 11 10 5 0
BITMAP
1FE0
30C0
61E0
6360
6660
6C60
7860
70C0
70C0
DF80
ENDCHAR
STARTCHAR C024453
ENCODING 10539
SWIDTH 2000 0
DWIDTH 20 0
BBX 16 10 3 0
BITMAP
3C7C
77CE
E386
C307
C187
C1FF
C180
C387
63C6
3E7C
ENDCHAR
STARTCHAR C024454
ENCODING 10540
SWIDTH 2000 0
DWIDTH 20 0
BBX 9 14 6 0
BITMAP
3C00
7700
E300
C300
C300
C600
DE00
C300
C180
C180
C180
C180
C300
DE00
ENDCHAR
STARTCHAR C024455
ENCODING 10541
SWIDTH 2000 0
DWIDTH 20 0
BBX 9 15 6 -2
BITMAP
C000
C000
C000
DE00
F700
E380
C180
C180
C180
C180
C380
E300
FE00
C000
C000
ENDCHAR
STARTCHAR C024456
ENCODING 10542
SWIDTH 2000 0
DWIDTH 20 0
BBX 6 13 7 0
BITMAP
30
30
30
FC
7C
30
FC
30
30
30
30
30
3C
ENDCHAR
STARTCHAR C024457
ENCODING 10543
SWIDTH 2000 0
DWIDTH 20 0
BBX 8 13 6 -3
BITMAP
DE
F7
C3
C3
C3
C3
C3
C3
C3
C3
03
0F
0E
ENDCHAR
STARTCHAR C024460
ENCODING 10544
SWIDTH 2000 0
DWIDTH 20 0
BBX 12 11 4 0
BITMAP
7000
6DE0
EF70
CC30
0C30
0C30
0C30
0C30
0C30
0C30
0C30
ENDCHAR
STARTCHAR C024461
ENCODING 10545
SWIDTH 2000 0
DWIDTH 20 0
BBX 17 16 2 -2
BITMAP
180C00
300600
600300
600300
DFF980
C01980
C01980
C01980
C01980
C01980
C03180
C03300
600300
600300
300600
180C00
ENDCHAR
STARTCHAR C024462
ENCODING 10546
SWIDTH 2000 0
DWIDTH 20 0
BBX 17 16 2 -2
BITMAP
180C00
300600
600300
600300
D80180
D80180
D80180
D80180
D80180
D80180
D80180
DFFB00
600300
600300
300600
180C00
ENDCHAR
STARTCHAR C024463
ENCODING 10547
SWIDTH 2000 0
DWIDTH 20 0
BBX 17 16 2 -2
BITMAP
180C00
300600
600300
600300
DFF980
D80180
D80180
D80180
D80180
D80180
D80180
7FFB00
600300
700300
300600
180C00
ENDCHAR
STARTCHAR C024464
ENCODING 10548
SWIDTH 2000 0
DWIDTH 20 0
BBX 17 16 2 -2
BITMAP
180C00
300600
600700
600300
DFFB00
C01980
C01980
C01980
CFF980
CC0180
CC0180
CFFF00
600300
600300
300600
180C00
ENDCHAR
STARTCHAR C024465
ENCODING 10549
SWIDTH 2000 0
DWIDTH 20 0
BBX 17 16 2 -2
BITMAP
180C00
300600
600300
600300
DFF980
D81980
D81980
D81980
D81980
D81980
D81980
DFFB00
600300
600300
300600
180C00
ENDCHAR
STARTCHAR C024466
ENCODING 10550
SWIDTH 2000 0
DWIDTH 20 0
BBX 17 16 2 -2
BITMAP
180C00
300600
600300
600300
D81980
D81980
D81980
DFF980
D81980
D81980
D81980
DFFB00
600300
600300
300600
180C00
ENDCHAR
STARTCHAR C024467
ENCODING 10551
SWIDTH 2000 0
DWIDTH 20 0
BBX 17 16 2 -2
BITMAP
180C00
300600
600300
618300
C18180
C18180
C18180
C18180
C3C180
C7E180
CE7180
F81F00
600300
600300
300600
180C00
ENDCHAR
STARTCHAR C024470
ENCODING 10552
SWIDTH 2000 0
DWIDTH 20 0
BBX 17 16 2 -2
BITMAP
180C00
300600
600300
67E300
CE7180
DC3180
D81980
D81980
D81980
D81980
CC3180
CE7300
67E300
600300
300600
180C00
ENDCHAR
STARTCHAR C024471
ENCODING 10553
SWIDTH 2000 0
DWIDTH 20 0
BBX 17 16 2 -2
BITMAP
180C00
300600
600300
600300
DFFD80
C18180
C18180
C3C180
C3C180
C66180
DC3980
F81F00
600300
600300
300600
180C00
ENDCHAR
STARTCHAR C024472
ENCODING 10554
SWIDTH 2000 0
DWIDTH 20 0
BBX 17 16 2 -2
BITMAP
180C00
300600
600300
67F300
C00180
DFFD80
C18180
C1C180
C3C180
C76180
CE3980
D80F00
600300
600300
300600
180C00
ENDCHAR
STARTCHAR C024473
ENCODING 10555
SWIDTH 2000 0
DWIDTH 20 0
BBX 17 16 2 -2
BITMAP
180C00
300600
600300
600300
DFF980
C01980
C01980
C0F980
DF9980
C01980
C03180
C03300
600300
600300
300600
180C00
ENDCHAR
STARTCHAR C024474
ENCODING 10556
SWIDTH 2000 0
DWIDTH 20 0
BBX 17 16 2 -2
BITMAP
180C00
300600
600300
600300
DFF980
D80180
D80180
DFF980
D80180
D80180
D80180
DFFB00
600300
600300
300600
180C00
ENDCHAR
STARTCHAR C024475
ENCODING 10557
SWIDTH 2000 0
DWIDTH 20 0
BBX 17 16 2 -2
BITMAP
180C00
300600
600300
600300
DFF980
C00180
C63180
C63180
C66180
C66180
C66180
DFFF00
600300
600300
300600
180C00
ENDCHAR
STARTCHAR C024476
ENCODING 10558
SWIDTH 2000 0
DWIDTH 20 0
BBX 17 16 2 -2
BITMAP
180C00
300600
600300
67E300
C00180
DFFD80
C00180
C3E180
C63180
CC3180
CC3180
C63300
63E300
600300
300600
180C00
ENDCHAR
STARTCHAR C024477
ENCODING 10559
SWIDTH 2000 0
DWIDTH 20 0
BBX 17 16 2 -2
BITMAP
180C00
300600
603300
603300
DFB300
C1B180
C1B180
C33180
C33F80
C63180
CC3180
783180
603300
603300
300600
180C00
ENDCHAR
STARTCHAR C024500
ENCODING 10560
SWIDTH 2000 0
DWIDTH 20 0
BBX 17 16 2 -2
BITMAP
180C00
300600
603300
603300
D83300
D83180
D83180
D83180
D83F80
D83180
DDF180
7F3180
603300
603300
300600
180C00
ENDCHAR
STARTCHAR C024501
ENCODING 10561
SWIDTH 2000 0
DWIDTH 20 0
BBX 17 16 2 -2
BITMAP
180C00
300600
603300
603300
DFF300
D83180
D83180
D83180
D83F80
D83180
DFF180
DC3180
603300
603300
300600
180C00
ENDCHAR
STARTCHAR C024502
ENCODING 10562
SWIDTH 2000 0
DWIDTH 20 0
BBX 17 16 2 -2
BITMAP
180C00
300600
603300
603300
DFB180
C1B180
C1B180
DFB180
D83F80
D83180
D83180
DFF300
603300
603300
300600
180C00
ENDCHAR
STARTCHAR C024503
ENCODING 10563
SWIDTH 2000 0
DWIDTH 20 0
BBX 17 16 2 -2
BITMAP
180C00
300600
603300
603300
DFB300
D9B180
D9B180
D9B180
D9BF80
D9B180
D9B180
7FB180
603300
603300
300600
180C00
ENDCHAR
STARTCHAR C024504
ENCODING 10564
SWIDTH 2000 0
DWIDTH 20 0
BBX 17 16 2 -2
BITMAP
180C00
300600
603300
603300
D9B300
D9B180
D9B180
DFB180
D9BF80
D9B180
D9B180
DFB180
603300
603300
300600
180C00
ENDCHAR
STARTCHAR C024505
ENCODING 10565
SWIDTH 2000 0
DWIDTH 20 0
BBX 17 16 2 -2
BITMAP
180C00
300600
603300
603300
C63300
C63180
C63180
C63180
CF3F80
CF3180
D9B180
79F180
603300
603300
300600
180C00
ENDCHAR
STARTCHAR C024506
ENCODING 10566
SWIDTH 2000 0
DWIDTH 20 0
BBX 17 16 2 -2
BITMAP
180C00
300600
603300
603300
CF3300
DFB180
D9B180
D9B180
D9BF80
D9B180
DFB180
CF3180
603300
603300
300600
180C00
ENDCHAR
STARTCHAR C024507
ENCODING 10567
SWIDTH 2000 0
DWIDTH 20 0
BBX 17 16 2 -2
BITMAP
180C00
300600
603300
603300
FFB300
C63180
C63180
C63180
CF3F80
CF3180
D9B180
71F180
603300
603300
300600
180C00
ENDCHAR
STARTCHAR C024510
ENCODING 10568
SWIDTH 2000 0
DWIDTH 20 0
BBX 17 16 2 -2
BITMAP
180C00
300600
603300
6FB300
C03300
C03180
DFF180
C63180
C73F80
C73180
CFB180
D9F180
60F300
603300
300600
180C00
ENDCHAR
STARTCHAR C024511
ENCODING 10569
SWIDTH 2000 0
DWIDTH 20 0
BBX 17 16 2 -2
BITMAP
180C00
300600
603300
603300
DFB300
C1B180
C1B180
FFB180
C1BF80
C33180
C63180
CC3180
783300
603300
300600
180C00
ENDCHAR
STARTCHAR C024512
ENCODING 10570
SWIDTH 2000 0
DWIDTH 20 0
BBX 17 16 2 -2
BITMAP
180C00
300600
603300
603300
DFF300
D83180
D83180
DFB180
D83F80
D83180
D8F180
DFF180
603300
603300
300600
180C00
ENDCHAR
STARTCHAR C024513
ENCODING 10571
SWIDTH 2000 0
DWIDTH 20 0
BBX 17 16 2 -2
BITMAP
180C00
300600
603300
603300
FFF300
C03180
CDB180
CDB180
CDBF80
CDB180
CFF180
FC3180
603300
603300
300600
180C00
ENDCHAR
STARTCHAR C024514
ENCODING 10572
SWIDTH 2000 0
DWIDTH 20 0
BBX 17 16 2 -2
BITMAP
180C00
300600
603300
6FB300
C03300
FFF180
C03180
C03180
CF3F80
D9B180
D9B180
D9B180
6F3300
603300
300600
180C00
ENDCHAR
STARTCHAR C024515
ENCODING 10573
SWIDTH 2000 0
DWIDTH 20 0
BBX 17 16 2 -2
BITMAP
180C00
300600
600300
600300
C3E180
C73180
C63180
C07180
C7F180
C63180
C63180
C7F300
63DB00
600300
300600
180C00
ENDCHAR
STARTCHAR C024516
ENCODING 10574
SWIDTH 2000 0
DWIDTH 20 0
BBX 17 16 2 -2
BITMAP
180C00
300600
660300
660300
C60180
C7E180
C73180
C61980
C61980
C61980
C61980
C61B00
673300
67E300
300600
180C00
ENDCHAR
STARTCHAR C024517
ENCODING 10575
SWIDTH 2000 0
DWIDTH 20 0
BBX 17 16 2 -2
BITMAP
180C00
300600
600300
600300
C7C180
C66180
CC6180
CC0180
CC0180
CC6180
C66180
C7C300
600300
600300
300600
180C00
ENDCHAR
STARTCHAR C024520
ENCODING 10576
SWIDTH 2000 0
DWIDTH 20 0
BBX 17 16 2 -2
BITMAP
180C00
300600
603300
603300
C03180
C3F180
C67180
CC3180
CC3180
CC3180
CC3180
CC3300
667300
63F300
300600
180C00
ENDCHAR
STARTCHAR C024521
ENCODING 10577
SWIDTH 2000 0
DWIDTH 20 0
BBX 17 16 2 -2
BITMAP
180C00
300600
600300
600300
C3C180
C66180
CC6180
CC3180
CFF180
CC0180
CC3180
C67300
63E300
600300
300600
180C00
ENDCHAR
STARTCHAR C024522
ENCODING 10578
SWIDTH 2000 0
DWIDTH 20 0
BBX 17 16 2 -2
BITMAP
180C00
300600
61E300
618300
C18180
C7E180
C18180
C18180
C18180
C18180
C18180
C18300
618300
618300
300600
180C00
ENDCHAR
STARTCHAR C024523
ENCODING 10579
SWIDTH 2000 0
DWIDTH 20 0
BBX 17 16 2 -2
BITMAP
180C00
300600
63F300
637300
C63180
C63180
C63180
C63180
C63180
C77180
C3F180
C63300
666300
67C300
300600
180C00
ENDCHAR
STARTCHAR C024524
ENCODING 10580
SWIDTH 2000 0
DWIDTH 20 0
BBX 17 16 2 -2
BITMAP
180C00
300600
660300
660300
C60180
C7E180
C77180
C63180
C63180
C63180
C63180
C63300
663300
663300
300600
180C00
ENDCHAR
STARTCHAR C024525
ENCODING 10581
SWIDTH 2000 0
DWIDTH 20 0
BBX 17 16 2 -2
BITMAP
180C00
300600
618300
618300
C00180
C18180
C18180
C18180
C18180
C18180
C18180
C18300
618300
618300
300600
180C00
ENDCHAR
STARTCHAR C024526
ENCODING 10582
SWIDTH 2000 0
DWIDTH 20 0
BBX 17 16 2 -2
BITMAP
180C00
318600
618300
600300
C18180
C18180
C18180
C18180
C18180
C18180
C18180
C18300
618300
618300
378600
180C00
ENDCHAR
STARTCHAR C024527
ENCODING 10583
SWIDTH 2000 0
DWIDTH 20 0
BBX 17 16 2 -2
BITMAP
180C00
300600
660300
660300
C60180
C63180
C6E180
C7C180
C78180
C7C180
C6C180
C66300
666300
663300
300600
180C00
ENDCHAR
STARTCHAR C024530
ENCODING 10584
SWIDTH 2000 0
DWIDTH 20 0
BBX 17 16 2 -2
BITMAP
180C00
300600
618300
618300
C18180
C18180
C18180
C18180
C18180
C18180
C18180
C18300
618300
618300
300600
180C00
ENDCHAR
STARTCHAR C024531
ENCODING 10585
SWIDTH 2000 0
DWIDTH 20 0
BBX 17 16 2 -2
BITMAP
180C00
300600
600300
780300
DFFD80
D9CD80
D98D80
D98D80
D98D80
D98D80
D98D80
D98F00
600300
600300
300600
180C00
ENDCHAR
STARTCHAR C024532
ENCODING 10586
SWIDTH 2000 0
DWIDTH 20 0
BBX 17 16 2 -2
BITMAP
180C00
300600
600300
600300
C7E180
C77180
C63180
C63180
C63180
C63180
C63180
C63300
663300
600300
300600
180C00
ENDCHAR
STARTCHAR C024533
ENCODING 10587
SWIDTH 2000 0
DWIDTH 20 0
BBX 17 16 2 -2
BITMAP
180C00
300600
600300
600300
C3C180
C66180
CC3180
CC3180
CC3180
CC3180
C66180
C3C300
600300
600300
300600
180C00
ENDCHAR
STARTCHAR C024534
ENCODING 10588
SWIDTH 2000 0
DWIDTH 20 0
BBX 17 16 2 -2
BITMAP
180C00
300600
600300
67E300
C73180
C61980
C61980
C61980
C61980
C73180
C7E180
C60300
660300
660300
300600
180C00
ENDCHAR
STARTCHAR C024535
ENCODING 10589
SWIDTH 2000 0
DWIDTH 20 0
BBX 17 16 2 -2
BITMAP
180C00
300600
63F300
667300
CC3180
CC3180
CC3180
CC3180
CC3180
C67180
C3F180
C03300
603300
603300
300600
180C00
ENDCHAR
STARTCHAR C024536
ENCODING 10590
SWIDTH 2000 0
DWIDTH 20 0
BBX 17 16 2 -2
BITMAP
180C00
300600
600300
600300
C3E180
C3C180
C38180
C30180
C30180
C30180
C30180
C30300
630300
600300
300600
180C00
ENDCHAR
STARTCHAR C024537
ENCODING 10591
SWIDTH 2000 0
DWIDTH 20 0
BBX 17 16 2 -2
BITMAP
180C00
300600
600300
63E300
C66180
C60180
C70180
C1E180
C07180
C63180
C67180
C3E300
600300
600300
300600
180C00
ENDCHAR
STARTCHAR C024540
ENCODING 10592
SWIDTH 2000 0
DWIDTH 20 0
BBX 17 16 2 -2
BITMAP
180C00
300600
618300
618300
C18180
C7E180
C18180
C18180
C18180
C18180
C18180
C18300
61E300
600300
300600
180C00
ENDCHAR
STARTCHAR C024541
ENCODING 10593
SWIDTH 2000 0
DWIDTH 20 0
BBX 17 16 2 -2
BITMAP
180C00
300600
600300
600300
C63180
C63180
C63180
C63180
C63180
C63180
C63180
C77300
63F300
600300
300600
180C00
ENDCHAR
STARTCHAR C024542
ENCODING 10594
SWIDTH 2000 0
DWIDTH 20 0
BBX 17 16 2 -2
BITMAP
180C00
300600
600300
600300
C63180
C63180
C66180
C36180
C36180
C3C180
C3C180
C1C300
618300
600300
300600
180C00
ENDCHAR
STARTCHAR C024543
ENCODING 10595
SWIDTH 2000 0
DWIDTH 20 0
BBX 17 16 2 -2
BITMAP
180C00
300600
600300
600300
D98D80
D9CD80
D9D980
DBD980
CFD980
CF7980
CF7180
C67300
667300
660300
300600
180C00
ENDCHAR
STARTCHAR C024544
ENCODING 10596
SWIDTH 2000 0
DWIDTH 20 0
BBX 17 16 2 -2
BITMAP
180C00
300600
600300
600300
C66180
C66180
C3C180
C18180
C18180
C3C180
C36180
C66300
6C3300
600300
300600
180C00
ENDCHAR
STARTCHAR C024545
ENCODING 10597
SWIDTH 2000 0
DWIDTH 20 0
BBX 17 16 2 -2
BITMAP
180C00
300600
600300
663300
C66180
C66180
C36180
C36180
C3C180
C1C180
C1C180
C18300
618300
678300
300600
180C00
ENDCHAR
STARTCHAR C024546
ENCODING 10598
SWIDTH 2000 0
DWIDTH 20 0
BBX 17 16 2 -2
BITMAP
180C00
300600
600300
600300
CFF180
C06180
C0C180
C0C180
C18180
C30180
C60180
CFF300
600300
600300
300600
180C00
ENDCHAR
STARTCHAR C024547
ENCODING 10599
SWIDTH 2000 0
DWIDTH 20 0
BBX 17 16 2 -2
BITMAP
180C00
300600
60C300
60C300
C0C180
C7C180
C0C180
C0C180
C0C180
C0C180
C0C180
C0C300
60C300
60C300
300600
180C00
ENDCHAR
STARTCHAR C024550
ENCODING 10600
SWIDTH 2000 0
DWIDTH 20 0
BBX 17 16 2 -2
BITMAP
180C00
300600
63E300
637300
C63180
C63180
C63180
C07180
C0E180
C1C180
C30180
C60300
660300
6FF300
300600
180C00
ENDCHAR
STARTCHAR C024551
ENCODING 10601
SWIDTH 2000 0
DWIDTH 20 0
BBX 17 16 2 -2
BITMAP
180C00
300600
63E300
677300
C63180
C63180
C07180
C1E180
C03180
C03180
CC3180
CC3300
666300
63C300
300600
180C00
ENDCHAR
STARTCHAR C024552
ENCODING 10602
SWIDTH 2000 0
DWIDTH 20 0
BBX 17 16 2 -2
BITMAP
180C00
300600
60C300
61C300
C1C180
C3C180
C3C180
C6C180
CCC180
CCC180
DFF180
C0C300
60C300
60C300
300600
180C00
ENDCHAR
STARTCHAR C024553
ENCODING 10603
SWIDTH 2000 0
DWIDTH 20 0
BBX 17 16 2 -2
BITMAP
180C00
300600
67F300
660300
C60180
C60180
C7E180
C66180
C03180
C03180
C03180
CC3300
666300
63C300
300600
180C00
ENDCHAR
STARTCHAR C024554
ENCODING 10604
SWIDTH 2000 0
DWIDTH 20 0
BBX 17 16 2 -2
BITMAP
180C00
300600
63C300
666300
C66180
CC0180
CC0180
CFE180
CE7180
CE3180
CC3180
CE3300
666300
63E300
300600
180C00
ENDCHAR
STARTCHAR C024555
ENCODING 10605
SWIDTH 2000 0
DWIDTH 20 0
BBX 17 16 2 -2
BITMAP
180C00
300600
600300
6FFB00
C03180
C06180
C06180
C0C180
C0C180
C18180
C18180
C18300
630300
630300
300600
180C00
ENDCHAR
STARTCHAR C024556
ENCODING 10606
SWIDTH 2000 0
DWIDTH 20 0
BBX 17 16 2 -2
BITMAP
180C00
300600
63E300
677300
C63180
C63180
C77180
C3E180
C67180
CC3180
CC3180
CC3300
6E7300
63C300
300600
180C00
ENDCHAR
STARTCHAR C024557
ENCODING 10607
SWIDTH 2000 0
DWIDTH 20 0
BBX 17 16 2 -2
BITMAP
180C00
300600
63C300
636300
C63180
C63180
C63180
C63180
C37180
C3F180
C03180
CC6300
666300
67C300
300600
180C00
ENDCHAR
STARTCHAR C024560
ENCODING 10608
SWIDTH 2000 0
DWIDTH 20 0
BBX 17 16 2 -2
BITMAP
180C00
300600
6C7B00
6CFF00
FCCD80
CCCD80
CCCD80
CCCD80
CCCD80
CCCD80
CCCD80
CCCF00
6CCF00
6C7B00
3C3600
180C00
ENDCHAR
STARTCHAR C024561
ENCODING 10609
SWIDTH 2000 0
DWIDTH 20 0
BBX 17 16 2 -2
BITMAP
180C00
300600
6C3300
6C3300
FCF180
CC3180
CC3180
CC3180
CC3180
CC3180
CC3180
CC3300
6C3300
6C3300
3C3600
180C00
ENDCHAR
STARTCHAR C024562
ENCODING 10610
SWIDTH 2000 0
DWIDTH 20 0
BBX 17 16 2 -2
BITMAP
180C00
300600
6CF300
6CDB00
FDD980
CD9980
CC3980
CC3180
CC6180
CCC180
CCC180
CD8300
6D8300
6D8300
3DFE00
180C00
ENDCHAR
STARTCHAR C024563
ENCODING 10611
SWIDTH 2000 0
DWIDTH 20 0
BBX 17 16 2 -2
BITMAP
180C00
300600
6CFB00
6CDB00
FCD980
CC1980
CC3180
CC7180
CC1980
CC0D80
CCCD80
CCCF00
6CCF00
6CFB00
3C7600
180C00
ENDCHAR
STARTCHAR C024564
ENCODING 10612
SWIDTH 2000 0
DWIDTH 20 0
BBX 17 16 2 -2
BITMAP
180C00
300600
6C1B00
6C3B00
FC3980
CC7980
CC7980
CC7980
CCD980
CCD980
CCD980
CDFF00
6C1B00
6C1B00
3C1E00
180C00
ENDCHAR
STARTCHAR C024565
ENCODING 10613
SWIDTH 2000 0
DWIDTH 20 0
BBX 17 16 2 -2
BITMAP
180C00
300600
6CFB00
6CC300
FCC180
CCC180
CCF980
CCF980
CCCD80
CCCD80
CC0D80
CC0F00
6CCF00
6CDE00
3C7E00
180C00
ENDCHAR
STARTCHAR C024566
ENCODING 10614
SWIDTH 2000 0
DWIDTH 20 0
BBX 4 9 8 6
BITMAP
30
30
F0
30
30
30
30
30
30
ENDCHAR
STARTCHAR C024567
ENCODING 10615
SWIDTH 2000 0
DWIDTH 20 0
BBX 6 8 7 7
BITMAP
78
CC
CC
1C
38
60
C0
FC
ENDCHAR
STARTCHAR C024570
ENCODING 10616
SWIDTH 2000 0
DWIDTH 20 0
BBX 6 9 7 6
BITMAP
78
CC
CC
1C
38
0C
CC
CC
78
ENDCHAR
STARTCHAR C024571
ENCODING 10617
SWIDTH 2000 0
DWIDTH 20 0
BBX 8 8 7 7
BITMAP
1C
1C
3C
6C
6C
FF
0C
0C
ENDCHAR
STARTCHAR C024572
ENCODING 10618
SWIDTH 2000 0
DWIDTH 20 0
BBX 6 6 7 8
BITMAP
FC
CC
CC
CC
CC
CC
ENDCHAR
STARTCHAR C024573
ENCODING 10619
SWIDTH 2000 0
DWIDTH 20 0
BBX 4 8 8 -2
BITMAP
30
30
F0
30
30
30
30
30
ENDCHAR
STARTCHAR C024574
ENCODING 10620
SWIDTH 2000 0
DWIDTH 20 0
BBX 6 8 7 -2
BITMAP
7C
CC
CC
1C
38
60
C0
FC
ENDCHAR
STARTCHAR C024575
ENCODING 10621
SWIDTH 2000 0
DWIDTH 20 0
BBX 6 8 7 -2
BITMAP
78
CC
0C
38
1C
CC
CC
78
ENDCHAR
STARTCHAR C024576
ENCODING 10622
SWIDTH 2000 0
DWIDTH 20 0
BBX 8 8 7 -2
BITMAP
1C
1C
3C
7C
6C
FF
0C
0C
ENDCHAR
STARTCHAR C024577
ENCODING 10623
SWIDTH 2000 0
DWIDTH 20 0
BBX 0 0 0 0
BITMAP
ENDCHAR
STARTCHAR C025041
ENCODING 10785
SWIDTH 2000 0
DWIDTH 20 0
BBX 10 10 5 -2
BITMAP
1B00
7E00
1B00
1F00
3FC0
7EC0
DCC0
D8C0
F8C0
6380
ENDCHAR
STARTCHAR C025042
ENCODING 10786
SWIDTH 2000 0
DWIDTH 20 0
BBX 14 15 3 -2
BITMAP
0C00
0DC0
FF00
0C00
0CC0
0FE0
1FB0
3D98
6D8C
EF0C
CE0C
C60C
CC18
FE30
00E0
ENDCHAR
STARTCHAR C025043
ENCODING 10787
SWIDTH 2000 0
DWIDTH 20 0
BBX 11 9 5 -2
BITMAP
C000
C000
C180
C0C0
C0C0
C060
6C00
7800
3000
ENDCHAR
STARTCHAR C025044
ENCODING 10788
SWIDTH 2000 0
DWIDTH 20 0
BBX 15 12 3 0
BITMAP
C000
C030
C038
C018
C00C
C00C
C006
6006
6306
6600
3600
3C00
ENDCHAR
STARTCHAR C025045
ENCODING 10789
SWIDTH 2000 0
DWIDTH 20 0
BBX 8 12 6 -2
BITMAP
30
1C
06
1C
76
C3
03
03
06
06
0C
18
ENDCHAR
STARTCHAR C025046
ENCODING 10790
SWIDTH 2000 0
DWIDTH 20 0
BBX 9 16 5 -2
BITMAP
3000
1E00
0300
0000
0E00
7B00
E180
0180
0180
0180
0180
0180
0300
0300
0600
1C00
ENDCHAR
STARTCHAR C025047
ENCODING 10791
SWIDTH 2000 0
DWIDTH 20 0
BBX 10 11 6 -2
BITMAP
1800
0E00
0000
1E00
FC00
1800
1800
3C00
6C00
CC00
C7C0
ENDCHAR
STARTCHAR C025050
ENCODING 10792
SWIDTH 2000 0
DWIDTH 20 0
BBX 13 14 4 -1
BITMAP
0F00
01C0
0000
0180
3F80
6300
0700
0600
0C00
1F00
1B00
3180
6180
C1F8
ENDCHAR
STARTCHAR C025051
ENCODING 10793
SWIDTH 2000 0
DWIDTH 20 0
BBX 11 11 5 -2
BITMAP
1800
1980
1EC0
7C60
1800
1FC0
38C0
78C0
D8C0
78C0
3B80
ENDCHAR
STARTCHAR C025052
ENCODING 10794
SWIDTH 2000 0
DWIDTH 20 0
BBX 14 15 4 -1
BITMAP
1800
1800
1860
1F38
FC1C
180C
1800
1FE0
1C30
3818
7818
F818
F838
F870
79E0
ENDCHAR
STARTCHAR C025053
ENCODING 10795
SWIDTH 2000 0
DWIDTH 20 0
BBX 15 14 3 -1
BITMAP
0C00
0C00
0C30
0F98
FFCC
18CE
18C6
18C6
30C0
30C0
6180
6180
C380
0F00
ENDCHAR
STARTCHAR C025054
ENCODING 10796
SWIDTH 2000 0
DWIDTH 20 0
BBX 16 15 3 -1
BITMAP
0006
0C1B
0C0C
0C30
0F98
FFCC
18CE
18C6
18C6
30C0
30C0
6180
6180
C380
0F00
ENDCHAR
STARTCHAR C025055
ENCODING 10797
SWIDTH 2000 0
DWIDTH 20 0
BBX 10 16 5 -1
BITMAP
1800
1800
0F80
1E00
F600
07C0
0F00
FB00
0380
0180
7FC0
C0C0
C000
C000
E000
3F00
ENDCHAR
STARTCHAR C025056
ENCODING 10798
SWIDTH 2000 0
DWIDTH 20 0
BBX 13 16 5 -1
BITMAP
1800
1818
0FE0
1E30
F600
07C0
0F00
FB00
0380
0180
7FC0
C0C0
C000
C000
E000
3F00
ENDCHAR
STARTCHAR C025057
ENCODING 10799
SWIDTH 2000 0
DWIDTH 20 0
BBX 6 16 7 -2
BITMAP
0C
0C
18
30
70
60
C0
C0
C0
E0
60
30
38
18
0C
0C
ENDCHAR
STARTCHAR C025060
ENCODING 10800
SWIDTH 2000 0
DWIDTH 20 0
BBX 11 16 6 -2
BITMAP
0600
0E00
0CC0
1860
3180
30C0
6000
C000
E000
6000
3000
1800
1800
0C00
0E00
0600
ENDCHAR
STARTCHAR C025061
ENCODING 10801
SWIDTH 2000 0
DWIDTH 20 0
BBX 14 16 4 -2
BITMAP
0060
6060
6060
C07C
CFF0
C060
C060
C060
C060
C060
F060
E0E0
E0C0
60C0
6180
0300
ENDCHAR
STARTCHAR C025062
ENCODING 10802
SWIDTH 2000 0
DWIDTH 20 0
BBX 15 17 4 -2
BITMAP
000C
007E
6078
606C
C07C
CFF0
C060
C060
C060
C060
C060
F060
E0E0
E0C0
60C0
6180
0300
ENDCHAR
STARTCHAR C025063
ENCODING 10803
SWIDTH 2000 0
DWIDTH 20 0
BBX 12 13 4 0
BITMAP
6000
3FC0
0000
0000
0000
0000
0000
0000
0000
0000
E000
7870
0FE0
ENDCHAR
STARTCHAR C025064
ENCODING 10804
SWIDTH 2000 0
DWIDTH 20 0
BBX 15 13 4 0
BITMAP
6000
3FC0
000C
001E
0000
0000
0000
0000
0000
0000
E000
7870
0FE0
ENDCHAR
STARTCHAR C025065
ENCODING 10805
SWIDTH 2000 0
DWIDTH 20 0
BBX 11 14 5 -1
BITMAP
0C00
0C60
07C0
FE00
0300
0300
0180
3FC0
E3C0
C0E0
C000
C000
E000
3F80
ENDCHAR
STARTCHAR C025066
ENCODING 10806
SWIDTH 2000 0
DWIDTH 20 0
BBX 14 15 5 -1
BITMAP
0C0C
0C30
0EE0
0F80
FF00
0300
0180
0180
7FC0
C1E0
C060
C000
C000
6000
3F00
ENDCHAR
STARTCHAR C025067
ENCODING 10807
SWIDTH 2000 0
DWIDTH 20 0
BBX 11 15 5 -1
BITMAP
6000
C000
C000
C000
C000
C000
C000
C000
C000
C000
C060
C060
C0C0
6180
7F00
ENDCHAR
STARTCHAR C025070
ENCODING 10808
SWIDTH 2000 0
DWIDTH 20 0
BBX 11 15 5 -1
BITMAP
6000
C180
C3C0
C1E0
C000
C000
C000
C000
C000
C000
C060
C060
C0C0
6180
7F00
ENDCHAR
STARTCHAR C025071
ENCODING 10809
SWIDTH 2000 0
DWIDTH 20 0
BBX 16 16 2 -2
BITMAP
00C0
00C0
00C0
FFFF
00C0
00C0
07C0
0CC0
0CC0
0CC0
0FC0
07C0
00C0
0180
0380
0700
ENDCHAR
STARTCHAR C025072
ENCODING 10810
SWIDTH 2000 0
DWIDTH 20 0
BBX 16 17 2 -2
BITMAP
0007
00CC
00C6
00C0
FFFF
00C0
00C0
07C0
0CC0
0CC0
0CC0
0FC0
07C0
00C0
0180
0380
0700
ENDCHAR
STARTCHAR C025073
ENCODING 10811
SWIDTH 2000 0
DWIDTH 20 0
BBX 16 14 2 -1
BITMAP
0C30
0C30
0C30
0C30
1FFF
FC30
0C30
0C30
0C60
0DE0
0C00
0C00
0E00
07FC
ENDCHAR
STARTCHAR C025074
ENCODING 10812
SWIDTH 2000 0
DWIDTH 20 0
BBX 17 15 2 -1
BITMAP
000300
0C3180
0C3600
0C3300
0C3000
3FFF00
FC3000
0C3000
0C3000
0C6000
0DE000
0C0000
0C0000
0E0000
07FC00
ENDCHAR
STARTCHAR C025075
ENCODING 10813
SWIDTH 2000 0
DWIDTH 20 0
BBX 14 15 3 -2
BITMAP
1860
0CE0
0CC0
0180
0180
07FC
7EC0
E180
0300
0600
0600
0600
0700
0380
00F0
ENDCHAR
STARTCHAR C025076
ENCODING 10814
SWIDTH 2000 0
DWIDTH 20 0
BBX 16 15 3 -2
BITMAP
1866
0CEF
0ECC
0180
0180
07FC
7EC0
E180
0300
0600
0600
0600
0700
0380
00F0
ENDCHAR
STARTCHAR C025077
ENCODING 10815
SWIDTH 2000 0
DWIDTH 20 0
BBX 14 15 4 -1
BITMAP
1800
1800
1800
1800
FF00
F800
1BF8
3000
3000
3000
3000
6000
6000
E780
C0FC
ENDCHAR
STARTCHAR C025100
ENCODING 10816
SWIDTH 2000 0
DWIDTH 20 0
BBX 15 15 4 -1
BITMAP
1800
180C
1836
1818
FF00
F800
1BF8
3000
3000
3000
3000
6000
6000
E780
C0F8
ENDCHAR
STARTCHAR C025101
ENCODING 10817
SWIDTH 2000 0
DWIDTH 20 0
BBX 13 15 4 -1
BITMAP
1800
1800
18C0
FF80
1800
1800
1800
1BF0
3E38
3818
3018
0018
0018
0030
0FE0
ENDCHAR
STARTCHAR C025102
ENCODING 10818
SWIDTH 2000 0
DWIDTH 20 0
BBX 14 15 4 -1
BITMAP
1800
1818
18FC
FF98
1800
1800
1800
1BF0
3E38
3818
3018
0018
0018
0030
0FE0
ENDCHAR
STARTCHAR C025103
ENCODING 10819
SWIDTH 2000 0
DWIDTH 20 0
BBX 9 8 6 -2
BITMAP
1F00
F180
0180
0180
0180
0180
0300
1E00
ENDCHAR
STARTCHAR C025104
ENCODING 10820
SWIDTH 2000 0
DWIDTH 20 0
BBX 14 11 3 0
BITMAP
0FF0
7838
C00C
000C
000C
000C
000C
001C
0038
0070
07C0
ENDCHAR
STARTCHAR C025105
ENCODING 10821
SWIDTH 2000 0
DWIDTH 20 0
BBX 16 14 3 0
BITMAP
0006
001B
000C
0FF6
F818
C00C
000C
000C
000C
000C
001C
0038
00F0
0780
ENDCHAR
STARTCHAR C025106
ENCODING 10822
SWIDTH 2000 0
DWIDTH 20 0
BBX 14 14 3 -1
BITMAP
00FC
3FE0
F180
0180
0300
0300
0600
0600
0600
0600
0300
0300
0180
00F8
ENDCHAR
STARTCHAR C025107
ENCODING 10823
SWIDTH 2000 0
DWIDTH 20 0
BBX 16 14 3 -1
BITMAP
00FC
3FE0
F180
0386
031B
030C
0600
0600
0600
0600
0300
0300
0180
00F8
ENDCHAR
STARTCHAR C025110
ENCODING 10824
SWIDTH 2000 0
DWIDTH 20 0
BBX 10 14 5 -1
BITMAP
3000
3000
30C0
1BC0
1F00
1C00
3800
6000
C000
C000
C000
C000
6000
3FC0
ENDCHAR
STARTCHAR C025111
ENCODING 10825
SWIDTH 2000 0
DWIDTH 20 0
BBX 13 15 5 -1
BITMAP
0030
3078
3030
30C0
1BC0
1F00
1C00
3000
6000
C000
C000
C000
C000
60C0
3FC0
ENDCHAR
STARTCHAR C025112
ENCODING 10826
SWIDTH 2000 0
DWIDTH 20 0
BBX 14 16 3 -2
BITMAP
0C00
0C00
0C00
FF18
180C
18CC
18C0
30C0
30C0
60C0
C0C0
03C0
0EF0
0CD8
0CC0
0780
ENDCHAR
STARTCHAR C025113
ENCODING 10827
SWIDTH 2000 0
DWIDTH 20 0
BBX 14 13 4 -1
BITMAP
6000
67F8
6000
C000
C000
C000
C000
C000
F000
E600
E7FC
6060
6000
ENDCHAR
STARTCHAR C025114
ENCODING 10828
SWIDTH 2000 0
DWIDTH 20 0
BBX 15 14 3 -1
BITMAP
0300
0300
63C0
6FF0
3B18
330C
730C
7E0C
DE0C
CC0C
DFFC
D99C
71BE
00E0
ENDCHAR
STARTCHAR C025115
ENCODING 10829
SWIDTH 2000 0
DWIDTH 20 0
BBX 16 16 3 -2
BITMAP
1800
1800
1800
1C00
3DF8
FB1C
1E0C
1C0C
380C
380C
780C
F9FC
F99E
39BB
30E0
3000
ENDCHAR
STARTCHAR C025116
ENCODING 10830
SWIDTH 2000 0
DWIDTH 20 0
BBX 15 13 3 -1
BITMAP
07E0
1DB8
338C
630E
C306
C306
C606
C606
CE0C
CC0C
7C18
3870
0060
ENDCHAR
STARTCHAR C025117
ENCODING 10831
SWIDTH 2000 0
DWIDTH 20 0
BBX 15 16 3 -2
BITMAP
0060
6060
6060
6066
C7FC
C030
C030
C030
C030
C030
C1F0
F3FC
E63E
E330
61E0
6000
ENDCHAR
STARTCHAR C025120
ENCODING 10832
SWIDTH 2000 0
DWIDTH 20 0
BBX 16 16 3 -2
BITMAP
0006
606F
6066
606C
C7F8
C060
C060
C060
C060
C070
C3F0
F7FC
E63E
E760
63C0
6000
ENDCHAR
STARTCHAR C025121
ENCODING 10833
SWIDTH 2000 0
DWIDTH 20 0
BBX 16 17 3 -2
BITMAP
001E
007B
607B
606E
6066
C7FC
C030
C030
C030
C030
C030
C1F0
F3FC
E63E
E670
63C0
6000
ENDCHAR
STARTCHAR C025122
ENCODING 10834
SWIDTH 2000 0
DWIDTH 20 0
BBX 15 14 3 -1
BITMAP
0C60
7C70
D830
3038
303C
603E
6030
6060
C060
C060
6060
60C0
3180
1F00
ENDCHAR
STARTCHAR C025123
ENCODING 10835
SWIDTH 2000 0
DWIDTH 20 0
BBX 16 15 3 -1
BITMAP
0006
0C7B
7C7C
D836
3038
303C
603E
6060
6060
C060
C060
6060
60C0
3180
1F00
ENDCHAR
STARTCHAR C025124
ENCODING 10836
SWIDTH 2000 0
DWIDTH 20 0
BBX 16 15 3 -1
BITMAP
000F
0C6F
7C7F
D83F
3038
303C
603E
6030
6060
C060
C060
6060
60C0
3180
1F00
ENDCHAR
STARTCHAR C025125
ENCODING 10837
SWIDTH 2000 0
DWIDTH 20 0
BBX 16 14 2 -1
BITMAP
0380
00C0
0000
0000
0300
0300
0300
0380
018C
00C6
CCE3
7863
73C0
0180
ENDCHAR
STARTCHAR C025126
ENCODING 10838
SWIDTH 2000 0
DWIDTH 20 0
BBX 16 14 2 -1
BITMAP
0380
00C0
0006
001B
030C
0300
0300
0380
018C
00C6
CCE3
7863
73C0
0180
ENDCHAR
STARTCHAR C025127
ENCODING 10839
SWIDTH 2000 0
DWIDTH 20 0
BBX 16 14 2 -1
BITMAP
0380
00C0
001F
001B
031F
0300
0300
0380
018C
00C6
CCE3
7863
73C0
0180
ENDCHAR
STARTCHAR C025130
ENCODING 10840
SWIDTH 2000 0
DWIDTH 20 0
BBX 16 8 2 2
BITMAP
0600
0F80
19C0
30E0
6030
C01C
000E
0003
ENDCHAR
STARTCHAR C025131
ENCODING 10841
SWIDTH 2000 0
DWIDTH 20 0
BBX 16 9 2 2
BITMAP
000C
0606
0F98
19CC
30E0
6030
C01C
000E
0003
ENDCHAR
STARTCHAR C025132
ENCODING 10842
SWIDTH 2000 0
DWIDTH 20 0
BBX 16 9 2 2
BITMAP
001E
061E
0F9E
19DE
30E0
6030
C018
000E
0003
ENDCHAR
STARTCHAR C025133
ENCODING 10843
SWIDTH 2000 0
DWIDTH 20 0
BBX 14 15 3 -2
BITMAP
600C
67F8
6060
C060
C06C
C7F8
C060
C060
C060
F060
E3E0
E638
E66C
63C0
6000
ENDCHAR
STARTCHAR C025134
ENCODING 10844
SWIDTH 2000 0
DWIDTH 20 0
BBX 16 16 3 -2
BITMAP
0018
6FF8
60C0
60CF
C0C6
C0D8
CFF0
C0C0
C0C0
C0C0
F0C0
E7C0
EC70
ECD8
6FC0
6300
ENDCHAR
STARTCHAR C025135
ENCODING 10845
SWIDTH 2000 0
DWIDTH 20 0
BBX 16 16 3 -2
BITMAP
0018
6FF8
60C6
60CF
C0CF
C0C6
CFF0
C0C0
C0C0
C0C0
F0C0
E7C0
EC70
ECD8
6FC0
6300
ENDCHAR
STARTCHAR C025136
ENCODING 10846
SWIDTH 2000 0
DWIDTH 20 0
BBX 10 15 5 -1
BITMAP
0C00
0C00
0C00
FFC0
0C00
0C00
0CC0
FF80
0C00
0C00
0C00
7C00
C780
CDC0
FC00
ENDCHAR
STARTCHAR C025137
ENCODING 10847
SWIDTH 2000 0
DWIDTH 20 0
BBX 15 13 3 -1
BITMAP
1F80
0180
0300
0330
0630
0630
3FF0
6C70
DC3C
D866
F0C0
F0C0
0180
ENDCHAR
STARTCHAR C025140
ENCODING 10848
SWIDTH 2000 0
DWIDTH 20 0
BBX 15 15 3 -1
BITMAP
0C00
0C00
0C00
FF18
0C0C
1806
7800
7C00
CC00
DC00
D818
7818
1818
1C30
0FE0
ENDCHAR
STARTCHAR C025141
ENCODING 10849
SWIDTH 2000 0
DWIDTH 20 0
BBX 14 14 3 -1
BITMAP
0180
6180
6180
67E0
3DB8
3B18
7B0C
FE0C
CE0C
CC0C
CE0C
FE18
E030
01E0
ENDCHAR
STARTCHAR C025142
ENCODING 10850
SWIDTH 2000 0
DWIDTH 20 0
BBX 11 15 5 -1
BITMAP
1800
1800
1800
D800
7F00
3000
3000
30C0
FF60
3060
3060
3060
3060
18C0
0F80
ENDCHAR
STARTCHAR C025143
ENCODING 10851
SWIDTH 2000 0
DWIDTH 20 0
BBX 11 9 5 -1
BITMAP
6C00
67C0
7E60
7060
F0C0
1F80
1800
0C00
0C00
ENDCHAR
STARTCHAR C025144
ENCODING 10852
SWIDTH 2000 0
DWIDTH 20 0
BBX 16 16 2 -2
BITMAP
0300
0180
30C0
301C
18F6
1B83
0E03
3C03
E606
06FC
0700
0300
0300
0180
0180
0180
ENDCHAR
STARTCHAR C025145
ENCODING 10853
SWIDTH 2000 0
DWIDTH 20 0
BBX 10 11 5 -2
BITMAP
0600
0600
C780
DFC0
F3C0
E6C0
FEC0
CEC0
C780
0C00
0C00
ENDCHAR
STARTCHAR C025146
ENCODING 10854
SWIDTH 2000 0
DWIDTH 20 0
BBX 14 15 3 -1
BITMAP
0180
60C0
60C0
61F8
67CC
CCCC
D8CC
F0CC
F0CC
E6CC
E7CC
63B8
61E0
6300
0700
ENDCHAR
STARTCHAR C025147
ENCODING 10855
SWIDTH 2000 0
DWIDTH 20 0
BBX 8 11 6 -2
BITMAP
18
18
18
1F
18
18
18
18
FE
DB
F0
ENDCHAR
STARTCHAR C025150
ENCODING 10856
SWIDTH 2000 0
DWIDTH 20 0
BBX 12 15 4 -1
BITMAP
0600
0600
0600
0600
07E0
0600
0600
0600
0600
0600
3E00
E780
C6E0
C670
7C00
ENDCHAR
STARTCHAR C025151
ENCODING 10857
SWIDTH 2000 0
DWIDTH 20 0
BBX 11 15 5 -1
BITMAP
3000
1800
0C00
C000
C000
C000
C000
CF80
F8C0
E060
C060
0060
00C0
0180
1F00
ENDCHAR
STARTCHAR C025152
ENCODING 10858
SWIDTH 2000 0
DWIDTH 20 0
BBX 9 16 6 -2
BITMAP
6300
6300
C300
C180
C180
C180
F180
E180
E180
E300
6300
0300
0300
0600
0600
0C00
ENDCHAR
STARTCHAR C025153
ENCODING 10859
SWIDTH 2000 0
DWIDTH 20 0
BBX 12 15 4 -2
BITMAP
3F80
7300
0700
0E00
0C00
1F80
3CE0
7030
E030
C030
1E30
3370
19E0
1FC0
0600
ENDCHAR
STARTCHAR C025154
ENCODING 10860
SWIDTH 2000 0
DWIDTH 20 0
BBX 16 16 3 -2
BITMAP
1800
1800
1800
1800
1DF0
FF30
1E30
1C30
3830
3830
7830
7833
D836
183E
1818
1800
ENDCHAR
STARTCHAR C025155
ENCODING 10861
SWIDTH 2000 0
DWIDTH 20 0
BBX 13 14 3 -1
BITMAP
07C0
1D80
0380
0300
0600
0C00
1FF0
3838
7018
C018
0018
0030
0070
03C0
ENDCHAR
STARTCHAR C025156
ENCODING 10862
SWIDTH 2000 0
DWIDTH 20 0
BBX 12 11 4 -2
BITMAP
1800
1800
1C00
7BE0
1E60
1830
3830
7830
D860
19C0
1800
ENDCHAR
STARTCHAR C025157
ENCODING 10863
SWIDTH 2000 0
DWIDTH 20 0
BBX 14 16 3 -2
BITMAP
1800
1800
1800
1800
3C00
F9F0
1F18
1C0C
380C
380C
780C
780C
D818
1830
19E0
1800
ENDCHAR
STARTCHAR C025160
ENCODING 10864
SWIDTH 2000 0
DWIDTH 20 0
BBX 14 14 3 -1
BITMAP
0F80
3B00
0300
0300
07C0
1E70
3E18
6C18
6C1C
CC0C
DB98
DEF8
F730
63E0
ENDCHAR
STARTCHAR C025161
ENCODING 10865
SWIDTH 2000 0
DWIDTH 20 0
BBX 14 15 3 -2
BITMAP
03E0
1EC0
0180
0300
07F0
0E18
1818
3798
07B8
07F0
1CF8
3D9C
670C
C30C
0300
ENDCHAR
STARTCHAR C025162
ENCODING 10866
SWIDTH 2000 0
DWIDTH 20 0
BBX 14 15 3 -1
BITMAP
0600
0C00
0FC0
7F00
1800
1800
3F0C
31B8
61E0
C380
0F80
1980
1980
1800
0FF0
ENDCHAR
STARTCHAR C025163
ENCODING 10867
SWIDTH 2000 0
DWIDTH 20 0
BBX 15 15 3 -1
BITMAP
0300
0300
0600
0600
0C00
0C00
1800
1800
3F80
3980
3186
718E
60CC
E0D8
C070
ENDCHAR
STARTCHAR C025441
ENCODING 11041
SWIDTH 2000 0
DWIDTH 20 0
BBX 10 9 5 -2
BITMAP
FFC0
0CC0
0D80
0F00
0C00
1800
1800
3000
6000
ENDCHAR
STARTCHAR C025442
ENCODING 11042
SWIDTH 2000 0
DWIDTH 20 0
BBX 14 13 3 -1
BITMAP
FFFC
0018
0618
0630
06E0
0600
0600
0600
0C00
0C00
1800
3800
6000
ENDCHAR
STARTCHAR C025443
ENCODING 11043
SWIDTH 2000 0
DWIDTH 20 0
BBX 7 10 6 -2
BITMAP
06
0C
18
38
F8
18
18
18
18
18
ENDCHAR
STARTCHAR C025444
ENCODING 11044
SWIDTH 2000 0
DWIDTH 20 0
BBX 12 15 3 -1
BITMAP
0030
0030
0060
00C0
0180
0700
0F00
7B00
C300
0300
0300
0300
0300
0300
0300
ENDCHAR
STARTCHAR C025445
ENCODING 11045
SWIDTH 2000 0
DWIDTH 20 0
BBX 9 10 6 -1
BITMAP
1800
1800
FF80
C180
C300
C300
0300
0600
0600
0C00
ENDCHAR
STARTCHAR C025446
ENCODING 11046
SWIDTH 2000 0
DWIDTH 20 0
BBX 12 15 4 -1
BITMAP
0600
0600
0600
FFF0
C030
C030
C030
C030
C060
0060
00E0
00C0
0180
0300
0E00
ENDCHAR
STARTCHAR C025447
ENCODING 11047
SWIDTH 2000 0
DWIDTH 20 0
BBX 10 7 5 -2
BITMAP
FFC0
0C00
0C00
0C00
0C00
0C00
FFC0
ENDCHAR
STARTCHAR C025450
ENCODING 11048
SWIDTH 2000 0
DWIDTH 20 0
BBX 14 10 3 1
BITMAP
7FF8
0300
0300
0300
0300
0300
0300
0300
0300
FFFC
ENDCHAR
STARTCHAR C025451
ENCODING 11049
SWIDTH 2000 0
DWIDTH 20 0
BBX 10 10 5 -2
BITMAP
0600
0600
FFC0
0E00
1E00
1E00
3600
6600
0600
1E00
ENDCHAR
STARTCHAR C025452
ENCODING 11050
SWIDTH 2000 0
DWIDTH 20 0
BBX 14 14 3 -1
BITMAP
00C0
00C0
00C0
FFFC
01C0
03C0
03C0
06C0
0CC0
18C0
30C0
60C0
00C0
0780
ENDCHAR
STARTCHAR C025453
ENCODING 11051
SWIDTH 2000 0
DWIDTH 20 0
BBX 12 15 4 -1
BITMAP
0600
0600
0600
0600
FFF0
0630
0630
0630
0C30
0C30
1830
3830
7060
C060
07C0
ENDCHAR
STARTCHAR C025454
ENCODING 11052
SWIDTH 2000 0
DWIDTH 20 0
BBX 15 15 4 -1
BITMAP
060C
0636
0618
060C
FFF0
0630
0630
0630
0C30
0C30
1830
3830
7060
C060
07C0
ENDCHAR
STARTCHAR C025455
ENCODING 11053
SWIDTH 2000 0
DWIDTH 20 0
BBX 14 16 3 -2
BITMAP
0600
0600
0700
0378
7FC0
0300
0300
0300
07FC
FF00
0180
0180
0180
0180
0180
0180
ENDCHAR
STARTCHAR C025456
ENCODING 11054
SWIDTH 2000 0
DWIDTH 20 0
BBX 16 17 3 -2
BITMAP
0006
061B
060C
0700
0378
7FC0
0300
0300
0300
07FC
FF00
0180
0180
0180
0180
0180
0180
ENDCHAR
STARTCHAR C025457
ENCODING 11055
SWIDTH 2000 0
DWIDTH 20 0
BBX 12 15 3 -2
BITMAP
0300
0700
0600
0FF0
1C70
1860
7060
E0C0
00C0
0180
0300
0600
0C00
3800
7000
ENDCHAR
STARTCHAR C025460
ENCODING 11056
SWIDTH 2000 0
DWIDTH 20 0
BBX 15 16 4 -2
BITMAP
030C
0606
060C
0FE0
1C60
3860
7060
E0C0
01C0
0180
0300
0600
0C00
3800
E000
C000
ENDCHAR
STARTCHAR C025461
ENCODING 11057
SWIDTH 2000 0
DWIDTH 20 0
BBX 15 15 3 -2
BITMAP
0600
0C00
0C00
0C00
1FFE
38C0
30C0
60C0
C180
0180
0180
0300
0600
0E00
1C00
ENDCHAR
STARTCHAR C025462
ENCODING 11058
SWIDTH 2000 0
DWIDTH 20 0
BBX 16 16 3 -2
BITMAP
0006
0603
0C0C
0C06
0C00
1FFE
38C0
30C0
60C0
C180
0180
0180
0300
0600
0E00
1C00
ENDCHAR
STARTCHAR C025463
ENCODING 11059
SWIDTH 2000 0
DWIDTH 20 0
BBX 11 11 4 0
BITMAP
FFE0
0060
0060
0060
0060
0060
0060
0060
0060
FFE0
0060
ENDCHAR
STARTCHAR C025464
ENCODING 11060
SWIDTH 2000 0
DWIDTH 20 0
BBX 15 15 4 0
BITMAP
000C
0006
0018
000C
FFE0
0060
0060
0060
0060
0060
0060
0060
0060
FFE0
0060
ENDCHAR
STARTCHAR C025465
ENCODING 11061
SWIDTH 2000 0
DWIDTH 20 0
BBX 16 15 2 -2
BITMAP
0C30
0C30
0C30
0C30
FFFF
0C30
0C30
0C30
0C30
0C60
0060
00C0
00C0
0380
0700
ENDCHAR
STARTCHAR C025466
ENCODING 11062
SWIDTH 2000 0
DWIDTH 20 0
BBX 16 16 3 -2
BITMAP
0006
1863
186C
1860
1860
FFFE
1860
1860
1860
1860
18C0
00C0
0180
0180
0700
0E00
ENDCHAR
STARTCHAR C025467
ENCODING 11063
SWIDTH 2000 0
DWIDTH 20 0
BBX 14 12 4 0
BITMAP
3800
1C00
0000
C000
701C
3038
0070
00E0
01C0
0700
1E00
7800
ENDCHAR
STARTCHAR C025470
ENCODING 11064
SWIDTH 2000 0
DWIDTH 20 0
BBX 14 13 4 0
BITMAP
3030
18D8
0C60
0000
C000
701C
3038
0070
00E0
01C0
0700
1E00
7800
ENDCHAR
STARTCHAR C025471
ENCODING 11065
SWIDTH 2000 0
DWIDTH 20 0
BBX 14 12 3 -1
BITMAP
7FF0
0060
0060
0060
00C0
0180
01C0
0360
0E30
1C18
700C
C000
ENDCHAR
STARTCHAR C025472
ENCODING 11066
SWIDTH 2000 0
DWIDTH 20 0
BBX 16 15 3 -1
BITMAP
0003
000C
0006
7FF0
0060
0060
0060
00C0
0180
01C0
0360
0E30
1C18
700C
C000
ENDCHAR
STARTCHAR C025473
ENCODING 11067
SWIDTH 2000 0
DWIDTH 20 0
BBX 14 13 3 0
BITMAP
0C00
0C00
0C00
0C7C
0FD8
FC18
0C30
0C70
0CE0
0C00
0C00
0C0C
07FC
ENDCHAR
STARTCHAR C025474
ENCODING 11068
SWIDTH 2000 0
DWIDTH 20 0
BBX 16 14 3 0
BITMAP
0C06
0C1B
0C0C
0C00
0DF8
3F18
FC18
0C30
0C60
0CC0
0C00
0C00
0C0C
07FC
ENDCHAR
STARTCHAR C025475
ENCODING 11069
SWIDTH 2000 0
DWIDTH 20 0
BBX 12 14 4 -1
BITMAP
0030
C030
6030
7030
3060
3060
00C0
00C0
0180
0180
0300
0600
0C00
3800
ENDCHAR
STARTCHAR C025476
ENCODING 11070
SWIDTH 2000 0
DWIDTH 20 0
BBX 15 16 4 -1
BITMAP
0006
0018
003C
C030
6030
6030
3060
3060
00C0
00C0
0180
0180
0300
0600
0C00
3800
ENDCHAR
STARTCHAR C025477
ENCODING 11071
SWIDTH 2000 0
DWIDTH 20 0
BBX 12 16 4 -2
BITMAP
0600
0600
0E00
0FF0
1870
3860
7060
C6C0
03C0
0180
0300
0700
0E00
1C00
7000
C000
ENDCHAR
STARTCHAR C025500
ENCODING 11072
SWIDTH 2000 0
DWIDTH 20 0
BBX 15 16 4 -2
BITMAP
0600
061E
0E0C
0FF0
1870
3860
7060
C6C0
03C0
0180
0300
0700
0E00
1C00
7000
E000
ENDCHAR
STARTCHAR C025501
ENCODING 11073
SWIDTH 2000 0
DWIDTH 20 0
BBX 15 14 3 -1
BITMAP
0030
01E0
3F80
0180
0180
FFFE
0180
0180
0300
0300
0300
0600
0C00
3800
ENDCHAR
STARTCHAR C025502
ENCODING 11074
SWIDTH 2000 0
DWIDTH 20 0
BBX 16 14 3 -1
BITMAP
0036
01EF
3F86
0180
0180
FFFE
0180
0180
0300
0300
0300
0600
0C00
3800
ENDCHAR
STARTCHAR C025503
ENCODING 11075
SWIDTH 2000 0
DWIDTH 20 0
BBX 9 9 6 -2
BITMAP
1980
D980
C180
0300
0300
0600
0C00
1800
3000
ENDCHAR
STARTCHAR C025504
ENCODING 11076
SWIDTH 2000 0
DWIDTH 20 0
BBX 14 14 3 -1
BITMAP
0600
C60C
6318
7318
3318
3018
0030
0030
0060
00E0
00C0
0180
0700
0E00
ENDCHAR
STARTCHAR C025505
ENCODING 11077
SWIDTH 2000 0
DWIDTH 20 0
BBX 16 16 3 -1
BITMAP
0006
000F
0606
C600
6300
7318
3318
3018
0030
0030
0060
00E0
00C0
0180
0700
0E00
ENDCHAR
STARTCHAR C025506
ENCODING 11078
SWIDTH 2000 0
DWIDTH 20 0
BBX 15 14 3 -2
BITMAP
3FF0
0000
0000
0000
FFFE
0180
0180
0180
0180
0300
0300
0600
0C00
1800
ENDCHAR
STARTCHAR C025507
ENCODING 11079
SWIDTH 2000 0
DWIDTH 20 0
BBX 16 15 3 -2
BITMAP
0006
3FFF
0006
0000
0000
FFFC
0300
0300
0300
0300
0600
0600
0C00
1800
3000
ENDCHAR
STARTCHAR C025510
ENCODING 11080
SWIDTH 2000 0
DWIDTH 20 0
BBX 6 15 8 -2
BITMAP
C0
C0
C0
C0
C0
F0
D8
CC
CC
C0
C0
C0
C0
C0
C0
ENDCHAR
STARTCHAR C025511
ENCODING 11081
SWIDTH 2000 0
DWIDTH 20 0
BBX 8 15 8 -2
BITMAP
03
C0
C6
C0
C0
F0
D8
CC
CC
C0
C0
C0
C0
C0
C0
ENDCHAR
STARTCHAR C025512
ENCODING 11082
SWIDTH 2000 0
DWIDTH 20 0
BBX 15 16 3 -2
BITMAP
0180
0180
0180
0180
0180
FFFE
0180
0180
0180
0180
0300
0300
0600
0E00
1C00
3000
ENDCHAR
STARTCHAR C025513
ENCODING 11083
SWIDTH 2000 0
DWIDTH 20 0
BBX 14 10 3 1
BITMAP
3FF0
0000
0000
0000
0000
0000
0000
0000
0000
FFFC
ENDCHAR
STARTCHAR C025514
ENCODING 11084
SWIDTH 2000 0
DWIDTH 20 0
BBX 12 13 4 -1
BITMAP
7FE0
0060
0060
00C0
1CC0
0F80
0380
03C0
0760
0E30
1C00
3800
E000
ENDCHAR
STARTCHAR C025515
ENCODING 11085
SWIDTH 2000 0
DWIDTH 20 0
BBX 13 16 4 -2
BITMAP
0300
0300
0300
7FE0
0060
00E0
01C0
0380
0760
1F30
7318
C300
0300
0300
0300
0300
ENDCHAR
STARTCHAR C025516
ENCODING 11086
SWIDTH 2000 0
DWIDTH 20 0
BBX 11 14 4 -1
BITMAP
0060
0060
00E0
00C0
00C0
0180
0180
0300
0600
0600
0C00
1800
7000
C000
ENDCHAR
STARTCHAR C025517
ENCODING 11087
SWIDTH 2000 0
DWIDTH 20 0
BBX 16 10 2 1
BITMAP
0630
0638
0618
0C0C
0C0C
180E
1806
3006
7003
E003
ENDCHAR
STARTCHAR C025520
ENCODING 11088
SWIDTH 2000 0
DWIDTH 20 0
BBX 17 12 2 1
BITMAP
000300
000780
063300
063800
061800
0C0C00
0C0C00
180E00
180600
300600
700300
E00300
ENDCHAR
STARTCHAR C025521
ENCODING 11089
SWIDTH 2000 0
DWIDTH 20 0
BBX 16 12 2 1
BITMAP
000F
000F
0637
0638
0618
0C1C
0C0C
180E
1806
3006
7003
E003
ENDCHAR
STARTCHAR C025522
ENCODING 11090
SWIDTH 2000 0
DWIDTH 20 0
BBX 11 13 6 0
BITMAP
C000
C000
C000
C180
C700
FC00
C000
C000
C000
C000
C000
C000
7FE0
ENDCHAR
STARTCHAR C025523
ENCODING 11091
SWIDTH 2000 0
DWIDTH 20 0
BBX 13 15 6 0
BITMAP
0030
0018
C060
C030
C000
C180
CF00
FC00
C000
C000
C000
C000
C000
C000
7FE0
ENDCHAR
STARTCHAR C025524
ENCODING 11092
SWIDTH 2000 0
DWIDTH 20 0
BBX 13 15 6 0
BITMAP
0070
00D8
C0D8
C070
C000
C180
CF00
FC00
C000
C000
C000
C000
C000
C000
7FE0
ENDCHAR
STARTCHAR C025525
ENCODING 11093
SWIDTH 2000 0
DWIDTH 20 0
BBX 12 13 4 -1
BITMAP
FFF0
0030
0030
0070
0060
0060
00C0
01C0
0180
0300
0600
1C00
3800
ENDCHAR
STARTCHAR C025526
ENCODING 11094
SWIDTH 2000 0
DWIDTH 20 0
BBX 15 15 4 -1
BITMAP
001E
000C
FFF0
0030
0030
0070
0060
0060
00C0
01C0
0180
0300
0600
1C00
3800
ENDCHAR
STARTCHAR C025527
ENCODING 11095
SWIDTH 2000 0
DWIDTH 20 0
BBX 15 16 4 -1
BITMAP
001E
001E
001E
FFF0
0030
0030
0070
0060
0060
00C0
01C0
0180
0300
0600
1C00
3800
ENDCHAR
STARTCHAR C025530
ENCODING 11096
SWIDTH 2000 0
DWIDTH 20 0
BBX 16 7 2 2
BITMAP
0700
1D80
38C0
7060
E038
000C
0007
ENDCHAR
STARTCHAR C025531
ENCODING 11097
SWIDTH 2000 0
DWIDTH 20 0
BBX 16 11 2 2
BITMAP
0018
000C
0030
0018
0700
0D80
38C0
7060
E038
000C
0007
ENDCHAR
STARTCHAR C025532
ENCODING 11098
SWIDTH 2000 0
DWIDTH 20 0
BBX 16 11 2 2
BITMAP
0038
006C
0078
0630
0F80
19C0
30E0
6030
C018
000E
0003
ENDCHAR
STARTCHAR C025533
ENCODING 11099
SWIDTH 2000 0
DWIDTH 20 0
BBX 15 14 3 -1
BITMAP
0300
0300
0300
FFFC
0300
0300
0300
3318
3318
730C
6306
C306
0300
1F00
ENDCHAR
STARTCHAR C025534
ENCODING 11100
SWIDTH 2000 0
DWIDTH 20 0
BBX 15 15 3 -1
BITMAP
000C
0330
0318
0300
FFFC
0300
0300
0300
3318
3318
730C
6306
C306
0300
1F00
ENDCHAR
STARTCHAR C025535
ENCODING 11101
SWIDTH 2000 0
DWIDTH 20 0
BBX 15 15 3 -1
BITMAP
001C
033C
033C
0300
FFFC
0300
0300
0300
3318
3318
730C
6306
C306
0300
1F00
ENDCHAR
STARTCHAR C025536
ENCODING 11102
SWIDTH 2000 0
DWIDTH 20 0
BBX 13 10 3 1
BITMAP
FFF8
0018
0018
0030
1860
0CC0
0780
0300
0180
00C0
ENDCHAR
STARTCHAR C025537
ENCODING 11103
SWIDTH 2000 0
DWIDTH 20 0
BBX 9 12 6 0
BITMAP
3C00
0700
0000
C000
7800
0E00
0300
0000
C000
7800
0F00
0380
ENDCHAR
STARTCHAR C025540
ENCODING 11104
SWIDTH 2000 0
DWIDTH 20 0
BBX 14 13 3 0
BITMAP
0300
0300
0300
0300
0600
0600
0600
0C60
0C30
1818
18F8
FF8C
000C
ENDCHAR
STARTCHAR C025541
ENCODING 11105
SWIDTH 2000 0
DWIDTH 20 0
BBX 12 14 3 -1
BITMAP
0030
0030
0060
0060
0CE0
07C0
0380
03C0
03E0
0660
0C00
3800
7000
C000
ENDCHAR
STARTCHAR C025542
ENCODING 11106
SWIDTH 2000 0
DWIDTH 20 0
BBX 14 13 3 -1
BITMAP
7FF0
0600
0600
0600
0600
FFFC
0600
0600
0600
0600
0600
0600
03F8
ENDCHAR
STARTCHAR C025543
ENCODING 11107
SWIDTH 2000 0
DWIDTH 20 0
BBX 10 9 5 -2
BITMAP
1800
1FC0
F8C0
1980
1B00
0C00
0C00
0C00
0C00
ENDCHAR
STARTCHAR C025544
ENCODING 11108
SWIDTH 2000 0
DWIDTH 20 0
BBX 13 15 4 -2
BITMAP
1800
1800
1800
19F8
3F18
EC30
0C70
0C60
0CC0
0C00
0E00
0600
0600
0600
0600
ENDCHAR
STARTCHAR C025545
ENCODING 11109
SWIDTH 2000 0
DWIDTH 20 0
BBX 11 8 5 -2
BITMAP
7F00
0300
0300
0300
0300
0300
0300
FFE0
ENDCHAR
STARTCHAR C025546
ENCODING 11110
SWIDTH 2000 0
DWIDTH 20 0
BBX 15 10 2 1
BITMAP
1FE0
0060
0060
0060
0060
0060
0060
0060
0060
FFFE
ENDCHAR
STARTCHAR C025547
ENCODING 11111
SWIDTH 2000 0
DWIDTH 20 0
BBX 8 9 6 -2
BITMAP
FF
03
03
03
FF
03
03
FF
03
ENDCHAR
STARTCHAR C025550
ENCODING 11112
SWIDTH 2000 0
DWIDTH 20 0
BBX 11 13 4 -1
BITMAP
FFE0
0060
0060
0060
0060
FFE0
0060
0060
0060
0060
FFE0
0060
0060
ENDCHAR
STARTCHAR C025551
ENCODING 11113
SWIDTH 2000 0
DWIDTH 20 0
BBX 12 15 4 -2
BITMAP
7FE0
0000
0000
0000
0000
FFF0
0070
0060
0060
00C0
00C0
0180
0300
0E00
1800
ENDCHAR
STARTCHAR C025552
ENCODING 11114
SWIDTH 2000 0
DWIDTH 20 0
BBX 8 16 6 -2
BITMAP
03
C3
C3
C3
C3
C3
C3
C3
C3
C3
06
06
0C
0C
18
30
ENDCHAR
STARTCHAR C025553
ENCODING 11115
SWIDTH 2000 0
DWIDTH 20 0
BBX 15 14 3 -1
BITMAP
0180
1980
1980
1980
1980
1980
1986
198C
199C
31B8
31F0
61C0
E000
C000
ENDCHAR
STARTCHAR C025554
ENCODING 11116
SWIDTH 2000 0
DWIDTH 20 0
BBX 12 12 5 1
BITMAP
C000
C000
C000
C000
C000
C030
C060
C0C0
C180
C700
DC00
F800
ENDCHAR
STARTCHAR C025555
ENCODING 11117
SWIDTH 2000 0
DWIDTH 20 0
BBX 11 12 5 -1
BITMAP
FFE0
C060
C060
C060
C060
C060
C060
C060
C060
FFE0
C060
C000
ENDCHAR
STARTCHAR C025556
ENCODING 11118
SWIDTH 2000 0
DWIDTH 20 0
BBX 9 10 6 -2
BITMAP
FF80
C180
C180
C180
C300
0300
0600
0600
0C00
1800
ENDCHAR
STARTCHAR C025557
ENCODING 11119
SWIDTH 2000 0
DWIDTH 20 0
BBX 12 13 4 -1
BITMAP
FFF0
C030
C030
C030
C030
C060
0060
0060
00C0
00C0
0180
0300
0600
ENDCHAR
STARTCHAR C025560
ENCODING 11120
SWIDTH 2000 0
DWIDTH 20 0
BBX 15 15 3 -2
BITMAP
00C0
00C0
00C0
FFF8
18C0
18C0
18C0
18C0
18C0
FFFE
00C0
00C0
00C0
00C0
00C0
ENDCHAR
STARTCHAR C025561
ENCODING 11121
SWIDTH 2000 0
DWIDTH 20 0
BBX 15 11 3 1
BITMAP
7FF8
0018
0030
0360
03C0
0300
0300
0300
0300
0300
FFFE
ENDCHAR
STARTCHAR C025562
ENCODING 11122
SWIDTH 2000 0
DWIDTH 20 0
BBX 11 13 4 -1
BITMAP
FFE0
0060
0060
0060
FFE0
00C0
00C0
0180
0380
0700
0E00
3800
6000
ENDCHAR
STARTCHAR C025563
ENCODING 11123
SWIDTH 2000 0
DWIDTH 20 0
BBX 13 13 4 0
BITMAP
C000
E000
3000
1800
0018
0018
0030
00E0
01C0
0380
0E00
3800
E000
ENDCHAR
STARTCHAR C025564
ENCODING 11124
SWIDTH 2000 0
DWIDTH 20 0
BBX 15 15 4 -1
BITMAP
0606
0618
060C
FFF0
C030
C030
C030
C030
C060
0060
00C0
01C0
0380
0700
0C00
ENDCHAR
STARTCHAR C025565
ENCODING 11125
SWIDTH 2000 0
DWIDTH 20 0
BBX 9 9 6 -2
BITMAP
1800
1800
FF80
1980
1980
3180
3180
6300
CF00
ENDCHAR
STARTCHAR C025566
ENCODING 11126
SWIDTH 2000 0
DWIDTH 20 0
BBX 10 10 5 -2
BITMAP
3000
3000
7FC0
6600
C600
0600
0C00
0C00
1800
3000
ENDCHAR
STARTCHAR C026041
ENCODING 11297
SWIDTH 2000 0
DWIDTH 20 0
BBX 12 15 4 -1
BITMAP
0700
0F00
0F00
0F80
1980
1980
19C0
30C0
3FC0
3060
7060
6060
6060
6030
C030
ENDCHAR
STARTCHAR C026042
ENCODING 11298
SWIDTH 2000 0
DWIDTH 20 0
BBX 9 14 6 0
BITMAP
FF80
C000
C000
C000
C000
FE00
C700
C180
C180
C180
C180
C180
C300
FE00
ENDCHAR
STARTCHAR C026043
ENCODING 11299
SWIDTH 2000 0
DWIDTH 20 0
BBX 11 14 5 0
BITMAP
FF80
C1C0
C0C0
C0C0
C0C0
C180
FF00
C1C0
C0C0
C060
C060
C060
C0C0
FF80
ENDCHAR
STARTCHAR C026044
ENCODING 11300
SWIDTH 2000 0
DWIDTH 20 0
BBX 8 14 7 0
BITMAP
FF
C0
C0
C0
C0
C0
C0
C0
C0
C0
C0
C0
C0
C0
ENDCHAR
STARTCHAR C026045
ENCODING 11301
SWIDTH 2000 0
DWIDTH 20 0
BBX 13 14 4 0
BITMAP
3FE0
3060
3060
3060
3060
3060
3060
3060
3060
E0F8
FF98
C018
C018
C018
ENDCHAR
STARTCHAR C026046
ENCODING 11302
SWIDTH 2000 0
DWIDTH 20 0
BBX 10 14 6 0
BITMAP
FFC0
C000
C000
C000
C000
C000
FF80
C000
C000
C000
C000
C000
C000
FFC0
ENDCHAR
STARTCHAR C026047
ENCODING 11303
SWIDTH 2000 0
DWIDTH 20 0
BBX 10 15 6 0
BITMAP
6700
0000
0000
FFC0
C000
C000
C000
C000
FF80
C000
C000
C000
C000
C000
FFC0
ENDCHAR
STARTCHAR C026050
ENCODING 11304
SWIDTH 2000 0
DWIDTH 20 0
BBX 14 14 3 0
BITMAP
E31C
3330
3330
3330
3330
3B70
1FE0
3B30
6318
6318
6318
6318
6318
E31C
ENDCHAR
STARTCHAR C026051
ENCODING 11305
SWIDTH 2000 0
DWIDTH 20 0
BBX 11 14 5 0
BITMAP
3F00
6180
C0C0
C0C0
C0C0
0180
1F00
0180
00C0
0060
C060
6060
70C0
3F80
ENDCHAR
STARTCHAR C026052
ENCODING 11306
SWIDTH 2000 0
DWIDTH 20 0
BBX 10 14 5 0
BITMAP
C0C0
C1C0
C3C0
C3C0
C6C0
C6C0
CCC0
CCC0
D8C0
D8C0
F0C0
F0C0
E0C0
C0C0
ENDCHAR
STARTCHAR C026053
ENCODING 11307
SWIDTH 2000 0
DWIDTH 20 0
BBX 11 14 5 0
BITMAP
3300
3300
DFE0
C0E0
C1E0
C360
C760
C660
CC60
D860
D860
F060
E060
E060
ENDCHAR
STARTCHAR C026054
ENCODING 11308
SWIDTH 2000 0
DWIDTH 20 0
BBX 10 14 6 0
BITMAP
C3C0
C700
C600
C600
C600
CC00
F800
CE00
C600
C300
C300
C300
C300
C380
ENDCHAR
STARTCHAR C026055
ENCODING 11309
SWIDTH 2000 0
DWIDTH 20 0
BBX 12 14 3 0
BITMAP
1FF0
1830
1830
1830
1830
1830
1830
1830
1830
1830
1830
1830
3830
F030
ENDCHAR
STARTCHAR C026056
ENCODING 11310
SWIDTH 2000 0
DWIDTH 20 0
BBX 13 14 4 0
BITMAP
E038
E038
F078
F078
F078
D8D8
D8D8
D998
CD98
CD98
CF18
C718
C718
C618
ENDCHAR
STARTCHAR C026057
ENCODING 11311
SWIDTH 2000 0
DWIDTH 20 0
BBX 10 14 5 0
BITMAP
C0C0
C0C0
C0C0
C0C0
C0C0
C0C0
FFC0
C0C0
C0C0
C0C0
C0C0
C0C0
C0C0
C0C0
ENDCHAR
STARTCHAR C026060
ENCODING 11312
SWIDTH 2000 0
DWIDTH 20 0
BBX 12 14 4 0
BITMAP
1F80
38C0
6060
6060
C030
C030
C030
C030
C030
C030
6060
6060
30C0
1F80
ENDCHAR
STARTCHAR C026061
ENCODING 11313
SWIDTH 2000 0
DWIDTH 20 0
BBX 9 14 6 0
BITMAP
FF80
C180
C180
C180
C180
C180
C180
C180
C180
C180
C180
C180
C180
C180
ENDCHAR
STARTCHAR C026062
ENCODING 11314
SWIDTH 2000 0
DWIDTH 20 0
BBX 10 14 6 0
BITMAP
FF00
C180
C0C0
C0C0
C0C0
C0C0
C180
FF00
C000
C000
C000
C000
C000
C000
ENDCHAR
STARTCHAR C026063
ENCODING 11315
SWIDTH 2000 0
DWIDTH 20 0
BBX 12 14 5 0
BITMAP
1F80
30C0
6060
6060
C060
C000
C000
C000
C000
C030
6030
6060
30E0
1F80
ENDCHAR
STARTCHAR C026064
ENCODING 11316
SWIDTH 2000 0
DWIDTH 20 0
BBX 13 14 4 0
BITMAP
FFF8
0600
0600
0600
0600
0600
0600
0600
0600
0600
0600
0600
0600
0600
ENDCHAR
STARTCHAR C026065
ENCODING 11317
SWIDTH 2000 0
DWIDTH 20 0
BBX 10 14 5 0
BITMAP
C0C0
E0C0
60C0
6180
3180
3300
1B00
1E00
1E00
0E00
0C00
0C00
1800
7800
ENDCHAR
STARTCHAR C026066
ENCODING 11318
SWIDTH 2000 0
DWIDTH 20 0
BBX 14 14 3 0
BITMAP
0300
0FC0
3FF0
7338
E31C
C30C
C30C
C30C
C30C
6318
6318
3B70
0FC0
0300
ENDCHAR
STARTCHAR C026067
ENCODING 11319
SWIDTH 2000 0
DWIDTH 20 0
BBX 10 15 5 -1
BITMAP
60C0
61C0
3180
3380
1B00
1E00
0E00
0C00
0E00
1F00
3B00
3380
7180
60C0
C000
ENDCHAR
STARTCHAR C026070
ENCODING 11320
SWIDTH 2000 0
DWIDTH 20 0
BBX 11 15 5 -1
BITMAP
C0C0
C0C0
C0C0
C0C0
C0C0
C0C0
C0C0
C0C0
C0C0
C0C0
C0C0
FFE0
0060
0060
0060
ENDCHAR
STARTCHAR C026071
ENCODING 11321
SWIDTH 2000 0
DWIDTH 20 0
BBX 8 14 6 0
BITMAP
C3
C3
C3
C3
C3
C3
C3
E7
7F
03
03
03
03
03
ENDCHAR
STARTCHAR C026072
ENCODING 11322
SWIDTH 2000 0
DWIDTH 20 0
BBX 13 14 4 0
BITMAP
C618
C618
C618
C618
C618
C618
C618
C618
C618
C618
C618
C618
C618
FFF8
ENDCHAR
STARTCHAR C026073
ENCODING 11323
SWIDTH 2000 0
DWIDTH 20 0
BBX 15 15 3 -1
BITMAP
C318
C318
C318
C318
C318
C318
C318
C318
C318
C318
C318
C318
FFFE
0006
0006
ENDCHAR
STARTCHAR C026074
ENCODING 11324
SWIDTH 2000 0
DWIDTH 20 0
BBX 13 14 4 0
BITMAP
F800
1800
1800
1800
1800
1FC0
1870
1838
1818
1818
1818
1818
1830
1FE0
ENDCHAR
STARTCHAR C026075
ENCODING 11325
SWIDTH 2000 0
DWIDTH 20 0
BBX 11 14 5 0
BITMAP
C060
C060
C060
C060
C060
C060
FE60
C760
C360
C360
C360
C360
C660
FC60
ENDCHAR
STARTCHAR C026076
ENCODING 11326
SWIDTH 2000 0
DWIDTH 20 0
BBX 9 14 6 0
BITMAP
C000
C000
C000
C000
C000
C000
FF00
C380
C180
C180
C180
C180
C300
FE00
ENDCHAR
STARTCHAR C026077
ENCODING 11327
SWIDTH 2000 0
DWIDTH 20 0
BBX 12 14 4 0
BITMAP
1F80
70C0
6060
C060
0030
0030
0FF0
0030
0030
C030
C060
E060
70C0
3F80
ENDCHAR
STARTCHAR C026100
ENCODING 11328
SWIDTH 2000 0
DWIDTH 20 0
BBX 17 14 2 0
BITMAP
C0FC00
C18600
C30300
C30300
C60180
C60180
E60180
FE0180
C60180
C60180
C30300
C30300
C18600
C0FC00
ENDCHAR
STARTCHAR C026101
ENCODING 11329
SWIDTH 2000 0
DWIDTH 20 0
BBX 11 14 4 0
BITMAP
1FE0
3060
6060
6060
6060
3060
1FE0
3060
3060
6060
6060
6060
6060
C000
ENDCHAR
STARTCHAR C026102
ENCODING 11330
SWIDTH 2000 0
DWIDTH 20 0
BBX 0 0 0 0
BITMAP
ENDCHAR
STARTCHAR C026103
ENCODING 11331
SWIDTH 2000 0
DWIDTH 20 0
BBX 0 0 0 0
BITMAP
ENDCHAR
STARTCHAR C026104
ENCODING 11332
SWIDTH 2000 0
DWIDTH 20 0
BBX 0 0 0 0
BITMAP
ENDCHAR
STARTCHAR C026120
ENCODING 11344
SWIDTH 2000 0
DWIDTH 20 0
BBX 1 19 20 -3
BITMAP
80
80
80
80
00
00
00
00
00
00
80
00
80
00
00
00
00
00
80
ENDCHAR
STARTCHAR C026121
ENCODING 11345
SWIDTH 2000 0
DWIDTH 20 0
BBX 9 11 6 0
BITMAP
3E00
6700
C300
0300
0300
7F00
C300
C300
C700
EF00
7980
ENDCHAR
STARTCHAR C026122
ENCODING 11346
SWIDTH 2000 0
DWIDTH 20 0
BBX 10 15 6 0
BITMAP
1CC0
7780
6000
E000
C000
FF00
E300
C180
C180
C180
C180
C180
C380
6300
3E00
ENDCHAR
STARTCHAR C026123
ENCODING 11347
SWIDTH 2000 0
DWIDTH 20 0
BBX 7 11 7 0
BITMAP
FC
C6
C6
C6
CC
FC
C6
C6
C6
C6
FC
ENDCHAR
STARTCHAR C026124
ENCODING 11348
SWIDTH 2000 0
DWIDTH 20 0
BBX 6 11 7 0
BITMAP
FC
C0
C0
C0
C0
C0
C0
C0
C0
C0
C0
ENDCHAR
STARTCHAR C026125
ENCODING 11349
SWIDTH 2000 0
DWIDTH 20 0
BBX 11 12 5 -1
BITMAP
3F80
3180
3180
3180
3180
3180
3180
3180
6180
FFE0
C060
C060
ENDCHAR
STARTCHAR C026126
ENCODING 11350
SWIDTH 2000 0
DWIDTH 20 0
BBX 9 11 6 0
BITMAP
3E00
6300
C300
C180
C180
FF80
C000
C000
C180
6300
3E00
ENDCHAR
STARTCHAR C026127
ENCODING 11351
SWIDTH 2000 0
DWIDTH 20 0
BBX 9 14 6 0
BITMAP
7600
0600
0000
3E00
6300
C180
C180
C180
FF80
C000
C000
6180
6300
3E00
ENDCHAR
STARTCHAR C026130
ENCODING 11352
SWIDTH 2000 0
DWIDTH 20 0
BBX 11 11 5 0
BITMAP
CCE0
EDC0
6D80
6D80
6D80
7F80
EDC0
CCC0
CCC0
CCC0
CCC0
ENDCHAR
STARTCHAR C026131
ENCODING 11353
SWIDTH 2000 0
DWIDTH 20 0
BBX 8 11 6 0
BITMAP
3E
67
C3
C3
03
1E
07
C3
E3
67
3E
ENDCHAR
STARTCHAR C026132
ENCODING 11354
SWIDTH 2000 0
DWIDTH 20 0
BBX 8 11 6 -1
BITMAP
C3
C7
CF
CF
DB
DB
F3
E3
E3
C3
C0
ENDCHAR
STARTCHAR C026133
ENCODING 11355
SWIDTH 2000 0
DWIDTH 20 0
BBX 8 15 6 0
BITMAP
60
66
3C
00
C3
C7
C7
CF
CF
DB
FB
F3
E3
E3
C3
ENDCHAR
STARTCHAR C026134
ENCODING 11356
SWIDTH 2000 0
DWIDTH 20 0
BBX 8 11 7 0
BITMAP
C7
C6
CC
CC
CC
FC
C6
C6
C6
C6
C6
ENDCHAR
STARTCHAR C026135
ENCODING 11357
SWIDTH 2000 0
DWIDTH 20 0
BBX 9 10 6 0
BITMAP
7F80
6180
6180
6180
6180
6180
6180
6180
6180
C180
ENDCHAR
STARTCHAR C026136
ENCODING 11358
SWIDTH 2000 0
DWIDTH 20 0
BBX 10 11 5 0
BITMAP
E1C0
E3C0
F3C0
F3C0
F3C0
DEC0
DEC0
DEC0
CCC0
CCC0
CCC0
ENDCHAR
STARTCHAR C026137
ENCODING 11359
SWIDTH 2000 0
DWIDTH 20 0
BBX 7 11 7 0
BITMAP
06
06
06
06
06
FE
06
06
06
06
06
ENDCHAR
STARTCHAR C026140
ENCODING 11360
SWIDTH 2000 0
DWIDTH 20 0
BBX 9 11 6 0
BITMAP
3E00
6300
6300
C180
C180
C180
C180
C180
6300
6300
3E00
ENDCHAR
STARTCHAR C026141
ENCODING 11361
SWIDTH 2000 0
DWIDTH 20 0
BBX 8 11 6 0
BITMAP
FF
C3
C3
C3
C3
C3
C3
C3
C3
C3
C3
ENDCHAR
STARTCHAR C026142
ENCODING 11362
SWIDTH 2000 0
DWIDTH 20 0
BBX 9 12 6 -1
BITMAP
FE00
E300
C180
C180
C180
C180
C180
E180
E300
FE00
C000
C000
ENDCHAR
STARTCHAR C026143
ENCODING 11363
SWIDTH 2000 0
DWIDTH 20 0
BBX 8 11 6 0
BITMAP
3E
63
63
C0
C0
C0
C0
C3
63
67
3E
ENDCHAR
STARTCHAR C026144
ENCODING 11364
SWIDTH 2000 0
DWIDTH 20 0
BBX 8 11 6 0
BITMAP
FF
18
18
18
18
18
18
18
18
18
18
ENDCHAR
STARTCHAR C026145
ENCODING 11365
SWIDTH 2000 0
DWIDTH 20 0
BBX 8 11 6 -1
BITMAP
C3
63
66
36
3E
3C
1C
18
18
38
70
ENDCHAR
STARTCHAR C026146
ENCODING 11366
SWIDTH 2000 0
DWIDTH 20 0
BBX 14 15 3 -1
BITMAP
0300
0300
0300
3FF0
6798
C30C
C30C
C30C
C30C
C30C
6798
3FF0
0300
0300
0300
ENDCHAR
STARTCHAR C026147
ENCODING 11367
SWIDTH 2000 0
DWIDTH 20 0
BBX 8 11 6 0
BITMAP
C3
66
66
3C
1C
18
3C
3E
66
E3
C3
ENDCHAR
STARTCHAR C026150
ENCODING 11368
SWIDTH 2000 0
DWIDTH 20 0
BBX 9 12 6 -1
BITMAP
C300
C300
C300
C300
C300
C300
C300
C300
FF80
0180
0180
0180
ENDCHAR
STARTCHAR C026151
ENCODING 11369
SWIDTH 2000 0
DWIDTH 20 0
BBX 7 11 7 0
BITMAP
C6
C6
C6
C6
C6
C6
EE
7E
06
06
06
ENDCHAR
STARTCHAR C026152
ENCODING 11370
SWIDTH 2000 0
DWIDTH 20 0
BBX 11 11 5 0
BITMAP
CC60
CC60
CC60
CC60
CC60
CC60
CC60
CC60
CC60
CC60
FFE0
ENDCHAR
STARTCHAR C026153
ENCODING 11371
SWIDTH 2000 0
DWIDTH 20 0
BBX 12 12 4 -1
BITMAP
C660
C660
C660
C660
C660
C660
C660
C660
FFF0
0030
0030
0030
ENDCHAR
STARTCHAR C026154
ENCODING 11372
SWIDTH 2000 0
DWIDTH 20 0
BBX 9 11 6 0
BITMAP
F000
3000
3000
3000
3E00
3300
3180
3180
3180
3380
3F00
ENDCHAR
STARTCHAR C026155
ENCODING 11373
SWIDTH 2000 0
DWIDTH 20 0
BBX 9 11 6 0
BITMAP
C180
C180
C180
C180
F980
DD80
CD80
CD80
CD80
DD80
F980
ENDCHAR
STARTCHAR C026156
ENCODING 11374
SWIDTH 2000 0
DWIDTH 20 0
BBX 7 11 7 0
BITMAP
C0
C0
C0
C0
F8
CE
C6
C6
C6
CE
FC
ENDCHAR
STARTCHAR C026157
ENCODING 11375
SWIDTH 2000 0
DWIDTH 20 0
BBX 9 11 6 0
BITMAP
3E00
6300
6300
0180
0180
1F80
0180
0180
E300
6700
3E00
ENDCHAR
STARTCHAR C026160
ENCODING 11376
SWIDTH 2000 0
DWIDTH 20 0
BBX 13 11 4 0
BITMAP
C7E0
CE70
CC30
D818
D818
F818
D818
D818
CC30
CE70
C3E0
ENDCHAR
STARTCHAR C026161
ENCODING 11377
SWIDTH 2000 0
DWIDTH 20 0
BBX 7 11 7 0
BITMAP
7E
C6
C6
C6
C6
7E
66
C6
C6
C6
C6
ENDCHAR
STARTCHAR C030041
ENCODING 12321
SWIDTH 2000 0
DWIDTH 20 0
BBX 19 18 1 -3
BITMAP
000300
7FC300
00C300
00C300
00C300
00C300
00C300
00C3E0
018300
018300
038300
070300
0E0300
7C0300
E00300
000300
000300
000300
ENDCHAR
STARTCHAR C030042
ENCODING 12322
SWIDTH 2000 0
DWIDTH 20 0
BBX 19 18 1 -3
BITMAP
000300
7FC300
00E300
00E300
00C3E0
00C300
01C300
038300
0E0300
F80300
000000
000000
3FFF00
000300
000300
000300
000300
000300
ENDCHAR
STARTCHAR C030043
ENCODING 12323
SWIDTH 2000 0
DWIDTH 20 0
BBX 19 17 1 -2
BITMAP
000300
7FC300
00E300
00E300
00C300
00C3E0
00C300
018300
070300
7C0300
E00300
000300
300300
300000
300000
300000
3FFF00
ENDCHAR
STARTCHAR C030044
ENCODING 12324
SWIDTH 2000 0
DWIDTH 20 0
BBX 19 17 1 -2
BITMAP
000300
7FC300
00E300
00E300
00C3E0
00C300
018300
070300
3E0300
F00300
000000
3FFF00
300000
300000
300000
300000
3FFF00
ENDCHAR
STARTCHAR C030045
ENCODING 12325
SWIDTH 2000 0
DWIDTH 20 0
BBX 19 17 1 -2
BITMAP
000300
7FC300
00E300
00E300
00C3E0
01C300
038300
0F0300
FC0300
000000
1FFF00
000300
000300
1FFF00
180000
180000
1FFF00
ENDCHAR
STARTCHAR C030046
ENCODING 12326
SWIDTH 2000 0
DWIDTH 20 0
BBX 19 17 1 -2
BITMAP
000300
7FC300
00E300
00E300
00C3E0
01C300
038300
0F0300
FC0300
000300
7F7F00
030300
030300
7F0300
600300
600300
7FC300
ENDCHAR
STARTCHAR C030047
ENCODING 12327
SWIDTH 2000 0
DWIDTH 20 0
BBX 19 17 1 -2
BITMAP
000300
7FC300
00E300
00E300
00C3E0
01C300
038300
0F0300
FC0300
000300
7F7F00
036300
036300
7F6300
606300
606300
7FFF00
ENDCHAR
STARTCHAR C030050
ENCODING 12328
SWIDTH 2000 0
DWIDTH 20 0
BBX 19 17 1 -2
BITMAP
000300
7FC300
00E300
00E300
00C3E0
00C300
018300
070300
3E0300
F00300
000000
3FFF00
300300
300300
300300
300300
3FFF00
ENDCHAR
STARTCHAR C030051
ENCODING 12329
SWIDTH 2000 0
DWIDTH 20 0
BBX 19 17 1 -2
BITMAP
000300
7FC300
00E300
00E300
00C3E0
01C300
038300
0F0300
FC0300
000000
300300
300300
3FFF00
300300
300300
300300
1FFF00
ENDCHAR
STARTCHAR C030052
ENCODING 12330
SWIDTH 2000 0
DWIDTH 20 0
BBX 19 17 1 -2
BITMAP
000300
7FC300
00E300
00C300
00C3E0
018300
070300
FC0300
000300
000300
630C00
630C00
7F0E00
631E00
631E00
633300
7F6180
ENDCHAR
STARTCHAR C030053
ENCODING 12331
SWIDTH 2000 0
DWIDTH 20 0
BBX 19 17 1 -2
BITMAP
000300
7FC300
00E300
00E300
00C3E0
00C300
01C300
038300
0E0300
F80300
000300
006000
006000
00F000
019800
070E00
3C07C0
ENDCHAR
STARTCHAR C030054
ENCODING 12332
SWIDTH 2000 0
DWIDTH 20 0
BBX 19 17 1 -2
BITMAP
000300
7FC300
00E300
00E300
00C3E0
00C300
018300
070300
3E0300
F00300
000000
0C0C00
0C0C00
1E0E00
1E1E00
3F3F00
73F3C0
ENDCHAR
STARTCHAR C030055
ENCODING 12333
SWIDTH 2000 0
DWIDTH 20 0
BBX 19 18 1 -3
BITMAP
000300
7FC300
00E300
00E300
00C3E0
00C300
018300
070300
3E0300
F00300
000300
0FF800
380E00
600700
600300
600300
380E00
0FF800
ENDCHAR
STARTCHAR C030056
ENCODING 12334
SWIDTH 2000 0
DWIDTH 20 0
BBX 19 17 1 -2
BITMAP
000300
7FC300
00E300
00E300
00C3E0
00C300
018300
070300
3E0300
E00300
000000
7FFF00
00C000
01E000
03F000
0E3C00
7C0F00
ENDCHAR
STARTCHAR C030057
ENCODING 12335
SWIDTH 2000 0
DWIDTH 20 0
BBX 19 17 1 -2
BITMAP
000300
7FC300
00E300
00E300
00C3E0
00C300
018300
070300
3C0300
E00300
07F800
000000
3FFF00
01C000
01E000
073800
3C1F80
ENDCHAR
STARTCHAR C030060
ENCODING 12336
SWIDTH 2000 0
DWIDTH 20 0
BBX 19 17 1 -2
BITMAP
000300
7FC300
00E300
00E300
00C3E0
00C300
038300
070300
7C0300
E00300
000000
3FFF00
300000
3FFF00
300000
300000
3FFF00
ENDCHAR
STARTCHAR C030061
ENCODING 12337
SWIDTH 2000 0
DWIDTH 20 0
BBX 18 17 2 -2
BITMAP
000600
FFC600
00C600
00C600
01C7C0
018600
030600
0E0600
F80600
000600
000000
7FFE00
0C1800
0C1800
0C1800
0C1800
7FFF00
ENDCHAR
STARTCHAR C030062
ENCODING 12338
SWIDTH 2000 0
DWIDTH 20 0
BBX 19 18 1 -3
BITMAP
000300
7FC300
00E300
00E300
00C3E0
00C300
038300
070300
7C0300
E00300
07F800
000000
7FFF80
000000
1FFE00
380300
380700
0FFE00
ENDCHAR
STARTCHAR C030063
ENCODING 12339
SWIDTH 2000 0
DWIDTH 20 0
BBX 17 18 2 -3
BITMAP
003180
7F3180
033180
033180
033180
033180
033180
033F80
033180
063180
063180
0C3180
1C3180
703180
C03180
003180
003180
003180
ENDCHAR
STARTCHAR C030064
ENCODING 12340
SWIDTH 2000 0
DWIDTH 20 0
BBX 16 18 2 -3
BITMAP
0033
FF33
0333
0333
033F
0733
0633
0E33
1C33
F833
C033
0000
3FFF
0003
0003
0003
0003
0003
ENDCHAR
STARTCHAR C030065
ENCODING 12341
SWIDTH 2000 0
DWIDTH 20 0
BBX 17 16 2 -2
BITMAP
FF3300
033300
033300
033300
033300
073F00
063300
0C3300
383300
E03300
003300
183300
183300
180000
180000
1FFF80
ENDCHAR
STARTCHAR C030066
ENCODING 12342
SWIDTH 2000 0
DWIDTH 20 0
BBX 16 17 2 -2
BITMAP
0033
FF33
0333
0333
033F
0333
0733
0E33
3C33
F033
3FFF
0003
0003
3FFF
3800
3800
1FFF
ENDCHAR
STARTCHAR C030067
ENCODING 12343
SWIDTH 2000 0
DWIDTH 20 0
BBX 17 17 2 -2
BITMAP
003180
7F3180
033180
033180
033F80
033180
073180
063180
1C3180
F83180
000000
1FFF80
180180
180180
180180
180180
1FFF80
ENDCHAR
STARTCHAR C030070
ENCODING 12344
SWIDTH 2000 0
DWIDTH 20 0
BBX 16 17 3 -2
BITMAP
0063
FE63
0763
0663
067F
0663
0E63
1C63
7863
C063
0000
3006
3006
3FFE
3006
3006
3FFE
ENDCHAR
STARTCHAR C030071
ENCODING 12345
SWIDTH 2000 0
DWIDTH 20 0
BBX 17 17 2 -2
BITMAP
003300
FF3300
033300
033300
033F00
033300
073300
063300
0C3300
783300
C03300
006000
00E000
00F000
01B800
071C00
3C0780
ENDCHAR
STARTCHAR C030072
ENCODING 12346
SWIDTH 2000 0
DWIDTH 20 0
BBX 17 17 2 -2
BITMAP
003300
FF3300
033300
033300
033F00
033300
063300
0E3300
1C3300
F83300
000300
1C0C00
1C0C00
1C1C00
3E1E00
373700
E3E380
ENDCHAR
STARTCHAR C030073
ENCODING 12347
SWIDTH 2000 0
DWIDTH 20 0
BBX 17 17 2 -3
BITMAP
7F3180
033180
033180
033180
033F80
033180
063180
0E3180
783180
E03180
07FC00
1C0700
300180
300180
300180
1C0700
07FC00
ENDCHAR
STARTCHAR C030074
ENCODING 12348
SWIDTH 2000 0
DWIDTH 20 0
BBX 18 18 1 -3
BITMAP
000600
7FC600
00C600
00C600
00C600
00C7C0
00C600
00C600
018600
018600
030600
0607C0
0C0600
380600
E00600
000600
000600
000600
ENDCHAR
STARTCHAR C030075
ENCODING 12349
SWIDTH 2000 0
DWIDTH 20 0
BBX 19 18 1 -3
BITMAP
000300
7FC300
00E300
00E3E0
00C300
00C300
01C300
0383E0
0E0300
F80300
000300
000000
3FFF00
000300
000300
000300
000300
000300
ENDCHAR
STARTCHAR C030076
ENCODING 12350
SWIDTH 2000 0
DWIDTH 20 0
BBX 19 17 1 -2
BITMAP
000300
7FC300
00E300
00E300
00C3E0
00C300
00C300
018300
0703E0
7C0300
E00300
000300
300300
300000
300000
300000
3FFF00
ENDCHAR
STARTCHAR C030077
ENCODING 12351
SWIDTH 2000 0
DWIDTH 20 0
BBX 19 17 1 -2
BITMAP
000300
7FC300
00E300
00E3E0
00C300
00C300
018300
0703E0
3E0300
F00300
000000
1FFF00
000300
1FFF00
180000
180000
1FFF00
ENDCHAR
STARTCHAR C030100
ENCODING 12352
SWIDTH 2000 0
DWIDTH 20 0
BBX 19 17 1 -2
BITMAP
000300
7FC300
00E300
00E3E0
00C300
00C300
01C300
038300
0F03E0
7C0300
E00300
006300
00E000
01F000
03B800
071C00
7C0780
ENDCHAR
STARTCHAR C030101
ENCODING 12353
SWIDTH 2000 0
DWIDTH 20 0
BBX 19 18 1 -3
BITMAP
000300
7FC300
00E300
00E3E0
00C300
00C300
018300
0703E0
1E0300
F80300
000000
0FF800
380E00
600700
600300
600300
380E00
0FF800
ENDCHAR
STARTCHAR C030102
ENCODING 12354
SWIDTH 2000 0
DWIDTH 20 0
BBX 16 17 2 -2
BITMAP
0033
FF33
0333
0333
0333
033F
0333
0733
0633
0633
0C33
1C3F
3833
7033
C033
0033
0033
ENDCHAR
STARTCHAR C030103
ENCODING 12355
SWIDTH 2000 0
DWIDTH 20 0
BBX 17 17 2 -2
BITMAP
003300
FF3300
033300
033300
033F00
033300
063300
063300
0C3F00
783300
E03300
003300
180300
180000
180000
180000
1FFF80
ENDCHAR
STARTCHAR C030104
ENCODING 12356
SWIDTH 2000 0
DWIDTH 20 0
BBX 17 17 2 -2
BITMAP
000180
FF3180
033180
033F80
033180
033180
063F80
0E3180
3C3180
F00000
000000
1FFF80
000180
1FFF80
180000
180000
1FFF80
ENDCHAR
STARTCHAR C030105
ENCODING 12357
SWIDTH 2000 0
DWIDTH 20 0
BBX 16 18 2 -3
BITMAP
0003
7FC3
00C3
00C3
00C3
00C3
00C3
00FF
0183
0183
0303
0603
0C03
3803
E003
0003
0003
0003
ENDCHAR
STARTCHAR C030106
ENCODING 12358
SWIDTH 2000 0
DWIDTH 20 0
BBX 16 18 2 -3
BITMAP
0003
7FC3
0063
0063
00E3
00C3
01FF
0383
0F03
FC03
0003
0000
3FFF
0003
0003
0003
0003
0003
ENDCHAR
STARTCHAR C030107
ENCODING 12359
SWIDTH 2000 0
DWIDTH 20 0
BBX 17 17 2 -2
BITMAP
000300
7FC300
00E300
00E300
00C300
00C300
00FF00
018300
070300
7C0300
E00300
000300
180300
180000
180000
180000
1FFF80
ENDCHAR
STARTCHAR C030110
ENCODING 12360
SWIDTH 2000 0
DWIDTH 20 0
BBX 17 17 2 -2
BITMAP
000300
7FC300
00E300
00E300
00C300
00FF00
018300
070300
1E0300
F80300
000000
1FFF80
180000
180000
180000
180000
1FFF80
ENDCHAR
STARTCHAR C030111
ENCODING 12361
SWIDTH 2000 0
DWIDTH 20 0
BBX 17 17 2 -2
BITMAP
000300
7FC300
00E300
00C300
00FF00
01C300
038300
070300
3C0300
F00000
3FFF00
000380
000380
1FFF00
380000
380000
1FFF80
ENDCHAR
STARTCHAR C030112
ENCODING 12362
SWIDTH 2000 0
DWIDTH 20 0
BBX 17 18 2 -3
BITMAP
000300
7FC300
00E300
00E300
00FF00
01C300
038300
0F0300
FC0300
000000
7F3F80
033180
033180
7F3180
703180
703180
7FBF80
7C0000
ENDCHAR
STARTCHAR C030113
ENCODING 12363
SWIDTH 2000 0
DWIDTH 20 0
BBX 17 17 2 -2
BITMAP
000300
7FC300
00E300
00E300
00C300
00FF00
01C300
038300
3E0300
F00300
000000
1FFF80
180180
180180
180180
180180
1FFF80
ENDCHAR
STARTCHAR C030114
ENCODING 12364
SWIDTH 2000 0
DWIDTH 20 0
BBX 16 17 2 -2
BITMAP
0003
7FC3
00E3
00E3
00C3
00FF
0183
0703
FC03
0003
0000
1803
1803
1FFF
1803
1803
1FFF
ENDCHAR
STARTCHAR C030115
ENCODING 12365
SWIDTH 2000 0
DWIDTH 20 0
BBX 17 17 2 -2
BITMAP
000300
7FC300
00C300
00C300
00C300
00FF00
018300
038300
0E0300
F80300
C00300
000300
00E000
01E000
03B000
0F1C00
7C0F80
ENDCHAR
STARTCHAR C030116
ENCODING 12366
SWIDTH 2000 0
DWIDTH 20 0
BBX 17 17 2 -2
BITMAP
000300
FFC300
00C300
00C300
00C300
01FF00
038300
070300
1E0300
F80300
000000
1C0C00
1C1C00
1C1C00
3E1E00
763700
E3E380
ENDCHAR
STARTCHAR C030117
ENCODING 12367
SWIDTH 2000 0
DWIDTH 20 0
BBX 17 18 2 -3
BITMAP
000180
7FC180
00E180
00E180
00C180
00DF80
01C180
038180
0F0180
FC0180
000000
07FC00
1C0700
300180
300180
300180
1C0700
07FC00
ENDCHAR
STARTCHAR C030120
ENCODING 12368
SWIDTH 2000 0
DWIDTH 20 0
BBX 16 17 2 -2
BITMAP
0003
7FC3
00E3
00E3
00E3
00FF
01C3
0383
1E03
F803
0000
7FFF
01C0
01E0
03F0
0E38
7C0F
ENDCHAR
STARTCHAR C030121
ENCODING 12369
SWIDTH 2000 0
DWIDTH 20 0
BBX 17 17 2 -2
BITMAP
000300
7FC300
00E300
00E300
00C300
00FF00
018300
070300
1E0300
F00000
000000
1FFF80
180000
1FFF80
180000
180000
1FFF80
ENDCHAR
STARTCHAR C030122
ENCODING 12370
SWIDTH 2000 0
DWIDTH 20 0
BBX 17 17 2 -2
BITMAP
000300
7FC300
00C300
00C300
00C300
01FF00
038300
070300
3C0300
F00300
000000
3FFF00
060C00
060C00
060C00
060C00
3FFF80
ENDCHAR
STARTCHAR C030123
ENCODING 12371
SWIDTH 2000 0
DWIDTH 20 0
BBX 17 18 2 -3
BITMAP
000300
7FC300
00C300
00C300
00C300
01FF00
018300
070300
1E0300
F00300
07F800
000000
7FFF80
000000
1FFE00
380700
380700
0FFC00
ENDCHAR
STARTCHAR C030124
ENCODING 12372
SWIDTH 2000 0
DWIDTH 20 0
BBX 17 18 2 -3
BITMAP
001980
7F1980
031980
031980
031980
031980
031980
03F980
031980
061980
061980
0C1980
181980
701980
C01980
001980
001980
000180
ENDCHAR
STARTCHAR C030125
ENCODING 12373
SWIDTH 2000 0
DWIDTH 20 0
BBX 17 17 2 -2
BITMAP
000180
FF3180
033180
033180
033180
033180
07F180
063180
0C3180
783180
E03180
003180
183180
180000
180000
180000
1FFF80
ENDCHAR
STARTCHAR C030126
ENCODING 12374
SWIDTH 2000 0
DWIDTH 20 0
BBX 17 17 2 -2
BITMAP
003300
FF3380
033380
033380
03F380
033380
073380
0E3380
1C3380
F00000
000000
1FFF00
000380
1FFF80
180000
180000
1FFF80
ENDCHAR
STARTCHAR C030127
ENCODING 12375
SWIDTH 2000 0
DWIDTH 20 0
BBX 17 17 2 -2
BITMAP
000180
7F1980
031980
031980
031980
03F980
031980
061980
0E1980
781980
E00000
1FFF80
180180
180180
180180
180180
1FFF80
ENDCHAR
STARTCHAR C030130
ENCODING 12376
SWIDTH 2000 0
DWIDTH 20 0
BBX 17 17 2 -2
BITMAP
000180
7F1980
031980
031980
031980
03F980
071980
0E1980
3C1980
F01980
000000
180180
180180
1FFF80
180180
180180
1FFF80
ENDCHAR
STARTCHAR C030131
ENCODING 12377
SWIDTH 2000 0
DWIDTH 20 0
BBX 17 17 2 -2
BITMAP
003300
FF3300
033300
033300
033300
03F300
073300
063300
0C3300
383300
E03300
000000
00E000
01F000
03B800
071C00
7C0780
ENDCHAR
STARTCHAR C030132
ENCODING 12378
SWIDTH 2000 0
DWIDTH 20 0
BBX 17 17 2 -2
BITMAP
003300
FF3300
033300
033300
033300
03F300
063300
0E3300
1C3300
703300
C00300
1C0C00
1C0C00
1C1C00
3E1E00
373700
E3E380
ENDCHAR
STARTCHAR C030133
ENCODING 12379
SWIDTH 2000 0
DWIDTH 20 0
BBX 17 17 2 -2
BITMAP
001980
7F1980
031980
031980
031980
03F980
071980
061980
1C1980
781980
C00180
07FC00
1C0700
300180
300180
1C0700
07FC00
ENDCHAR
STARTCHAR C030134
ENCODING 12380
SWIDTH 2000 0
DWIDTH 20 0
BBX 15 18 3 -3
BITMAP
0006
FF86
0186
0186
0186
01FE
0186
0186
0386
0306
067E
0E06
1C06
7006
C006
0006
0006
0006
ENDCHAR
STARTCHAR C030135
ENCODING 12381
SWIDTH 2000 0
DWIDTH 20 0
BBX 16 18 2 -3
BITMAP
0003
7FC3
0063
007F
00E3
00C3
01C3
03BF
0F03
FC03
0003
0000
3FFF
0003
0003
0003
0003
0003
ENDCHAR
STARTCHAR C030136
ENCODING 12382
SWIDTH 2000 0
DWIDTH 20 0
BBX 16 17 2 -2
BITMAP
0003
7FC3
0063
00FF
00E3
00C3
01C3
073F
3E03
F003
0000
7FFF
0183
0183
0183
0183
0183
ENDCHAR
STARTCHAR C030137
ENCODING 12383
SWIDTH 2000 0
DWIDTH 20 0
BBX 17 17 2 -2
BITMAP
000300
7FC300
00E300
00E300
00FF00
00C300
00C300
018300
073F00
7C0300
E00300
000300
180300
180000
180000
180000
1FFF80
ENDCHAR
STARTCHAR C030140
ENCODING 12384
SWIDTH 2000 0
DWIDTH 20 0
BBX 17 17 2 -2
BITMAP
000300
7FC300
00E300
00FF00
00C300
00C300
018300
070300
3E3F00
F00300
000000
1FFF80
180000
180000
180000
180000
1FFF80
ENDCHAR
STARTCHAR C030141
ENCODING 12385
SWIDTH 2000 0
DWIDTH 20 0
BBX 17 17 2 -2
BITMAP
000300
7FC300
00E300
00FF00
00C300
00C300
01BF00
070300
1E0300
F00000
000000
1FFF00
000380
1FFF00
180000
180000
1FFF80
ENDCHAR
STARTCHAR C030142
ENCODING 12386
SWIDTH 2000 0
DWIDTH 20 0
BBX 17 17 2 -2
BITMAP
000180
7FC180
00E180
00FF80
00C180
00C180
018180
071F80
1E0180
F80000
000000
1FFF00
180300
180300
180300
180300
1FFF00
ENDCHAR
STARTCHAR C030143
ENCODING 12387
SWIDTH 2000 0
DWIDTH 20 0
BBX 17 17 2 -2
BITMAP
000300
7FC300
00E300
00FF00
00C300
00C300
018300
073F00
1E0300
F80300
000000
180180
180180
1FFF80
180180
180180
1FFF80
ENDCHAR
STARTCHAR C030144
ENCODING 12388
SWIDTH 2000 0
DWIDTH 20 0
BBX 17 17 2 -2
BITMAP
000300
7FC300
00C300
00FF00
00C300
01C300
038300
070300
1E3F00
F80300
000300
00C300
00E000
01E000
033000
0E1C00
780F80
ENDCHAR
STARTCHAR C030145
ENCODING 12389
SWIDTH 2000 0
DWIDTH 20 0
BBX 17 17 2 -2
BITMAP
000300
FFC300
00C300
00FF00
00C300
018300
038300
070300
1C3F00
F00300
000300
1C0C00
1C1C00
1C1C00
3E3E00
773700
E3E380
ENDCHAR
STARTCHAR C030146
ENCODING 12390
SWIDTH 2000 0
DWIDTH 20 0
BBX 17 18 2 -3
BITMAP
000300
7FC300
00E300
00FF00
00C300
00C300
018300
070300
0E3F00
F80300
000300
07FC00
1C0700
300380
300180
300180
1C0700
07FC00
ENDCHAR
STARTCHAR C030147
ENCODING 12391
SWIDTH 2000 0
DWIDTH 20 0
BBX 17 17 2 -2
BITMAP
000300
7FC300
00E300
00FF00
00C300
00C300
018300
071F00
1E0300
F80300
000000
1FFF80
180000
1FFF00
180000
180000
1FFF80
ENDCHAR
STARTCHAR C030150
ENCODING 12392
SWIDTH 2000 0
DWIDTH 20 0
BBX 17 18 2 -3
BITMAP
001980
7F1980
031980
031980
03F980
031980
031980
031980
031980
061980
06F980
0C1980
181980
701980
C01980
001980
001980
000180
ENDCHAR
STARTCHAR C030151
ENCODING 12393
SWIDTH 2000 0
DWIDTH 20 0
BBX 17 17 2 -2
BITMAP
003300
FF3300
033300
03F300
033300
033300
063300
063300
0DF300
783300
E03300
003300
180300
180000
180000
180000
1FFF80
ENDCHAR
STARTCHAR C030152
ENCODING 12394
SWIDTH 2000 0
DWIDTH 20 0
BBX 17 17 2 -2
BITMAP
003180
FF3180
03F180
033180
033180
033180
07F180
0E3180
783180
E00180
0FFF80
000180
000180
0FFF80
0C0000
0C0000
0FFF80
ENDCHAR
STARTCHAR C030153
ENCODING 12395
SWIDTH 2000 0
DWIDTH 20 0
BBX 17 17 2 -2
BITMAP
001980
7F1980
03F980
031980
031980
031980
06F980
0E1980
781980
E00180
000000
180180
180180
1FFF80
180180
180180
1FFF80
ENDCHAR
STARTCHAR C030154
ENCODING 12396
SWIDTH 2000 0
DWIDTH 20 0
BBX 17 17 2 -2
BITMAP
003300
FF3300
033300
03F300
033300
033300
063300
0FF300
1C3300
783300
E03300
000300
00E000
01F000
03B800
071C00
7C0780
ENDCHAR
STARTCHAR C030155
ENCODING 12397
SWIDTH 2000 0
DWIDTH 20 0
BBX 17 15 2 -1
BITMAP
7FFE00
000600
000600
000600
000600
000600
000600
030600
030600
030600
030600
030E00
030000
030000
FFFF80
ENDCHAR
STARTCHAR C030156
ENCODING 12398
SWIDTH 2000 0
DWIDTH 20 0
BBX 17 16 2 -2
BITMAP
7FFE00
000600
000600
018600
018600
018600
018600
FFFF80
000000
000000
7FFE00
000600
000600
000600
000600
000600
ENDCHAR
STARTCHAR C030157
ENCODING 12399
SWIDTH 2000 0
DWIDTH 20 0
BBX 17 16 2 -2
BITMAP
7FFE00
000600
000600
018600
018600
018600
018600
018600
FFFF80
000000
000000
300000
300000
300000
300000
3FFF00
ENDCHAR
STARTCHAR C030160
ENCODING 12400
SWIDTH 2000 0
DWIDTH 20 0
BBX 17 16 2 -2
BITMAP
7FFE00
000600
000600
018600
018600
018600
018600
FFFF80
000000
000000
3FFF00
300000
300000
300000
300000
3FFF00
ENDCHAR
STARTCHAR C030161
ENCODING 12401
SWIDTH 2000 0
DWIDTH 20 0
BBX 17 16 2 -2
BITMAP
7FFE00
000700
000600
038600
038600
038600
FFFF80
000000
000000
7FFE00
000600
000600
7FFE00
600000
600000
7FFF00
ENDCHAR
STARTCHAR C030162
ENCODING 12402
SWIDTH 2000 0
DWIDTH 20 0
BBX 17 17 2 -3
BITMAP
7FFE00
000600
000600
018600
018600
018600
018600
FFFF80
000000
7F7F00
036300
036300
7F6300
606300
606300
7FFF00
7C0000
ENDCHAR
STARTCHAR C030163
ENCODING 12403
SWIDTH 2000 0
DWIDTH 20 0
BBX 17 16 2 -2
BITMAP
7FFE00
000600
000600
018600
018600
018600
018600
FFFF80
000000
000000
7F1C00
031C00
3F1C00
703C00
707700
3FE380
ENDCHAR
STARTCHAR C030164
ENCODING 12404
SWIDTH 2000 0
DWIDTH 20 0
BBX 17 16 2 -2
BITMAP
3FFF00
000300
018300
018300
018700
018700
FFFF80
000000
000000
7F3E00
030000
03FF80
7F7E00
60E300
60E300
7F7E00
ENDCHAR
STARTCHAR C030165
ENCODING 12405
SWIDTH 2000 0
DWIDTH 20 0
BBX 17 16 2 -2
BITMAP
7FFE00
000600
000600
018600
018600
018600
018600
FFFF80
000000
000000
3FFE00
300600
300600
300600
300600
3FFE00
ENDCHAR
STARTCHAR C030166
ENCODING 12406
SWIDTH 2000 0
DWIDTH 20 0
BBX 17 16 2 -2
BITMAP
7FFE00
000600
000600
018600
018600
018600
018600
FFFF80
000000
300600
300600
3FFE00
300600
300600
300600
3FFE00
ENDCHAR
STARTCHAR C030167
ENCODING 12407
SWIDTH 2000 0
DWIDTH 20 0
BBX 17 16 2 -2
BITMAP
7FFE00
000600
000600
018600
018600
018600
018600
018600
FFFF80
000000
01C000
01C000
03E000
077000
1C3800
F80F00
ENDCHAR
STARTCHAR C030170
ENCODING 12408
SWIDTH 2000 0
DWIDTH 20 0
BBX 17 16 2 -2
BITMAP
7FFE00
000600
018600
018600
018600
018600
018600
FFFF80
000000
000000
0FF800
380E00
600300
600300
380E00
0FF800
ENDCHAR
STARTCHAR C030171
ENCODING 12409
SWIDTH 2000 0
DWIDTH 20 0
BBX 17 16 2 -2
BITMAP
7FFE00
000600
000600
018600
018600
018600
018600
FFFF80
000000
000000
7FFF00
01C000
03E000
077000
1E3C00
700F00
ENDCHAR
STARTCHAR C030172
ENCODING 12410
SWIDTH 2000 0
DWIDTH 20 0
BBX 19 18 1 -3
BITMAP
000300
3FF300
003300
003300
003300
003300
006300
0C63E0
0C6300
0C6300
0C6300
0CC300
0C0300
FFFF00
000300
000300
000300
000300
ENDCHAR
STARTCHAR C030173
ENCODING 12411
SWIDTH 2000 0
DWIDTH 20 0
BBX 19 18 1 -3
BITMAP
000300
3FF300
003300
003300
0C3300
0C33E0
0C3300
0C7300
FFFF00
000300
000300
000000
3FFF00
000300
000300
000300
000300
000300
ENDCHAR
STARTCHAR C030174
ENCODING 12412
SWIDTH 2000 0
DWIDTH 20 0
BBX 19 17 1 -2
BITMAP
000300
3FF300
003300
003300
003300
0C3300
0C33E0
0C3300
0C7300
FFFF00
000300
000300
300300
300000
300000
300000
3FFF00
ENDCHAR
STARTCHAR C030175
ENCODING 12413
SWIDTH 2000 0
DWIDTH 20 0
BBX 19 17 1 -2
BITMAP
000300
7FF300
003300
003300
0E3300
0E33E0
0E7300
0E6700
FFFF00
000300
000000
3FFF00
000300
3FFF00
300000
300000
3FFF00
ENDCHAR
STARTCHAR C030176
ENCODING 12414
SWIDTH 2000 0
DWIDTH 20 0
BBX 19 17 1 -2
BITMAP
000300
3FF300
003300
0C3300
0C33E0
0C3300
0C7300
FFFF00
000300
000000
7F7F00
036300
036300
7F6300
606300
606300
7FFF00
ENDCHAR
STARTCHAR C030177
ENCODING 12415
SWIDTH 2000 0
DWIDTH 20 0
BBX 0 0 0 0
BITMAP
ENDCHAR
STARTCHAR C030441
ENCODING 12577
SWIDTH 2000 0
DWIDTH 20 0
BBX 19 17 1 -2
BITMAP
000300
3FF300
003300
003300
0C33E0
0C3300
0C3300
0C7300
FFFF00
000300
000000
3FFF00
300300
300300
300300
300300
3FFF00
ENDCHAR
STARTCHAR C030442
ENCODING 12578
SWIDTH 2000 0
DWIDTH 20 0
BBX 19 17 1 -2
BITMAP
000300
3FF300
003300
003300
0C33E0
0C3300
0C3300
0C7700
FFFF00
000300
000000
300300
300300
3FFF00
300300
300300
3FFF00
ENDCHAR
STARTCHAR C030443
ENCODING 12579
SWIDTH 2000 0
DWIDTH 20 0
BBX 19 17 1 -2
BITMAP
000300
3FF300
003300
003300
0C33E0
0C3300
0C3300
0C3300
0C7700
FFFF00
000300
006300
00E000
01F000
03B800
0F1C00
7C0780
ENDCHAR
STARTCHAR C030444
ENCODING 12580
SWIDTH 2000 0
DWIDTH 20 0
BBX 19 17 1 -2
BITMAP
000300
3FF300
003300
003300
0C33E0
0C3300
0C3300
0C7300
FFFF00
000300
07FB00
1C1E00
380700
300300
380700
1C0E00
07F800
ENDCHAR
STARTCHAR C030445
ENCODING 12581
SWIDTH 2000 0
DWIDTH 20 0
BBX 16 18 2 -3
BITMAP
0033
3FB3
01B3
01B3
01B3
01B3
01B3
19BF
19B3
19B3
19B3
1833
1873
FFF3
0033
0033
0033
0003
ENDCHAR
STARTCHAR C030446
ENCODING 12582
SWIDTH 2000 0
DWIDTH 20 0
BBX 17 17 2 -2
BITMAP
003300
7F3300
033300
033300
1B3300
1B3F00
1B3300
1B3300
1B3300
FFF300
003300
003300
183300
180000
180000
180000
1FFF80
ENDCHAR
STARTCHAR C030447
ENCODING 12583
SWIDTH 2000 0
DWIDTH 20 0
BBX 17 17 2 -2
BITMAP
003300
7FB300
01B300
01B300
19B300
19BF00
1B3300
183300
FFF300
003300
000000
1FFF00
000300
1FFF00
180000
180000
1FFF80
ENDCHAR
STARTCHAR C030450
ENCODING 12584
SWIDTH 2000 0
DWIDTH 20 0
BBX 16 17 2 -2
BITMAP
0033
7FB3
01B3
01B3
19B3
19BF
19B3
1833
FFF3
0033
0000
1803
1803
1FFF
1803
1803
1FFF
ENDCHAR
STARTCHAR C030451
ENCODING 12585
SWIDTH 2000 0
DWIDTH 20 0
BBX 17 17 2 -2
BITMAP
003300
7F3300
033300
033300
1B3300
1B3F00
1B3300
183300
1BF300
FE3300
000000
1C1C00
1C1C00
1C1C00
3E3E00
777700
E3E380
ENDCHAR
STARTCHAR C030452
ENCODING 12586
SWIDTH 2000 0
DWIDTH 20 0
BBX 16 18 2 -3
BITMAP
0033
7FB3
01B3
01B3
19B3
19BF
19B3
1B33
1BF3
FE33
0003
07F8
1C1E
3007
3003
3803
1C0E
07F8
ENDCHAR
STARTCHAR C030453
ENCODING 12587
SWIDTH 2000 0
DWIDTH 20 0
BBX 15 18 3 -3
BITMAP
0006
FFC6
00C6
00C6
00C6
00C6
00C6
18C6
18C6
18C6
18C6
1806
180E
FFFE
0006
0006
0006
0006
ENDCHAR
STARTCHAR C030454
ENCODING 12588
SWIDTH 2000 0
DWIDTH 20 0
BBX 15 18 3 -3
BITMAP
0006
FFC6
00C6
00C6
0CC6
0CC6
0CC6
0C0E
FFFE
0006
0006
0000
7FFE
0006
0006
0006
0006
0006
ENDCHAR
STARTCHAR C030455
ENCODING 12589
SWIDTH 2000 0
DWIDTH 20 0
BBX 16 17 2 -2
BITMAP
0003
7FE3
0063
0063
0C63
0C63
0C63
0C63
0C07
FFFF
0003
0003
3003
3000
3000
3000
3FFF
ENDCHAR
STARTCHAR C030456
ENCODING 12590
SWIDTH 2000 0
DWIDTH 20 0
BBX 17 16 2 -2
BITMAP
7FE300
007300
006300
0C6300
0E6300
0E6300
0E0700
FFFF00
000300
000300
3FFF00
000300
1FFF00
180000
180000
1FFF80
ENDCHAR
STARTCHAR C030457
ENCODING 12591
SWIDTH 2000 0
DWIDTH 20 0
BBX 15 16 3 -2
BITMAP
FFC6
00C6
00C6
0CC6
0CC6
0CC6
0C0E
FFFE
0006
0006
3FFE
3006
3006
3006
3006
3FFE
ENDCHAR
STARTCHAR C030460
ENCODING 12592
SWIDTH 2000 0
DWIDTH 20 0
BBX 15 16 3 -2
BITMAP
FFC6
00C6
00C6
0CC6
0CC6
0CC6
0C0E
FFFE
0006
0000
3006
3006
3FFE
3006
3006
3FFE
ENDCHAR
STARTCHAR C030461
ENCODING 12593
SWIDTH 2000 0
DWIDTH 20 0
BBX 17 17 2 -2
BITMAP
000300
7FE300
006300
006300
0C6300
0C6300
0C6300
0C6700
0DFF00
FF0300
000300
00C000
00E000
01E000
033000
0E1C00
780F80
ENDCHAR
STARTCHAR C030462
ENCODING 12594
SWIDTH 2000 0
DWIDTH 20 0
BBX 15 17 3 -2
BITMAP
0006
FFC6
00C6
00C6
0CC6
0CC6
0CC6
0C0E
FFFE
0006
0006
0FF0
381C
6006
6006
381C
0FF0
ENDCHAR
STARTCHAR C030463
ENCODING 12595
SWIDTH 2000 0
DWIDTH 20 0
BBX 17 15 2 -1
BITMAP
7FFE00
000600
000600
000600
000600
000600
000600
0C6600
0C6600
0C6600
0C6600
0C6600
0C6600
0C6000
FFFF80
ENDCHAR
STARTCHAR C030464
ENCODING 12596
SWIDTH 2000 0
DWIDTH 20 0
BBX 17 16 2 -2
BITMAP
7FFE00
000700
000700
000700
0C6700
0C6600
0C6600
0C6000
FFFF80
000000
300000
300000
300000
300000
300000
3FFF00
ENDCHAR
STARTCHAR C030465
ENCODING 12597
SWIDTH 2000 0
DWIDTH 20 0
BBX 18 16 2 -2
BITMAP
7FFE00
000600
000600
000600
0C3600
0C3600
0C3000
FFFFC0
000000
7FFE00
000600
000600
7FFE00
600000
600000
7FFE00
ENDCHAR
STARTCHAR C030466
ENCODING 12598
SWIDTH 2000 0
DWIDTH 20 0
BBX 17 16 2 -2
BITMAP
7FFE00
000700
000700
0C6700
0C6700
0C6600
0C6000
FFFF80
000000
300600
300600
3FFE00
300600
300600
300600
3FFE00
ENDCHAR
STARTCHAR C030467
ENCODING 12599
SWIDTH 2000 0
DWIDTH 20 0
BBX 17 16 2 -2
BITMAP
7FFE00
000700
000700
000700
0C6700
0C6600
0C6600
0C6000
FFFF80
000000
00C000
01C000
01E000
077000
0E3C00
780F00
ENDCHAR
STARTCHAR C030470
ENCODING 12600
SWIDTH 2000 0
DWIDTH 20 0
BBX 18 17 2 -3
BITMAP
3FFF00
000300
000300
000300
000300
000300
000300
000300
000300
FFFFC0
00C000
00C000
00C000
00C000
00C000
00C000
00C000
ENDCHAR
STARTCHAR C030471
ENCODING 12601
SWIDTH 2000 0
DWIDTH 20 0
BBX 17 16 2 -2
BITMAP
7FFE00
000600
000600
000600
000600
000600
FFFF80
00C000
00C000
00C000
3FFF00
000300
000300
000300
000300
000300
ENDCHAR
STARTCHAR C030472
ENCODING 12602
SWIDTH 2000 0
DWIDTH 20 0
BBX 17 16 2 -2
BITMAP
7FFE00
000600
000600
000600
000600
000600
000600
FFFF80
00C000
00C000
00C000
30C000
300000
300000
300000
3FFF00
ENDCHAR
STARTCHAR C030473
ENCODING 12603
SWIDTH 2000 0
DWIDTH 20 0
BBX 17 16 2 -2
BITMAP
7FFE00
000600
000600
000600
000600
000600
FFFF80
00C000
00C000
00C000
3FFF00
300000
300000
300000
300000
3FFF00
ENDCHAR
STARTCHAR C030474
ENCODING 12604
SWIDTH 2000 0
DWIDTH 20 0
BBX 17 16 2 -2
BITMAP
7FFE00
000700
000600
000600
000600
000600
FFFF80
01C000
01C000
7FFE00
000700
000700
3FFE00
700000
700000
3FFF00
ENDCHAR
STARTCHAR C030475
ENCODING 12605
SWIDTH 2000 0
DWIDTH 20 0
BBX 16 16 2 -2
BITMAP
7FFE
0006
0006
0006
0006
0006
FFFF
00C0
00C0
7FFF
0303
0303
7F03
6003
6003
7F83
ENDCHAR
STARTCHAR C030476
ENCODING 12606
SWIDTH 2000 0
DWIDTH 20 0
BBX 17 17 2 -3
BITMAP
7FFE00
000600
000600
000600
000600
FFFF80
018000
018000
018000
7E7F00
076300
076300
7E6300
E06300
E06300
FFFF00
780000
ENDCHAR
STARTCHAR C030477
ENCODING 12607
SWIDTH 2000 0
DWIDTH 20 0
BBX 17 16 2 -2
BITMAP
7FFE00
000600
000600
000600
000600
FFFF80
018000
018000
01BE00
FE0000
06FF80
060000
7E7F00
60E300
60E300
7FFE00
ENDCHAR
STARTCHAR C030500
ENCODING 12608
SWIDTH 2000 0
DWIDTH 20 0
BBX 16 16 2 -2
BITMAP
7FFE
0006
0006
0006
0006
0006
FFFF
0180
0180
0180
3FFF
3003
3003
3003
3003
3FFF
ENDCHAR
STARTCHAR C030501
ENCODING 12609
SWIDTH 2000 0
DWIDTH 20 0
BBX 17 16 2 -2
BITMAP
7FFE00
000600
000600
000600
000600
000600
FFFF80
018000
018000
318600
300600
3FFE00
300600
300600
300600
3FFE00
ENDCHAR
STARTCHAR C030502
ENCODING 12610
SWIDTH 2000 0
DWIDTH 20 0
BBX 17 16 2 -2
BITMAP
7FFE00
000600
000600
000600
000600
000600
000600
FFFF80
018000
018000
018000
01C000
01C000
077000
1E3800
F80F00
ENDCHAR
STARTCHAR C030503
ENCODING 12611
SWIDTH 2000 0
DWIDTH 20 0
BBX 17 16 2 -2
BITMAP
7FFE00
000600
000600
000600
000600
000600
FFFF80
018000
018000
0FF000
3C1E00
700700
600300
700700
3C1E00
0FF000
ENDCHAR
STARTCHAR C030504
ENCODING 12612
SWIDTH 2000 0
DWIDTH 20 0
BBX 16 17 2 -3
BITMAP
7FFE
0006
0006
0006
0006
0006
FFFF
0180
0180
0180
0000
7FFE
0380
07C0
0E70
783E
6000
ENDCHAR
STARTCHAR C030505
ENCODING 12613
SWIDTH 2000 0
DWIDTH 20 0
BBX 15 18 3 -3
BITMAP
0006
7FC6
00C6
00C6
00C6
00C6
00C6
00C6
00FE
FF86
0606
067E
0606
0606
0606
0606
0606
0600
ENDCHAR
STARTCHAR C030506
ENCODING 12614
SWIDTH 2000 0
DWIDTH 20 0
BBX 16 18 2 -3
BITMAP
0003
3FE3
0063
0063
0063
0063
FFFF
0603
063F
0603
0003
0000
3FFF
0003
0003
0003
0003
0003
ENDCHAR
STARTCHAR C030507
ENCODING 12615
SWIDTH 2000 0
DWIDTH 20 0
BBX 17 17 2 -2
BITMAP
000300
3FE300
006300
006300
006300
006300
006300
FFFF00
060300
060300
063F00
060300
180300
180300
180000
180000
1FFF80
ENDCHAR
STARTCHAR C030510
ENCODING 12616
SWIDTH 2000 0
DWIDTH 20 0
BBX 16 17 2 -2
BITMAP
0003
3FE3
0063
0063
0063
007F
FFC3
0603
067F
0603
0000
3FFF
0003
1FFF
3800
3800
1FFF
ENDCHAR
STARTCHAR C030511
ENCODING 12617
SWIDTH 2000 0
DWIDTH 20 0
BBX 17 17 2 -2
BITMAP
000300
3FE300
006300
006300
006300
006300
FFFF00
060300
063F00
060F00
000300
181F00
1C1C00
1C1C00
3E3E00
777700
C3E180
ENDCHAR
STARTCHAR C030512
ENCODING 12618
SWIDTH 2000 0
DWIDTH 20 0
BBX 16 17 2 -2
BITMAP
0003
3FE3
0063
0063
0063
0063
FFFF
0603
063F
0603
0003
0FF8
1C0E
3003
3003
1C0E
07F8
ENDCHAR
STARTCHAR C030513
ENCODING 12619
SWIDTH 2000 0
DWIDTH 20 0
BBX 15 18 3 -3
BITMAP
0006
FE66
0666
0666
0666
0666
0666
0666
07E6
FFE6
1866
1BE6
1866
1866
1866
1866
1866
0006
ENDCHAR
STARTCHAR C030514
ENCODING 12620
SWIDTH 2000 0
DWIDTH 20 0
BBX 17 17 2 -2
BITMAP
001B00
3F9B00
019B00
019B00
019B00
019B00
01FB00
FF1B00
0C1B00
0CFB00
0C1B00
0CDB00
00E000
01F000
03B800
0E1C00
7C0780
ENDCHAR
STARTCHAR C030515
ENCODING 12621
SWIDTH 2000 0
DWIDTH 20 0
BBX 15 17 3 -3
BITMAP
7FC6
00C6
00C6
00C6
00C6
00C6
00C6
00C6
FFFE
0606
0606
0606
0606
0606
0606
0606
0006
ENDCHAR
STARTCHAR C030516
ENCODING 12622
SWIDTH 2000 0
DWIDTH 20 0
BBX 15 17 3 -3
BITMAP
7FE6
0066
0066
0066
0066
0066
FFFE
0606
0606
0606
0000
7FFE
0006
0006
0006
0006
0006
ENDCHAR
STARTCHAR C030517
ENCODING 12623
SWIDTH 2000 0
DWIDTH 20 0
BBX 17 17 2 -2
BITMAP
000300
7FE300
006300
006300
006300
006300
006300
006700
FFFF00
030300
030300
030300
1B0300
180000
180000
180000
1FFF80
ENDCHAR
STARTCHAR C030520
ENCODING 12624
SWIDTH 2000 0
DWIDTH 20 0
BBX 17 16 2 -2
BITMAP
7FE300
006300
006300
006300
006300
006300
FFFF00
070300
070300
000000
1FFF00
000380
1FFF00
180000
180000
1FFF80
ENDCHAR
STARTCHAR C030521
ENCODING 12625
SWIDTH 2000 0
DWIDTH 20 0
BBX 15 17 3 -2
BITMAP
0006
FFC6
00C6
00C6
00C6
00C6
00CE
FFFE
0606
0606
0000
3FFE
3006
3006
3006
3006
3FFE
ENDCHAR
STARTCHAR C030522
ENCODING 12626
SWIDTH 2000 0
DWIDTH 20 0
BBX 16 17 3 -2
BITMAP
0006
FFC6
00C6
00C6
00C6
00C6
00CE
FFFE
0606
0606
0600
3003
3003
3FFF
3003
3003
3FFF
ENDCHAR
STARTCHAR C030523
ENCODING 12627
SWIDTH 2000 0
DWIDTH 20 0
BBX 17 17 2 -2
BITMAP
000300
7FE300
006300
006300
006300
006300
006300
FFFF00
060300
060300
060300
00C000
00E000
01F000
03B800
0E1C00
7C0780
ENDCHAR
STARTCHAR C030524
ENCODING 12628
SWIDTH 2000 0
DWIDTH 20 0
BBX 17 17 2 -3
BITMAP
7FFE00
000600
000600
000600
000600
000600
000600
000600
FFFF80
0C1800
0C1800
0C1800
0C1800
0C1800
0C1800
0C1800
001800
ENDCHAR
STARTCHAR C030525
ENCODING 12629
SWIDTH 2000 0
DWIDTH 20 0
BBX 17 16 2 -2
BITMAP
7FFE00
000600
000600
000600
000600
000600
000600
FFFF80
061800
061800
061800
661800
601800
600000
600000
7FFF00
ENDCHAR
STARTCHAR C030526
ENCODING 12630
SWIDTH 2000 0
DWIDTH 20 0
BBX 17 16 2 -2
BITMAP
7FFE00
000600
000600
000600
000600
000600
FFFF80
0C1800
0C1800
7FFE00
000700
000700
3FFE00
700000
700000
3FFF00
ENDCHAR
STARTCHAR C030527
ENCODING 12631
SWIDTH 2000 0
DWIDTH 20 0
BBX 16 15 3 -1
BITMAP
7FFC
000C
000C
000C
000C
000C
000C
000C
000C
000C
000C
000C
000C
000C
FFFF
ENDCHAR
STARTCHAR C030530
ENCODING 12632
SWIDTH 2000 0
DWIDTH 20 0
BBX 17 16 2 -2
BITMAP
7FFE00
000600
000600
000600
000600
000600
000600
FFFF80
000000
000000
7FFE00
000600
000600
000600
000600
000600
ENDCHAR
STARTCHAR C030531
ENCODING 12633
SWIDTH 2000 0
DWIDTH 20 0
BBX 17 16 2 -2
BITMAP
7FFE00
000600
000600
000600
000600
000600
000600
FFFF80
000000
000000
300000
300000
300000
300000
300000
3FFF00
ENDCHAR
STARTCHAR C030532
ENCODING 12634
SWIDTH 2000 0
DWIDTH 20 0
BBX 17 16 2 -2
BITMAP
7FFE00
000600
000600
000600
000600
000600
000600
FFFF80
000000
000000
3FFF00
300000
300000
300000
300000
3FFF00
ENDCHAR
STARTCHAR C030533
ENCODING 12635
SWIDTH 2000 0
DWIDTH 20 0
BBX 17 16 2 -2
BITMAP
7FFE00
000700
000600
000600
000600
000600
FFFF80
000000
000000
7FFE00
000700
000700
3FFE00
300000
300000
3FFF00
ENDCHAR
STARTCHAR C030534
ENCODING 12636
SWIDTH 2000 0
DWIDTH 20 0
BBX 17 16 2 -2
BITMAP
7FFE00
000600
000600
000600
000600
000600
FFFF80
000000
000000
7FFE00
070600
070600
7F0600
600600
600600
7F8600
ENDCHAR
STARTCHAR C030535
ENCODING 12637
SWIDTH 2000 0
DWIDTH 20 0
BBX 17 16 2 -2
BITMAP
7FFE00
000600
000600
000600
000600
000600
FFFF80
000000
000000
000000
3FFF00
300300
300300
300300
300300
3FFF00
ENDCHAR
STARTCHAR C030536
ENCODING 12638
SWIDTH 2000 0
DWIDTH 20 0
BBX 17 16 2 -2
BITMAP
7FFE00
000600
000600
000600
000600
000600
FFFF80
000000
000000
300600
300600
3FFE00
300600
300600
300600
3FFE00
ENDCHAR
STARTCHAR C030537
ENCODING 12639
SWIDTH 2000 0
DWIDTH 20 0
BBX 17 16 2 -2
BITMAP
7FFE00
000600
000600
000600
000600
000600
000600
FFFF80
000000
000000
00C000
01E000
01E000
033000
0E1C00
780F80
ENDCHAR
STARTCHAR C030540
ENCODING 12640
SWIDTH 2000 0
DWIDTH 20 0
BBX 17 16 2 -2
BITMAP
7FFE00
000600
000600
000600
000600
000600
000600
FFFF80
000000
07F800
1C1E00
380700
300300
380700
1C0E00
07F800
ENDCHAR
STARTCHAR C030541
ENCODING 12641
SWIDTH 2000 0
DWIDTH 20 0
BBX 16 18 2 -3
BITMAP
0003
7FE3
0063
0063
0063
0063
0063
0063
0063
0063
0063
0063
0063
FFFF
0003
0003
0003
0003
ENDCHAR
STARTCHAR C030542
ENCODING 12642
SWIDTH 2000 0
DWIDTH 20 0
BBX 15 18 3 -3
BITMAP
0006
7FC6
00C6
00C6
00C6
00C6
00C6
00C6
01C6
0186
0386
0706
0E06
F806
C006
0006
0006
0006
ENDCHAR
STARTCHAR C030543
ENCODING 12643
SWIDTH 2000 0
DWIDTH 20 0
BBX 17 18 2 -3
BITMAP
000300
7FC300
00E300
00E300
00C300
00C300
00C300
018300
070300
7C0300
E00000
1FFF80
000180
000180
000180
000180
000180
000180
ENDCHAR
STARTCHAR C030544
ENCODING 12644
SWIDTH 2000 0
DWIDTH 20 0
BBX 17 17 2 -2
BITMAP
000300
7FC300
00E300
00E300
00C300
00C300
00C300
01C300
038300
1E0300
F80300
000300
180300
180000
180000
180000
1FFF80
ENDCHAR
STARTCHAR C030545
ENCODING 12645
SWIDTH 2000 0
DWIDTH 20 0
BBX 17 17 2 -2
BITMAP
000300
7FC300
00E300
00E300
00C300
00C300
01C300
038300
0E0300
F80300
000000
1FFF80
180000
180000
180000
180000
1FFF80
ENDCHAR
STARTCHAR C030546
ENCODING 12646
SWIDTH 2000 0
DWIDTH 20 0
BBX 16 17 2 -2
BITMAP
0003
7FC3
00E3
00C3
00C3
00C3
0183
0303
1E03
F003
0000
1FFF
0003
1FFF
3800
3800
1FFF
ENDCHAR
STARTCHAR C030547
ENCODING 12647
SWIDTH 2000 0
DWIDTH 20 0
BBX 17 18 2 -3
BITMAP
000300
7FC300
00E300
00E300
00C300
00C300
018300
070300
FC0300
000000
7F3F80
033180
033180
7F3180
703180
703180
7FBF80
7C0000
ENDCHAR
STARTCHAR C030550
ENCODING 12648
SWIDTH 2000 0
DWIDTH 20 0
BBX 17 17 2 -2
BITMAP
000300
7FC300
00E300
00E300
00C300
00C300
01C300
038300
0F0300
F80300
000000
1FFF80
180180
180180
180180
180180
1FFF80
ENDCHAR
STARTCHAR C030551
ENCODING 12649
SWIDTH 2000 0
DWIDTH 20 0
BBX 17 17 2 -2
BITMAP
000180
7FC180
00E180
00E180
00C180
00C180
018180
070180
7E0180
E00000
180180
180180
1FFF80
180180
180180
180180
1FFF00
ENDCHAR
STARTCHAR C030552
ENCODING 12650
SWIDTH 2000 0
DWIDTH 20 0
BBX 17 17 2 -2
BITMAP
000300
FFC300
00C300
00C300
00C300
00C300
01C300
038300
070300
7C0300
E00300
00C000
00E000
01F000
03B800
0F1C00
7C0780
ENDCHAR
STARTCHAR C030553
ENCODING 12651
SWIDTH 2000 0
DWIDTH 20 0
BBX 17 18 2 -3
BITMAP
000180
7FC180
00E180
00E180
00C180
00C180
01C180
038180
0F0180
F80180
07F800
1C0E00
380700
300300
300300
380700
1C1E00
07F800
ENDCHAR
STARTCHAR C030554
ENCODING 12652
SWIDTH 2000 0
DWIDTH 20 0
BBX 17 17 2 -2
BITMAP
000300
7FE300
00E300
00E300
00C300
00C300
018300
030300
1E0300
F00000
000000
7FFF80
00C000
01E000
03F000
0F1C00
7C0F80
ENDCHAR
STARTCHAR C030555
ENCODING 12653
SWIDTH 2000 0
DWIDTH 20 0
BBX 17 17 2 -2
BITMAP
000300
FFC300
00C300
00C300
00C300
01C300
038300
070300
3C0300
F00000
000000
3FFF00
060C00
060C00
060C00
060C00
3FFF80
ENDCHAR
STARTCHAR C030556
ENCODING 12654
SWIDTH 2000 0
DWIDTH 20 0
BBX 19 17 1 -2
BITMAP
000300
FDF300
0C3300
0C3300
0C3300
0C3300
0C3300
0C33E0
0C3300
0C3300
1C3300
187300
386300
70E300
E1C300
000300
000300
ENDCHAR
STARTCHAR C030557
ENCODING 12655
SWIDTH 2000 0
DWIDTH 20 0
BBX 19 18 1 -3
BITMAP
000300
7FF300
063B00
063B00
063B00
0633E0
0E3300
0C7300
38E300
F1C300
018300
000000
3FFF00
000300
000300
000300
000300
000300
ENDCHAR
STARTCHAR C030560
ENCODING 12656
SWIDTH 2000 0
DWIDTH 20 0
BBX 19 17 1 -2
BITMAP
000300
7FF300
063B00
063B00
0633E0
063300
0C3300
1C6300
38E300
E1C000
000000
7F7F00
030300
030300
030300
030300
030300
ENDCHAR
ENDFONT
